STARTFONT 2.1
COMMENT
COMMENT Converted from OpenType font "Ubuntu-Regular.ttf" by "otf2bdf 3.0".
COMMENT
FONT -FreeType-Ubuntu-Medium-R-Normal--22-160-100-100-P-118-ISO10646-1
SIZE 16 100 100
FONTBOUNDINGBOX 80 26 -3 -4
STARTPROPERTIES 19
FOUNDRY "FreeType"
FAMILY_NAME "Ubuntu"
WEIGHT_NAME "Medium"
SLANT "R"
SETWIDTH_NAME "Normal"
ADD_STYLE_NAME ""
PIXEL_SIZE 22
POINT_SIZE 160
RESOLUTION_X 100
RESOLUTION_Y 100
SPACING "P"
AVERAGE_WIDTH 118
CHARSET_REGISTRY "ISO10646"
CHARSET_ENCODING "1"
FONT_ASCENT 20
FONT_DESCENT 4
COPYRIGHT "Copyright 2011 Canonical Ltd.  Licensed under the Ubuntu Font Licence 1.0"
_OTF_FONTFILE "Ubuntu-Regular.ttf"
_OTF_PSNAME "Ubuntu-Regular"
ENDPROPERTIES
CHARS 1194
STARTCHAR 0000
ENCODING 0
SWIDTH 0 0
DWIDTH 0 0
BBX 0 0 0 0
BITMAP
ENDCHAR
STARTCHAR 0008
ENCODING 8
SWIDTH 0 0
DWIDTH 0 0
BBX 0 0 0 0
BITMAP
ENDCHAR
STARTCHAR 0009
ENCODING 9
SWIDTH 225 0
DWIDTH 5 0
BBX 0 0 0 0
BITMAP
ENDCHAR
STARTCHAR 000D
ENCODING 13
SWIDTH 225 0
DWIDTH 5 0
BBX 0 0 0 0
BITMAP
ENDCHAR
STARTCHAR 001D
ENCODING 29
SWIDTH 0 0
DWIDTH 0 0
BBX 0 0 0 0
BITMAP
ENDCHAR
STARTCHAR 0020
ENCODING 32
SWIDTH 225 0
DWIDTH 5 0
BBX 0 0 0 0
BITMAP
ENDCHAR
STARTCHAR 0021
ENCODING 33
SWIDTH 270 0
DWIDTH 6 0
BBX 3 15 2 0
BITMAP
C0
C0
C0
C0
C0
C0
C0
C0
C0
C0
00
00
C0
E0
C0
ENDCHAR
STARTCHAR 0022
ENCODING 34
SWIDTH 405 0
DWIDTH 9 0
BBX 6 6 2 11
BITMAP
DC
DC
CC
C8
88
88
ENDCHAR
STARTCHAR 0023
ENCODING 35
SWIDTH 675 0
DWIDTH 15 0
BBX 13 15 1 0
BITMAP
0C60
0C60
0C60
1860
FFF8
FFF8
18C0
18C0
10C0
FFF8
FFF8
3180
3180
2180
6180
ENDCHAR
STARTCHAR 0024
ENCODING 36
SWIDTH 540 0
DWIDTH 12 0
BBX 9 20 2 -3
BITMAP
1800
1800
3F00
FF00
E000
C000
C000
E000
7800
3C00
0700
0380
0180
0180
8380
FF00
FE00
1800
1800
1800
ENDCHAR
STARTCHAR 0025
ENCODING 37
SWIDTH 855 0
DWIDTH 19 0
BBX 17 15 1 0
BITMAP
381800
7C1800
C63000
C63000
C66000
C66000
C6CE00
7D9F00
39B300
033180
033180
063180
063300
0C1F00
180E00
ENDCHAR
STARTCHAR 0026
ENCODING 38
SWIDTH 675 0
DWIDTH 15 0
BBX 13 15 1 0
BITMAP
1F00
3F80
3180
3180
3180
3380
1F00
3C00
7610
E330
C1B0
C0E0
E0E0
7FB0
3F18
ENDCHAR
STARTCHAR 0027
ENCODING 39
SWIDTH 225 0
DWIDTH 5 0
BBX 2 6 2 11
BITMAP
C0
C0
C0
C0
80
80
ENDCHAR
STARTCHAR 0028
ENCODING 40
SWIDTH 315 0
DWIDTH 7 0
BBX 5 21 2 -4
BITMAP
10
38
30
60
60
E0
C0
C0
C0
C0
C0
C0
C0
C0
C0
E0
60
60
30
38
10
ENDCHAR
STARTCHAR 0029
ENCODING 41
SWIDTH 315 0
DWIDTH 7 0
BBX 4 21 1 -4
BITMAP
80
C0
C0
60
60
30
30
30
30
30
30
30
30
30
30
30
60
60
C0
C0
80
ENDCHAR
STARTCHAR 002A
ENCODING 42
SWIDTH 495 0
DWIDTH 11 0
BBX 9 8 1 7
BITMAP
1800
1800
C900
FF80
1800
3400
6600
2200
ENDCHAR
STARTCHAR 002B
ENCODING 43
SWIDTH 540 0
DWIDTH 12 0
BBX 10 10 1 2
BITMAP
0C00
0C00
0C00
0C00
FFC0
FFC0
0C00
0C00
0C00
0C00
ENDCHAR
STARTCHAR 002C
ENCODING 44
SWIDTH 225 0
DWIDTH 5 0
BBX 3 7 1 -4
BITMAP
60
60
60
60
C0
C0
C0
ENDCHAR
STARTCHAR 002D
ENCODING 45
SWIDTH 315 0
DWIDTH 7 0
BBX 5 2 1 6
BITMAP
F8
F8
ENDCHAR
STARTCHAR 002E
ENCODING 46
SWIDTH 225 0
DWIDTH 5 0
BBX 3 3 1 0
BITMAP
60
E0
60
ENDCHAR
STARTCHAR 002F
ENCODING 47
SWIDTH 360 0
DWIDTH 8 0
BBX 9 21 0 -4
BITMAP
0180
0300
0300
0300
0600
0600
0600
0C00
0C00
0C00
1800
1800
3800
3000
3000
7000
6000
6000
C000
C000
C000
ENDCHAR
STARTCHAR 0030
ENCODING 48
SWIDTH 540 0
DWIDTH 12 0
BBX 10 15 1 0
BITMAP
1E00
3F80
7180
61C0
E0C0
C0C0
C0C0
C0C0
C0C0
C0C0
E0C0
61C0
7180
3F80
1E00
ENDCHAR
STARTCHAR 0031
ENCODING 49
SWIDTH 540 0
DWIDTH 12 0
BBX 6 15 2 0
BITMAP
0C
1C
7C
FC
4C
0C
0C
0C
0C
0C
0C
0C
0C
0C
0C
ENDCHAR
STARTCHAR 0032
ENCODING 50
SWIDTH 540 0
DWIDTH 12 0
BBX 9 15 2 0
BITMAP
7C00
FE00
C700
0300
0300
0300
0600
0E00
1C00
3800
7000
E000
C000
FF80
FF80
ENDCHAR
STARTCHAR 0033
ENCODING 51
SWIDTH 540 0
DWIDTH 12 0
BBX 10 15 1 0
BITMAP
3E00
7F00
4380
0180
0180
0380
1F00
1F00
0380
01C0
00C0
01C0
0180
FF80
7E00
ENDCHAR
STARTCHAR 0034
ENCODING 52
SWIDTH 540 0
DWIDTH 12 0
BBX 10 15 1 0
BITMAP
0380
0780
0F80
0D80
1980
3180
7180
6180
C180
FFC0
FFC0
0180
0180
0180
0180
ENDCHAR
STARTCHAR 0035
ENCODING 53
SWIDTH 540 0
DWIDTH 12 0
BBX 9 15 2 0
BITMAP
7F00
7F00
6000
6000
4000
7800
FE00
0700
0380
0180
0180
0380
0700
FF00
FC00
ENDCHAR
STARTCHAR 0036
ENCODING 54
SWIDTH 540 0
DWIDTH 12 0
BBX 10 15 1 0
BITMAP
0380
0F80
1C00
3000
6000
7F00
7F80
E1C0
E0C0
E0C0
60C0
60C0
71C0
3F80
1F00
ENDCHAR
STARTCHAR 0037
ENCODING 55
SWIDTH 540 0
DWIDTH 12 0
BBX 10 15 1 0
BITMAP
FFC0
FFC0
01C0
0180
0300
0700
0600
0600
0C00
0C00
1C00
1800
1800
1800
1800
ENDCHAR
STARTCHAR 0038
ENCODING 56
SWIDTH 540 0
DWIDTH 12 0
BBX 10 15 1 0
BITMAP
1F00
3F80
61C0
60C0
60C0
6180
7B80
1F00
7780
61C0
C0C0
C0C0
E1C0
7F80
3F00
ENDCHAR
STARTCHAR 0039
ENCODING 57
SWIDTH 540 0
DWIDTH 12 0
BBX 10 15 1 0
BITMAP
1E00
7F80
6180
C0C0
C0C0
C0C0
E0C0
7FC0
3EC0
01C0
0180
0380
0F00
7E00
7800
ENDCHAR
STARTCHAR 003A
ENCODING 58
SWIDTH 225 0
DWIDTH 5 0
BBX 3 12 1 0
BITMAP
60
E0
60
00
00
00
00
00
00
60
E0
60
ENDCHAR
STARTCHAR 003B
ENCODING 59
SWIDTH 225 0
DWIDTH 5 0
BBX 3 16 1 -4
BITMAP
60
E0
60
00
00
00
00
00
00
60
60
60
60
C0
C0
C0
ENDCHAR
STARTCHAR 003C
ENCODING 60
SWIDTH 540 0
DWIDTH 12 0
BBX 10 9 1 2
BITMAP
00C0
07C0
3F00
F800
C000
F800
3F00
07C0
00C0
ENDCHAR
STARTCHAR 003D
ENCODING 61
SWIDTH 540 0
DWIDTH 12 0
BBX 10 7 1 3
BITMAP
FFC0
FFC0
0000
0000
0000
FFC0
FFC0
ENDCHAR
STARTCHAR 003E
ENCODING 62
SWIDTH 540 0
DWIDTH 12 0
BBX 10 9 1 2
BITMAP
4000
F800
3F00
07C0
00C0
07C0
3F00
F800
4000
ENDCHAR
STARTCHAR 003F
ENCODING 63
SWIDTH 405 0
DWIDTH 9 0
BBX 7 15 1 0
BITMAP
FC
FE
06
06
06
0C
18
30
30
20
00
00
30
70
30
ENDCHAR
STARTCHAR 0040
ENCODING 64
SWIDTH 945 0
DWIDTH 21 0
BBX 18 20 1 -4
BITMAP
03F800
0FFE00
1E0F00
380380
300180
60F8C0
63F8C0
6318C0
461840
C61840
C618C0
4618C0
670DC0
63FF80
61FF00
300000
380000
1E0000
0FF800
01F800
ENDCHAR
STARTCHAR 0041
ENCODING 65
SWIDTH 675 0
DWIDTH 15 0
BBX 14 15 0 0
BITMAP
0380
0380
0780
06C0
0CC0
0C60
1860
1870
1830
3FF0
3FF8
7018
6018
600C
E00C
ENDCHAR
STARTCHAR 0042
ENCODING 66
SWIDTH 630 0
DWIDTH 14 0
BBX 11 15 2 0
BITMAP
FF00
FF80
C1C0
C0C0
C0C0
C1C0
FF80
FFC0
C0E0
C060
C060
C060
C1E0
FFC0
FF00
ENDCHAR
STARTCHAR 0043
ENCODING 67
SWIDTH 630 0
DWIDTH 14 0
BBX 12 15 1 0
BITMAP
07E0
1FF0
3830
7000
6000
E000
E000
E000
E000
E000
6000
7000
3810
1FF0
07E0
ENDCHAR
STARTCHAR 0044
ENCODING 68
SWIDTH 720 0
DWIDTH 16 0
BBX 12 15 2 0
BITMAP
FF00
FFC0
C1E0
C060
C070
C030
C030
C030
C030
C030
C070
C060
C1E0
FFC0
FF00
ENDCHAR
STARTCHAR 0045
ENCODING 69
SWIDTH 585 0
DWIDTH 13 0
BBX 10 15 2 0
BITMAP
FF80
FF80
C000
C000
C000
C000
FF00
FF00
C000
C000
C000
C000
C000
FFC0
FFC0
ENDCHAR
STARTCHAR 0046
ENCODING 70
SWIDTH 540 0
DWIDTH 12 0
BBX 9 15 2 0
BITMAP
FF80
FF80
C000
C000
C000
C000
FF00
FF00
C000
C000
C000
C000
C000
C000
C000
ENDCHAR
STARTCHAR 0047
ENCODING 71
SWIDTH 675 0
DWIDTH 15 0
BBX 12 15 1 0
BITMAP
07E0
1FF0
3810
7000
6000
E000
E000
E000
E030
E030
6030
7030
3830
1FF0
07F0
ENDCHAR
STARTCHAR 0048
ENCODING 72
SWIDTH 720 0
DWIDTH 16 0
BBX 12 15 2 0
BITMAP
C070
C070
C070
C070
C070
C070
FFF0
FFF0
C070
C070
C070
C070
C070
C070
C070
ENDCHAR
STARTCHAR 0049
ENCODING 73
SWIDTH 270 0
DWIDTH 6 0
BBX 2 15 2 0
BITMAP
C0
C0
C0
C0
C0
C0
C0
C0
C0
C0
C0
C0
C0
C0
C0
ENDCHAR
STARTCHAR 004A
ENCODING 74
SWIDTH 495 0
DWIDTH 11 0
BBX 9 15 0 0
BITMAP
0180
0180
0180
0180
0180
0180
0180
0180
0180
0180
0180
0180
4380
FF00
7E00
ENDCHAR
STARTCHAR 004B
ENCODING 75
SWIDTH 630 0
DWIDTH 14 0
BBX 11 15 2 0
BITMAP
C0E0
C1C0
C380
C700
CE00
DC00
F800
F000
FC00
DE00
CF00
C380
C1C0
C0E0
C060
ENDCHAR
STARTCHAR 004C
ENCODING 76
SWIDTH 495 0
DWIDTH 11 0
BBX 9 15 2 0
BITMAP
C000
C000
C000
C000
C000
C000
C000
C000
C000
C000
C000
C000
C000
FF80
FF80
ENDCHAR
STARTCHAR 004D
ENCODING 77
SWIDTH 855 0
DWIDTH 19 0
BBX 17 15 1 0
BITMAP
300700
700700
780F00
680B00
6C1B00
641300
661300
623300
632300
636300
614300
61C380
60C180
600180
E00180
ENDCHAR
STARTCHAR 004E
ENCODING 78
SWIDTH 720 0
DWIDTH 16 0
BBX 12 15 2 0
BITMAP
C030
E030
F030
F830
D830
CC30
C630
C730
C330
C1B0
C1F0
C0F0
C070
C070
C030
ENDCHAR
STARTCHAR 004F
ENCODING 79
SWIDTH 765 0
DWIDTH 17 0
BBX 15 15 1 0
BITMAP
07C0
1FF0
3838
701C
600C
E00E
E006
E006
E006
E00E
600C
701C
3838
1FF0
07C0
ENDCHAR
STARTCHAR 0050
ENCODING 80
SWIDTH 585 0
DWIDTH 13 0
BBX 11 15 2 0
BITMAP
FF00
FF80
C1C0
C0E0
C0E0
C0E0
C1C0
FF80
FF00
C000
C000
C000
C000
C000
C000
ENDCHAR
STARTCHAR 0051
ENCODING 81
SWIDTH 765 0
DWIDTH 17 0
BBX 15 19 1 -4
BITMAP
07C0
1FF0
3838
701C
600C
E00E
E006
E006
E006
E00E
600C
701C
3838
1FF0
07C0
0180
00E0
007C
0018
ENDCHAR
STARTCHAR 0052
ENCODING 82
SWIDTH 630 0
DWIDTH 14 0
BBX 11 15 2 0
BITMAP
FF00
FF80
C1C0
C0C0
C0E0
C0C0
C1C0
FF80
FF00
C300
C380
C180
C0C0
C0E0
C060
ENDCHAR
STARTCHAR 0053
ENCODING 83
SWIDTH 540 0
DWIDTH 12 0
BBX 10 15 1 0
BITMAP
3F00
7F80
E080
C000
C000
E000
7800
3F00
0780
01C0
00C0
00C0
C1C0
FF80
7F00
ENDCHAR
STARTCHAR 0054
ENCODING 84
SWIDTH 540 0
DWIDTH 12 0
BBX 12 15 0 0
BITMAP
FFF0
FFF0
0600
0600
0600
0600
0600
0600
0600
0600
0600
0600
0600
0600
0600
ENDCHAR
STARTCHAR 0055
ENCODING 85
SWIDTH 675 0
DWIDTH 15 0
BBX 11 15 2 0
BITMAP
C060
C060
C060
C060
C060
C060
C060
C060
C060
C060
C060
E060
70E0
7FC0
1F00
ENDCHAR
STARTCHAR 0056
ENCODING 86
SWIDTH 630 0
DWIDTH 14 0
BBX 14 15 0 0
BITMAP
E00C
601C
6018
7018
3038
3830
1830
1860
1C60
0CE0
0CC0
06C0
0780
0380
0300
ENDCHAR
STARTCHAR 0057
ENCODING 87
SWIDTH 900 0
DWIDTH 20 0
BBX 19 15 1 0
BITMAP
C00060
C000E0
C0C0C0
E0E0C0
E0E0C0
61E0C0
61B180
633180
733180
331980
361B00
360F00
3C0F00
1C0F00
1C0600
ENDCHAR
STARTCHAR 0058
ENCODING 88
SWIDTH 630 0
DWIDTH 14 0
BBX 12 15 1 0
BITMAP
E070
6060
70C0
39C0
1980
1F00
0F00
0600
0F00
1F80
39C0
30C0
60E0
E070
C030
ENDCHAR
STARTCHAR 0059
ENCODING 89
SWIDTH 585 0
DWIDTH 13 0
BBX 13 15 0 0
BITMAP
E038
6030
3070
3860
18C0
1CC0
0D80
0780
0700
0300
0300
0300
0300
0300
0300
ENDCHAR
STARTCHAR 005A
ENCODING 90
SWIDTH 585 0
DWIDTH 13 0
BBX 11 15 1 0
BITMAP
FFE0
FFE0
01C0
0380
0300
0600
0E00
0C00
1800
3000
7000
6000
E000
FFE0
FFE0
ENDCHAR
STARTCHAR 005B
ENCODING 91
SWIDTH 315 0
DWIDTH 7 0
BBX 5 21 2 -4
BITMAP
F8
F8
C0
C0
C0
C0
C0
C0
C0
C0
C0
C0
C0
C0
C0
C0
C0
C0
C0
F8
F8
ENDCHAR
STARTCHAR 005C
ENCODING 92
SWIDTH 360 0
DWIDTH 8 0
BBX 9 21 0 -4
BITMAP
C000
C000
C000
6000
6000
6000
3000
3000
3800
1800
1800
0C00
0C00
0C00
0600
0600
0600
0300
0300
0300
0180
ENDCHAR
STARTCHAR 005D
ENCODING 93
SWIDTH 315 0
DWIDTH 7 0
BBX 5 21 0 -4
BITMAP
F8
F8
18
18
18
18
18
18
18
18
18
18
18
18
18
18
18
18
18
F8
F8
ENDCHAR
STARTCHAR 005E
ENCODING 94
SWIDTH 540 0
DWIDTH 12 0
BBX 10 8 1 7
BITMAP
0C00
1E00
1F00
3300
3180
6180
E0C0
40C0
ENDCHAR
STARTCHAR 005F
ENCODING 95
SWIDTH 495 0
DWIDTH 11 0
BBX 11 2 0 -4
BITMAP
FFE0
FFE0
ENDCHAR
STARTCHAR 0060
ENCODING 96
SWIDTH 360 0
DWIDTH 8 0
BBX 3 4 2 13
BITMAP
80
C0
60
20
ENDCHAR
STARTCHAR 0061
ENCODING 97
SWIDTH 495 0
DWIDTH 11 0
BBX 9 12 1 0
BITMAP
7E00
7F00
0380
0180
3F80
7F80
E180
C180
C180
E180
7F80
3F80
ENDCHAR
STARTCHAR 0062
ENCODING 98
SWIDTH 585 0
DWIDTH 13 0
BBX 10 17 2 0
BITMAP
C000
C000
C000
C000
C000
FE00
FF00
C380
C180
C0C0
C0C0
C0C0
C0C0
C180
C380
FF00
FE00
ENDCHAR
STARTCHAR 0063
ENCODING 99
SWIDTH 450 0
DWIDTH 10 0
BBX 9 12 1 0
BITMAP
1F00
3F00
7000
6000
C000
C000
C000
C000
E000
7000
3F80
1F80
ENDCHAR
STARTCHAR 0064
ENCODING 100
SWIDTH 585 0
DWIDTH 13 0
BBX 10 17 1 0
BITMAP
00C0
00C0
00C0
00C0
00C0
1FC0
3FC0
70C0
E0C0
C0C0
C0C0
C0C0
C0C0
60C0
70C0
3FC0
1FC0
ENDCHAR
STARTCHAR 0065
ENCODING 101
SWIDTH 540 0
DWIDTH 12 0
BBX 10 12 1 0
BITMAP
1F00
3F80
7180
60C0
C0C0
FFC0
FFC0
C000
E000
7000
3F80
1F80
ENDCHAR
STARTCHAR 0066
ENCODING 102
SWIDTH 360 0
DWIDTH 8 0
BBX 7 17 2 0
BITMAP
3E
7C
C0
C0
C0
FC
FC
C0
C0
C0
C0
C0
C0
C0
C0
C0
C0
ENDCHAR
STARTCHAR 0067
ENCODING 103
SWIDTH 585 0
DWIDTH 13 0
BBX 10 16 1 -4
BITMAP
1FC0
3FC0
70C0
60C0
C0C0
C0C0
C0C0
C0C0
E0C0
71C0
3FC0
1EC0
00C0
01C0
7F80
7E00
ENDCHAR
STARTCHAR 0068
ENCODING 104
SWIDTH 585 0
DWIDTH 13 0
BBX 9 17 2 0
BITMAP
C000
C000
C000
C000
C000
FE00
FF00
C380
C180
C180
C180
C180
C180
C180
C180
C180
C180
ENDCHAR
STARTCHAR 0069
ENCODING 105
SWIDTH 270 0
DWIDTH 6 0
BBX 2 16 2 0
BITMAP
C0
C0
00
00
C0
C0
C0
C0
C0
C0
C0
C0
C0
C0
C0
C0
ENDCHAR
STARTCHAR 006A
ENCODING 106
SWIDTH 270 0
DWIDTH 6 0
BBX 5 20 -1 -4
BITMAP
18
18
00
00
18
18
18
18
18
18
18
18
18
18
18
18
18
38
F0
E0
ENDCHAR
STARTCHAR 006B
ENCODING 107
SWIDTH 495 0
DWIDTH 11 0
BBX 9 17 2 0
BITMAP
C000
C000
C000
C000
C000
C300
C600
CE00
DC00
F800
F000
F800
DC00
CE00
C700
C300
C380
ENDCHAR
STARTCHAR 006C
ENCODING 108
SWIDTH 270 0
DWIDTH 6 0
BBX 3 17 2 0
BITMAP
C0
C0
C0
C0
C0
C0
C0
C0
C0
C0
C0
C0
C0
C0
C0
E0
60
ENDCHAR
STARTCHAR 006D
ENCODING 109
SWIDTH 855 0
DWIDTH 19 0
BBX 15 12 2 0
BITMAP
FE78
FFFC
C38E
C306
C386
C186
C186
C186
C186
C186
C186
C186
ENDCHAR
STARTCHAR 006E
ENCODING 110
SWIDTH 585 0
DWIDTH 13 0
BBX 9 12 2 0
BITMAP
FE00
FF00
C380
C180
C180
C180
C180
C180
C180
C180
C180
C180
ENDCHAR
STARTCHAR 006F
ENCODING 111
SWIDTH 585 0
DWIDTH 13 0
BBX 11 12 1 0
BITMAP
1F00
3F80
71C0
60C0
C060
C060
C060
C060
60C0
71C0
3F80
1F00
ENDCHAR
STARTCHAR 0070
ENCODING 112
SWIDTH 585 0
DWIDTH 13 0
BBX 10 16 2 -4
BITMAP
FE00
FF00
C380
C180
C0C0
C0C0
C0C0
C0C0
C180
C380
FF00
FE00
C000
C000
C000
C000
ENDCHAR
STARTCHAR 0071
ENCODING 113
SWIDTH 585 0
DWIDTH 13 0
BBX 10 16 1 -4
BITMAP
1FC0
3FC0
70C0
60C0
C0C0
C0C0
C0C0
C0C0
E0C0
70C0
3FC0
1FC0
00C0
00C0
00C0
00C0
ENDCHAR
STARTCHAR 0072
ENCODING 114
SWIDTH 360 0
DWIDTH 8 0
BBX 6 12 2 0
BITMAP
FC
FC
C0
C0
C0
C0
C0
C0
C0
C0
C0
C0
ENDCHAR
STARTCHAR 0073
ENCODING 115
SWIDTH 450 0
DWIDTH 10 0
BBX 8 12 1 0
BITMAP
3E
7E
C0
C0
E0
7C
3E
07
03
83
FE
FC
ENDCHAR
STARTCHAR 0074
ENCODING 116
SWIDTH 405 0
DWIDTH 9 0
BBX 6 16 2 0
BITMAP
C0
C0
C0
C0
FC
FC
C0
C0
C0
C0
C0
C0
C0
C0
FC
7C
ENDCHAR
STARTCHAR 0075
ENCODING 117
SWIDTH 585 0
DWIDTH 13 0
BBX 9 12 2 0
BITMAP
C180
C180
C180
C180
C180
C180
C180
C180
C180
E180
7F80
3F80
ENDCHAR
STARTCHAR 0076
ENCODING 118
SWIDTH 495 0
DWIDTH 11 0
BBX 11 12 0 0
BITMAP
E0E0
60C0
60C0
60C0
3180
3180
3180
1B00
1B00
0F00
0E00
0E00
ENDCHAR
STARTCHAR 0077
ENCODING 119
SWIDTH 765 0
DWIDTH 17 0
BBX 16 12 1 0
BITMAP
C187
C386
C386
C386
62C6
66CC
66CC
344C
3C78
3C78
1C38
1830
ENDCHAR
STARTCHAR 0078
ENCODING 120
SWIDTH 495 0
DWIDTH 11 0
BBX 10 12 1 0
BITMAP
C180
6300
7300
3600
1C00
1C00
1C00
3600
3700
6300
C180
C1C0
ENDCHAR
STARTCHAR 0079
ENCODING 121
SWIDTH 495 0
DWIDTH 11 0
BBX 10 16 0 -4
BITMAP
E0C0
60C0
60C0
60C0
3180
3180
3180
1900
1B00
0F00
0E00
0600
0600
0C00
F800
F000
ENDCHAR
STARTCHAR 007A
ENCODING 122
SWIDTH 450 0
DWIDTH 10 0
BBX 9 12 1 0
BITMAP
FF00
FF00
0700
0E00
0C00
1800
3800
7000
6000
E000
FF80
FF80
ENDCHAR
STARTCHAR 007B
ENCODING 123
SWIDTH 315 0
DWIDTH 7 0
BBX 6 21 1 -4
BITMAP
1C
3C
30
30
30
30
30
30
30
60
C0
E0
70
30
30
30
30
30
30
3C
1C
ENDCHAR
STARTCHAR 007C
ENCODING 124
SWIDTH 270 0
DWIDTH 6 0
BBX 2 21 2 -4
BITMAP
C0
C0
C0
C0
C0
C0
C0
C0
C0
C0
C0
C0
C0
C0
C0
C0
C0
C0
C0
C0
C0
ENDCHAR
STARTCHAR 007D
ENCODING 125
SWIDTH 315 0
DWIDTH 7 0
BBX 6 21 0 -4
BITMAP
E0
F0
30
30
10
10
10
10
18
18
0C
1C
18
10
10
10
10
30
30
F0
E0
ENDCHAR
STARTCHAR 007E
ENCODING 126
SWIDTH 540 0
DWIDTH 12 0
BBX 10 4 1 5
BITMAP
7840
7CC0
CFC0
8380
ENDCHAR
STARTCHAR 00A0
ENCODING 160
SWIDTH 225 0
DWIDTH 5 0
BBX 0 0 0 0
BITMAP
ENDCHAR
STARTCHAR 00A1
ENCODING 161
SWIDTH 270 0
DWIDTH 6 0
BBX 3 16 2 -4
BITMAP
C0
E0
C0
00
00
C0
C0
C0
C0
C0
C0
C0
C0
C0
C0
C0
ENDCHAR
STARTCHAR 00A2
ENCODING 162
SWIDTH 540 0
DWIDTH 12 0
BBX 8 18 2 -3
BITMAP
0C
0C
0C
1F
3F
70
E0
C0
C0
C0
C0
E0
70
7F
1F
0C
0C
0C
ENDCHAR
STARTCHAR 00A3
ENCODING 163
SWIDTH 540 0
DWIDTH 12 0
BBX 10 15 1 0
BITMAP
0FC0
1FC0
1840
3800
3000
3000
3000
FF80
FF80
3000
3000
3000
3000
3FC0
3FC0
ENDCHAR
STARTCHAR 00A4
ENCODING 164
SWIDTH 540 0
DWIDTH 12 0
BBX 10 10 1 2
BITMAP
4040
FEC0
7F80
6180
6080
6080
6180
7F80
FEC0
4040
ENDCHAR
STARTCHAR 00A5
ENCODING 165
SWIDTH 540 0
DWIDTH 12 0
BBX 11 15 1 0
BITMAP
C060
C0C0
61C0
7180
3300
1B00
1E00
7FC0
7FC0
0C00
0C00
7FC0
7FC0
0C00
0C00
ENDCHAR
STARTCHAR 00A6
ENCODING 166
SWIDTH 270 0
DWIDTH 6 0
BBX 2 21 2 -4
BITMAP
C0
C0
C0
C0
C0
C0
C0
C0
00
00
00
00
00
C0
C0
C0
C0
C0
C0
C0
C0
ENDCHAR
STARTCHAR 00A7
ENCODING 167
SWIDTH 495 0
DWIDTH 11 0
BBX 9 18 1 -2
BITMAP
3F00
7F00
6100
6000
6000
3C00
7F00
C380
C180
C180
E180
7F00
0E00
0300
0300
8300
FF00
7E00
ENDCHAR
STARTCHAR 00A8
ENCODING 168
SWIDTH 360 0
DWIDTH 8 0
BBX 7 3 1 14
BITMAP
CC
CE
CC
ENDCHAR
STARTCHAR 00A9
ENCODING 169
SWIDTH 810 0
DWIDTH 18 0
BBX 15 15 1 0
BITMAP
07E0
1FF8
381C
700C
63E6
47E2
CC22
CC02
CC02
47E2
63E6
700C
381C
1FF8
07E0
ENDCHAR
STARTCHAR 00AA
ENCODING 170
SWIDTH 405 0
DWIDTH 9 0
BBX 6 8 1 7
BITMAP
78
7C
04
7C
FC
84
FC
7C
ENDCHAR
STARTCHAR 00AB
ENCODING 171
SWIDTH 495 0
DWIDTH 11 0
BBX 9 9 1 2
BITMAP
1180
3180
6300
E600
CE00
E600
6300
3180
1180
ENDCHAR
STARTCHAR 00AC
ENCODING 172
SWIDTH 540 0
DWIDTH 12 0
BBX 10 8 1 1
BITMAP
FFC0
FFC0
00C0
00C0
00C0
00C0
00C0
00C0
ENDCHAR
STARTCHAR 00AD
ENCODING 173
SWIDTH 315 0
DWIDTH 7 0
BBX 5 2 1 6
BITMAP
F8
F8
ENDCHAR
STARTCHAR 00AE
ENCODING 174
SWIDTH 810 0
DWIDTH 18 0
BBX 15 15 1 0
BITMAP
07E0
1FF8
381C
700C
67C6
47E2
C422
C7C2
C4C2
4462
6436
700C
381C
1FF8
07E0
ENDCHAR
STARTCHAR 00AF
ENCODING 175
SWIDTH 360 0
DWIDTH 8 0
BBX 6 2 1 14
BITMAP
FC
FC
ENDCHAR
STARTCHAR 00B0
ENCODING 176
SWIDTH 315 0
DWIDTH 7 0
BBX 6 6 1 11
BITMAP
70
F8
8C
8C
F8
70
ENDCHAR
STARTCHAR 00B1
ENCODING 177
SWIDTH 540 0
DWIDTH 12 0
BBX 10 13 1 0
BITMAP
0C00
0C00
0C00
0C00
FFC0
FFC0
0C00
0C00
0C00
0C00
0000
FFC0
FFC0
ENDCHAR
STARTCHAR 00B2
ENCODING 178
SWIDTH 360 0
DWIDTH 8 0
BBX 6 9 1 6
BITMAP
78
F8
8C
08
10
20
40
FC
FC
ENDCHAR
STARTCHAR 00B3
ENCODING 179
SWIDTH 360 0
DWIDTH 8 0
BBX 6 9 1 6
BITMAP
F8
F8
88
78
78
0C
0C
FC
F8
ENDCHAR
STARTCHAR 00B4
ENCODING 180
SWIDTH 360 0
DWIDTH 8 0
BBX 3 4 3 13
BITMAP
20
60
C0
80
ENDCHAR
STARTCHAR 00B5
ENCODING 181
SWIDTH 585 0
DWIDTH 13 0
BBX 9 16 2 -4
BITMAP
C180
C180
C180
C180
C180
C180
C180
C180
C180
E180
FF80
FF80
C000
C000
C000
C000
ENDCHAR
STARTCHAR 00B6
ENCODING 182
SWIDTH 630 0
DWIDTH 14 0
BBX 11 19 1 -4
BITMAP
1FE0
7FE0
7E60
FE60
FE60
FE60
FE60
7E60
3E60
0660
0660
0660
0660
0660
0660
0660
0660
0660
0660
ENDCHAR
STARTCHAR 00B7
ENCODING 183
SWIDTH 225 0
DWIDTH 5 0
BBX 3 3 1 5
BITMAP
60
E0
60
ENDCHAR
STARTCHAR 00B8
ENCODING 184
SWIDTH 360 0
DWIDTH 8 0
BBX 4 4 2 -4
BITMAP
60
60
30
E0
ENDCHAR
STARTCHAR 00B9
ENCODING 185
SWIDTH 360 0
DWIDTH 8 0
BBX 4 9 1 6
BITMAP
10
70
F0
D0
10
10
10
10
10
ENDCHAR
STARTCHAR 00BA
ENCODING 186
SWIDTH 450 0
DWIDTH 10 0
BBX 8 8 1 7
BITMAP
3C
7E
C3
C3
C3
C3
7E
3C
ENDCHAR
STARTCHAR 00BB
ENCODING 187
SWIDTH 495 0
DWIDTH 11 0
BBX 9 9 1 2
BITMAP
C400
C600
6300
3380
3980
3380
6300
C600
C400
ENDCHAR
STARTCHAR 00BC
ENCODING 188
SWIDTH 855 0
DWIDTH 19 0
BBX 18 16 1 -1
BITMAP
100C00
701800
F03000
D03000
106000
106000
10C000
10C180
118380
030780
030D80
061980
061FC0
0C1FC0
0C0180
000180
ENDCHAR
STARTCHAR 00BD
ENCODING 189
SWIDTH 855 0
DWIDTH 19 0
BBX 17 16 1 -1
BITMAP
101800
701800
F03000
D06000
106000
10C000
10C000
118F00
111F80
030180
060100
060300
0C0600
0C0800
180F80
001F80
ENDCHAR
STARTCHAR 00BE
ENCODING 190
SWIDTH 855 0
DWIDTH 19 0
BBX 18 16 1 -1
BITMAP
F80C00
F81800
881800
783000
783000
0C6000
0C4000
FCC180
F98380
018780
030D80
031980
061FC0
0C1FC0
0C0180
000180
ENDCHAR
STARTCHAR 00BF
ENCODING 191
SWIDTH 405 0
DWIDTH 9 0
BBX 7 16 1 -4
BITMAP
18
1C
18
00
00
18
18
18
30
60
C0
C0
C0
C2
FE
7E
ENDCHAR
STARTCHAR 00C0
ENCODING 192
SWIDTH 675 0
DWIDTH 15 0
BBX 14 20 0 0
BITMAP
0400
0600
0300
0100
0000
0380
0380
0780
06C0
0CC0
0C60
1860
1870
1830
3FF0
3FF8
7018
6018
600C
E00C
ENDCHAR
STARTCHAR 00C1
ENCODING 193
SWIDTH 675 0
DWIDTH 15 0
BBX 14 20 0 0
BITMAP
0080
01C0
0380
0200
0000
0380
0380
0780
06C0
0CC0
0C60
1860
1870
1830
3FF0
3FF8
7018
6018
600C
E00C
ENDCHAR
STARTCHAR 00C2
ENCODING 194
SWIDTH 675 0
DWIDTH 15 0
BBX 14 20 0 0
BITMAP
0100
0380
06C0
0440
0000
0380
0380
0780
06C0
0CC0
0C60
1860
1870
1830
3FF0
3FF8
7018
6018
600C
E00C
ENDCHAR
STARTCHAR 00C3
ENCODING 195
SWIDTH 675 0
DWIDTH 15 0
BBX 14 20 0 0
BITMAP
0620
0FE0
09C0
0000
0000
0380
0380
0780
06C0
0CC0
0C60
1860
1870
1830
3FF0
3FF8
7018
6018
600C
E00C
ENDCHAR
STARTCHAR 00C4
ENCODING 196
SWIDTH 675 0
DWIDTH 15 0
BBX 14 20 0 0
BITMAP
0CC0
0CE0
0CC0
0000
0000
0380
0380
0780
06C0
0CC0
0C60
1860
1870
1830
3FF0
3FF8
7018
6018
600C
E00C
ENDCHAR
STARTCHAR 00C5
ENCODING 197
SWIDTH 675 0
DWIDTH 15 0
BBX 14 18 0 0
BITMAP
0380
0480
04C0
0780
0380
0780
06C0
0CC0
0C60
1860
1870
1830
3FF0
3FF8
7018
6018
600C
E00C
ENDCHAR
STARTCHAR 00C6
ENCODING 198
SWIDTH 945 0
DWIDTH 21 0
BBX 20 15 0 0
BITMAP
007FE0
00FFE0
00F800
01B800
033800
033800
063FC0
0C3FC0
0C3800
1FF800
1FF800
303800
303800
603FF0
E03FF0
ENDCHAR
STARTCHAR 00C7
ENCODING 199
SWIDTH 630 0
DWIDTH 14 0
BBX 12 18 1 -3
BITMAP
07E0
1FF0
3830
7000
6000
E000
E000
E000
E000
E000
6000
7000
3810
1FF0
07E0
0300
0180
0700
ENDCHAR
STARTCHAR 00C8
ENCODING 200
SWIDTH 585 0
DWIDTH 13 0
BBX 10 20 2 0
BITMAP
1000
1800
0C00
0400
0000
FF80
FF80
C000
C000
C000
C000
FF00
FF00
C000
C000
C000
C000
C000
FFC0
FFC0
ENDCHAR
STARTCHAR 00C9
ENCODING 201
SWIDTH 585 0
DWIDTH 13 0
BBX 10 20 2 0
BITMAP
0200
0600
0C00
0800
0000
FF80
FF80
C000
C000
C000
C000
FF00
FF00
C000
C000
C000
C000
C000
FFC0
FFC0
ENDCHAR
STARTCHAR 00CA
ENCODING 202
SWIDTH 585 0
DWIDTH 13 0
BBX 10 20 2 0
BITMAP
0800
1C00
3600
2200
0000
FF80
FF80
C000
C000
C000
C000
FF00
FF00
C000
C000
C000
C000
C000
FFC0
FFC0
ENDCHAR
STARTCHAR 00CB
ENCODING 203
SWIDTH 585 0
DWIDTH 13 0
BBX 10 20 2 0
BITMAP
6300
7700
6300
0000
0000
FF80
FF80
C000
C000
C000
C000
FF00
FF00
C000
C000
C000
C000
C000
FFC0
FFC0
ENDCHAR
STARTCHAR 00CC
ENCODING 204
SWIDTH 270 0
DWIDTH 6 0
BBX 3 20 1 0
BITMAP
80
C0
60
20
00
60
60
60
60
60
60
60
60
60
60
60
60
60
60
60
ENDCHAR
STARTCHAR 00CD
ENCODING 205
SWIDTH 270 0
DWIDTH 6 0
BBX 3 20 2 0
BITMAP
20
60
C0
80
00
C0
C0
C0
C0
C0
C0
C0
C0
C0
C0
C0
C0
C0
C0
C0
ENDCHAR
STARTCHAR 00CE
ENCODING 206
SWIDTH 270 0
DWIDTH 6 0
BBX 6 20 0 0
BITMAP
20
70
58
84
00
30
30
30
30
30
30
30
30
30
30
30
30
30
30
30
ENDCHAR
STARTCHAR 00CF
ENCODING 207
SWIDTH 270 0
DWIDTH 6 0
BBX 6 20 0 0
BITMAP
CC
CC
CC
00
00
30
30
30
30
30
30
30
30
30
30
30
30
30
30
30
ENDCHAR
STARTCHAR 00D0
ENCODING 208
SWIDTH 720 0
DWIDTH 16 0
BBX 15 15 0 0
BITMAP
3FC0
3FF0
3078
301C
300C
300E
FE0E
FE0E
300E
300E
300C
301C
3078
3FF0
3FC0
ENDCHAR
STARTCHAR 00D1
ENCODING 209
SWIDTH 720 0
DWIDTH 16 0
BBX 12 20 2 0
BITMAP
0CC0
1F80
3380
0000
0000
C030
E030
F030
F830
D830
CC30
C630
C730
C330
C1B0
C1F0
C0F0
C070
C070
C030
ENDCHAR
STARTCHAR 00D2
ENCODING 210
SWIDTH 765 0
DWIDTH 17 0
BBX 15 20 1 0
BITMAP
0200
0700
0380
0180
0000
07C0
1FF0
3838
701C
600C
E00E
E006
E006
E006
E00E
600C
701C
3838
1FF0
07C0
ENDCHAR
STARTCHAR 00D3
ENCODING 211
SWIDTH 765 0
DWIDTH 17 0
BBX 15 20 1 0
BITMAP
00C0
01C0
0180
0100
0000
07C0
1FF0
3838
701C
600C
E00E
E006
E006
E006
E00E
600C
701C
3838
1FF0
07C0
ENDCHAR
STARTCHAR 00D4
ENCODING 212
SWIDTH 765 0
DWIDTH 17 0
BBX 15 20 1 0
BITMAP
0100
0380
06C0
0440
0000
07C0
1FF0
3838
701C
600C
E00E
E006
E006
E006
E00E
600C
701C
3838
1FF0
07C0
ENDCHAR
STARTCHAR 00D5
ENCODING 213
SWIDTH 765 0
DWIDTH 17 0
BBX 15 20 1 0
BITMAP
0720
0FE0
09C0
0000
0000
07C0
1FF0
3838
701C
600C
E00E
E006
E006
E006
E00E
600C
701C
3838
1FF0
07C0
ENDCHAR
STARTCHAR 00D6
ENCODING 214
SWIDTH 765 0
DWIDTH 17 0
BBX 15 20 1 0
BITMAP
0460
0EE0
0460
0000
0000
07C0
1FF0
3838
701C
600C
E00E
E006
E006
E006
E00E
600C
701C
3838
1FF0
07C0
ENDCHAR
STARTCHAR 00D7
ENCODING 215
SWIDTH 540 0
DWIDTH 12 0
BBX 9 7 2 3
BITMAP
C380
6700
3E00
1800
3E00
6700
C380
ENDCHAR
STARTCHAR 00D8
ENCODING 216
SWIDTH 765 0
DWIDTH 17 0
BBX 15 15 1 0
BITMAP
07C4
1FFC
3838
703C
606C
E0EE
E1CE
E386
E306
E60E
6C0C
781C
3838
7FF0
67C0
ENDCHAR
STARTCHAR 00D9
ENCODING 217
SWIDTH 675 0
DWIDTH 15 0
BBX 11 20 2 0
BITMAP
0800
1C00
0E00
0200
0000
C060
C060
C060
C060
C060
C060
C060
C060
C060
C060
C060
E060
70E0
7FC0
1F00
ENDCHAR
STARTCHAR 00DA
ENCODING 218
SWIDTH 675 0
DWIDTH 15 0
BBX 11 20 2 0
BITMAP
0300
0700
0600
0400
0000
C060
C060
C060
C060
C060
C060
C060
C060
C060
C060
C060
E060
70E0
7FC0
1F00
ENDCHAR
STARTCHAR 00DB
ENCODING 219
SWIDTH 675 0
DWIDTH 15 0
BBX 11 20 2 0
BITMAP
0400
0E00
1B00
1100
0000
C060
C060
C060
C060
C060
C060
C060
C060
C060
C060
C060
E060
70E0
7FC0
1F00
ENDCHAR
STARTCHAR 00DC
ENCODING 220
SWIDTH 675 0
DWIDTH 15 0
BBX 11 20 2 0
BITMAP
1180
3B80
1180
0000
0000
C060
C060
C060
C060
C060
C060
C060
C060
C060
C060
C060
E060
70E0
7FC0
1F00
ENDCHAR
STARTCHAR 00DD
ENCODING 221
SWIDTH 585 0
DWIDTH 13 0
BBX 13 20 0 0
BITMAP
0180
0180
0300
0200
0000
E038
6030
3070
3860
18C0
1CC0
0D80
0780
0700
0300
0300
0300
0300
0300
0300
ENDCHAR
STARTCHAR 00DE
ENCODING 222
SWIDTH 585 0
DWIDTH 13 0
BBX 11 15 2 0
BITMAP
C000
C000
FE00
FF80
C1C0
C0C0
C0E0
C0E0
C0C0
C1C0
FF80
FE00
C000
C000
C000
ENDCHAR
STARTCHAR 00DF
ENCODING 223
SWIDTH 630 0
DWIDTH 14 0
BBX 11 17 2 0
BITMAP
3E00
7F00
E380
C180
C180
C300
C200
C400
CC00
CE00
CF80
C3C0
C0E0
C060
C0E0
CFC0
CF80
ENDCHAR
STARTCHAR 00E0
ENCODING 224
SWIDTH 495 0
DWIDTH 11 0
BBX 9 17 1 0
BITMAP
1000
1800
0C00
0400
0000
7E00
7F00
0380
0180
3F80
7F80
E180
C180
C180
E180
7F80
3F80
ENDCHAR
STARTCHAR 00E1
ENCODING 225
SWIDTH 495 0
DWIDTH 11 0
BBX 9 17 1 0
BITMAP
0200
0600
0C00
0800
0000
7E00
7F00
0380
0180
3F80
7F80
E180
C180
C180
E180
7F80
3F80
ENDCHAR
STARTCHAR 00E2
ENCODING 226
SWIDTH 495 0
DWIDTH 11 0
BBX 9 17 1 0
BITMAP
0800
1C00
3600
2200
0000
7E00
7F00
0380
0180
3F80
7F80
E180
C180
C180
E180
7F80
3F80
ENDCHAR
STARTCHAR 00E3
ENCODING 227
SWIDTH 495 0
DWIDTH 11 0
BBX 9 17 1 0
BITMAP
3900
3F00
6600
0000
0000
7E00
7F00
0380
0180
3F80
7F80
E180
C180
C180
E180
7F80
3F80
ENDCHAR
STARTCHAR 00E4
ENCODING 228
SWIDTH 495 0
DWIDTH 11 0
BBX 9 17 1 0
BITMAP
3300
7300
3300
0000
0000
7E00
7F00
0380
0180
3F80
7F80
E180
C180
C180
E180
7F80
3F80
ENDCHAR
STARTCHAR 00E5
ENCODING 229
SWIDTH 495 0
DWIDTH 11 0
BBX 9 17 1 0
BITMAP
1C00
1200
1200
1C00
0000
7E00
7F00
0380
0180
3F80
7F80
E180
C180
C180
E180
7F80
3F80
ENDCHAR
STARTCHAR 00E6
ENCODING 230
SWIDTH 855 0
DWIDTH 19 0
BBX 17 12 1 0
BITMAP
7E3C00
7F7F00
03C300
018180
3FFF80
7FFF80
E18000
C18000
C1C000
E1E000
7FFF00
3E3F00
ENDCHAR
STARTCHAR 00E7
ENCODING 231
SWIDTH 450 0
DWIDTH 10 0
BBX 9 16 1 -4
BITMAP
1F00
3F00
7000
6000
C000
C000
C000
C000
6000
7000
3F80
1F80
0C00
0E00
0600
1C00
ENDCHAR
STARTCHAR 00E8
ENCODING 232
SWIDTH 540 0
DWIDTH 12 0
BBX 10 17 1 0
BITMAP
1000
1800
0C00
0400
0000
1F00
3F80
7180
60C0
C0C0
FFC0
FFC0
C000
E000
7000
3F80
1F80
ENDCHAR
STARTCHAR 00E9
ENCODING 233
SWIDTH 540 0
DWIDTH 12 0
BBX 10 17 1 0
BITMAP
0200
0600
0C00
0800
0000
1F00
3F80
7180
60C0
C0C0
FFC0
FFC0
C000
E000
7000
3F80
1F80
ENDCHAR
STARTCHAR 00EA
ENCODING 234
SWIDTH 540 0
DWIDTH 12 0
BBX 10 17 1 0
BITMAP
0400
0E00
1B00
1100
0000
1F00
3F80
7180
60C0
C0C0
FFC0
FFC0
C000
E000
7000
3F80
1F80
ENDCHAR
STARTCHAR 00EB
ENCODING 235
SWIDTH 540 0
DWIDTH 12 0
BBX 10 17 1 0
BITMAP
3300
3380
3300
0000
0000
1F00
3F80
7180
60C0
C0C0
FFC0
FFC0
C000
E000
7000
3F80
1F80
ENDCHAR
STARTCHAR 00EC
ENCODING 236
SWIDTH 270 0
DWIDTH 6 0
BBX 3 17 1 0
BITMAP
80
C0
60
20
00
60
60
60
60
60
60
60
60
60
60
60
60
ENDCHAR
STARTCHAR 00ED
ENCODING 237
SWIDTH 270 0
DWIDTH 6 0
BBX 3 17 2 0
BITMAP
20
60
C0
80
00
C0
C0
C0
C0
C0
C0
C0
C0
C0
C0
C0
C0
ENDCHAR
STARTCHAR 00EE
ENCODING 238
SWIDTH 270 0
DWIDTH 6 0
BBX 5 17 0 0
BITMAP
20
70
D8
88
00
30
30
30
30
30
30
30
30
30
30
30
30
ENDCHAR
STARTCHAR 00EF
ENCODING 239
SWIDTH 270 0
DWIDTH 6 0
BBX 7 17 -1 0
BITMAP
66
E6
66
00
00
18
18
18
18
18
18
18
18
18
18
18
18
ENDCHAR
STARTCHAR 00F0
ENCODING 240
SWIDTH 585 0
DWIDTH 13 0
BBX 11 17 1 0
BITMAP
0600
0720
03E0
0F80
0CC0
00C0
1FC0
7FE0
70E0
E060
C060
C060
C0C0
E0C0
71C0
3F80
1F00
ENDCHAR
STARTCHAR 00F1
ENCODING 241
SWIDTH 585 0
DWIDTH 13 0
BBX 9 17 2 0
BITMAP
3100
7F00
4E00
0000
0000
FE00
FF00
C380
C180
C180
C180
C180
C180
C180
C180
C180
C180
ENDCHAR
STARTCHAR 00F2
ENCODING 242
SWIDTH 585 0
DWIDTH 13 0
BBX 11 17 1 0
BITMAP
0800
1C00
0E00
0400
0000
1F00
3F80
71C0
60C0
C060
C060
C060
C060
60C0
71C0
3F80
1F00
ENDCHAR
STARTCHAR 00F3
ENCODING 243
SWIDTH 585 0
DWIDTH 13 0
BBX 11 17 1 0
BITMAP
0200
0700
0E00
0400
0000
1F00
3F80
71C0
60C0
C060
C060
C060
C060
60C0
71C0
3F80
1F00
ENDCHAR
STARTCHAR 00F4
ENCODING 244
SWIDTH 585 0
DWIDTH 13 0
BBX 11 17 1 0
BITMAP
0400
0E00
1B00
1100
0000
1F00
3F80
71C0
60C0
C060
C060
C060
C060
60C0
71C0
3F80
1F00
ENDCHAR
STARTCHAR 00F5
ENCODING 245
SWIDTH 585 0
DWIDTH 13 0
BBX 11 17 1 0
BITMAP
1C80
3F80
2700
0000
0000
1F00
3F80
71C0
60C0
C060
C060
C060
C060
60C0
71C0
3F80
1F00
ENDCHAR
STARTCHAR 00F6
ENCODING 246
SWIDTH 585 0
DWIDTH 13 0
BBX 11 17 1 0
BITMAP
3180
3B80
3180
0000
0000
1F00
3F80
71C0
60C0
C060
C060
C060
C060
60C0
71C0
3F80
1F00
ENDCHAR
STARTCHAR 00F7
ENCODING 247
SWIDTH 540 0
DWIDTH 12 0
BBX 10 12 1 1
BITMAP
0C00
0E00
0C00
0000
0000
FFC0
FFC0
0000
0000
0C00
0E00
0C00
ENDCHAR
STARTCHAR 00F8
ENCODING 248
SWIDTH 585 0
DWIDTH 13 0
BBX 11 13 1 -1
BITMAP
1F40
3FC0
71C0
61C0
C360
C660
CC60
D860
70C0
71C0
7F80
5F00
4000
ENDCHAR
STARTCHAR 00F9
ENCODING 249
SWIDTH 585 0
DWIDTH 13 0
BBX 9 17 2 0
BITMAP
2000
3000
1800
0800
0000
C180
C180
C180
C180
C180
C180
C180
C180
C180
E180
7F80
3F80
ENDCHAR
STARTCHAR 00FA
ENCODING 250
SWIDTH 585 0
DWIDTH 13 0
BBX 9 17 2 0
BITMAP
0400
0C00
1800
1000
0000
C180
C180
C180
C180
C180
C180
C180
C180
C180
E180
7F80
3F80
ENDCHAR
STARTCHAR 00FB
ENCODING 251
SWIDTH 585 0
DWIDTH 13 0
BBX 9 17 2 0
BITMAP
0800
1C00
3600
2200
0000
C180
C180
C180
C180
C180
C180
C180
C180
C180
E180
7F80
3F80
ENDCHAR
STARTCHAR 00FC
ENCODING 252
SWIDTH 585 0
DWIDTH 13 0
BBX 9 17 2 0
BITMAP
6600
6700
6600
0000
0000
C180
C180
C180
C180
C180
C180
C180
C180
C180
E180
7F80
3F80
ENDCHAR
STARTCHAR 00FD
ENCODING 253
SWIDTH 495 0
DWIDTH 11 0
BBX 10 21 0 -4
BITMAP
0100
0300
0600
0400
0000
E0C0
60C0
60C0
60C0
3180
3180
3180
1900
1B00
0F00
0E00
0600
0600
0C00
F800
F000
ENDCHAR
STARTCHAR 00FE
ENCODING 254
SWIDTH 585 0
DWIDTH 13 0
BBX 10 21 2 -4
BITMAP
C000
C000
C000
C000
C000
FE00
FF00
C380
C180
C0C0
C0C0
C0C0
C0C0
C180
C380
FF00
FE00
C000
C000
C000
C000
ENDCHAR
STARTCHAR 00FF
ENCODING 255
SWIDTH 495 0
DWIDTH 11 0
BBX 10 21 0 -4
BITMAP
1980
3980
1980
0000
0000
E0C0
60C0
60C0
60C0
3180
3180
3180
1900
1B00
0F00
0E00
0600
0600
0C00
F800
F000
ENDCHAR
STARTCHAR 0100
ENCODING 256
SWIDTH 675 0
DWIDTH 15 0
BBX 14 19 0 0
BITMAP
0FC0
0FC0
0000
0000
0380
0380
0780
06C0
0CC0
0C60
1860
1870
1830
3FF0
3FF8
7018
6018
600C
E00C
ENDCHAR
STARTCHAR 0101
ENCODING 257
SWIDTH 495 0
DWIDTH 11 0
BBX 9 16 1 0
BITMAP
3F00
3F00
0000
0000
7E00
7F00
0380
0180
3F80
7F80
E180
C180
C180
E180
7F80
3F80
ENDCHAR
STARTCHAR 0102
ENCODING 258
SWIDTH 675 0
DWIDTH 15 0
BBX 14 19 0 0
BITMAP
0C40
07C0
0380
0000
0380
0380
0780
06C0
0CC0
0C60
1860
1870
1830
3FF0
3FF8
7018
6018
600C
E00C
ENDCHAR
STARTCHAR 0103
ENCODING 259
SWIDTH 495 0
DWIDTH 11 0
BBX 9 16 1 0
BITMAP
2300
3E00
1E00
0000
7E00
7F00
0380
0180
3F80
7F80
E180
C180
C180
E180
7F80
3F80
ENDCHAR
STARTCHAR 0104
ENCODING 260
SWIDTH 675 0
DWIDTH 15 0
BBX 14 19 0 -4
BITMAP
0380
0380
0780
06C0
0CC0
0C60
1860
1870
1830
3FF0
3FF8
7018
6018
600C
E00C
000C
0018
0018
001C
ENDCHAR
STARTCHAR 0105
ENCODING 261
SWIDTH 495 0
DWIDTH 11 0
BBX 9 15 1 -3
BITMAP
7E00
7F00
0380
0180
3F80
7F80
E180
C180
C180
E180
7F80
3F80
0300
0600
0780
ENDCHAR
STARTCHAR 0106
ENCODING 262
SWIDTH 630 0
DWIDTH 14 0
BBX 12 20 1 0
BITMAP
0080
0180
0300
0200
0000
07E0
1FF0
3830
7000
6000
E000
E000
E000
E000
E000
6000
7000
3810
1FF0
07E0
ENDCHAR
STARTCHAR 0107
ENCODING 263
SWIDTH 450 0
DWIDTH 10 0
BBX 9 17 1 0
BITMAP
0200
0600
0C00
0800
0000
1F00
3F00
7000
6000
C000
C000
C000
C000
E000
7000
3F80
1F80
ENDCHAR
STARTCHAR 0108
ENCODING 264
SWIDTH 630 0
DWIDTH 14 0
BBX 12 20 1 0
BITMAP
0100
0380
06C0
0840
0000
07E0
1FF0
3830
7000
6000
E000
E000
E000
E000
E000
6000
7000
3810
1FF0
07E0
ENDCHAR
STARTCHAR 0109
ENCODING 265
SWIDTH 450 0
DWIDTH 10 0
BBX 9 17 1 0
BITMAP
0400
0E00
1B00
1100
0000
1F00
3F00
7000
6000
C000
C000
C000
C000
E000
7000
3F80
1F80
ENDCHAR
STARTCHAR 010A
ENCODING 266
SWIDTH 630 0
DWIDTH 14 0
BBX 12 20 1 0
BITMAP
0300
0300
0300
0000
0000
07E0
1FF0
3830
7000
6000
E000
E000
E000
E000
E000
6000
7000
3810
1FF0
07E0
ENDCHAR
STARTCHAR 010B
ENCODING 267
SWIDTH 450 0
DWIDTH 10 0
BBX 9 17 1 0
BITMAP
0C00
0E00
0C00
0000
0000
1F00
3F00
7000
6000
C000
C000
C000
C000
E000
7000
3F80
1F80
ENDCHAR
STARTCHAR 010C
ENCODING 268
SWIDTH 630 0
DWIDTH 14 0
BBX 12 20 1 0
BITMAP
0840
06C0
0380
0100
0000
07E0
1FF0
3830
7000
6000
E000
E000
E000
E000
E000
6000
7000
3810
1FF0
07E0
ENDCHAR
STARTCHAR 010D
ENCODING 269
SWIDTH 450 0
DWIDTH 10 0
BBX 9 17 1 0
BITMAP
1100
1B00
0E00
0400
0000
1F00
3F00
7000
6000
C000
C000
C000
C000
E000
7000
3F80
1F80
ENDCHAR
STARTCHAR 010E
ENCODING 270
SWIDTH 720 0
DWIDTH 16 0
BBX 12 20 2 0
BITMAP
1100
1B00
0E00
0400
0000
FF00
FFC0
C1E0
C060
C070
C030
C030
C030
C030
C030
C070
C060
C1E0
FFC0
FF00
ENDCHAR
STARTCHAR 010F
ENCODING 271
SWIDTH 630 0
DWIDTH 14 0
BBX 14 17 1 0
BITMAP
00CC
00CC
00C8
00C8
00C8
1FC0
3FC0
70C0
E0C0
C0C0
C0C0
C0C0
C0C0
60C0
70C0
3FC0
1FC0
ENDCHAR
STARTCHAR 0110
ENCODING 272
SWIDTH 720 0
DWIDTH 16 0
BBX 15 15 0 0
BITMAP
3FC0
3FF0
3078
301C
300C
300E
FE0E
FE0E
300E
300E
300C
301C
3078
3FF0
3FC0
ENDCHAR
STARTCHAR 0111
ENCODING 273
SWIDTH 585 0
DWIDTH 13 0
BBX 12 17 1 0
BITMAP
00C0
0FF0
0FF0
00C0
00C0
1FC0
3FC0
70C0
E0C0
C0C0
C0C0
C0C0
C0C0
60C0
70C0
3FC0
1FC0
ENDCHAR
STARTCHAR 0112
ENCODING 274
SWIDTH 585 0
DWIDTH 13 0
BBX 10 19 2 0
BITMAP
7F00
7F00
0000
0000
FF80
FF80
C000
C000
C000
C000
FF00
FF00
C000
C000
C000
C000
C000
FFC0
FFC0
ENDCHAR
STARTCHAR 0113
ENCODING 275
SWIDTH 540 0
DWIDTH 12 0
BBX 10 16 1 0
BITMAP
3F00
3F00
0000
0000
1F00
3F80
7180
60C0
C0C0
FFC0
FFC0
C000
E000
7000
3F80
1F80
ENDCHAR
STARTCHAR 0114
ENCODING 276
SWIDTH 585 0
DWIDTH 13 0
BBX 10 19 2 0
BITMAP
6200
3E00
1C00
0000
FF80
FF80
C000
C000
C000
C000
FF00
FF00
C000
C000
C000
C000
C000
FFC0
FFC0
ENDCHAR
STARTCHAR 0115
ENCODING 277
SWIDTH 540 0
DWIDTH 12 0
BBX 10 16 1 0
BITMAP
3100
1F00
1E00
0000
1F00
3F80
7180
60C0
C0C0
FFC0
FFC0
C000
E000
7000
3F80
1F80
ENDCHAR
STARTCHAR 0116
ENCODING 278
SWIDTH 585 0
DWIDTH 13 0
BBX 10 20 2 0
BITMAP
0C00
1C00
0C00
0000
0000
FF80
FF80
C000
C000
C000
C000
FF00
FF00
C000
C000
C000
C000
C000
FFC0
FFC0
ENDCHAR
STARTCHAR 0117
ENCODING 279
SWIDTH 540 0
DWIDTH 12 0
BBX 10 17 1 0
BITMAP
0C00
0E00
0C00
0000
0000
1F00
3F80
7180
60C0
C0C0
FFC0
FFC0
C000
E000
7000
3F80
1F80
ENDCHAR
STARTCHAR 0118
ENCODING 280
SWIDTH 585 0
DWIDTH 13 0
BBX 10 19 2 -4
BITMAP
FF80
FF80
C000
C000
C000
C000
FF00
FF00
C000
C000
C000
C000
C000
FFC0
FFC0
0180
0300
0300
03C0
ENDCHAR
STARTCHAR 0119
ENCODING 281
SWIDTH 540 0
DWIDTH 12 0
BBX 10 15 1 -3
BITMAP
1F00
3F80
7180
60C0
C0C0
FFC0
FFC0
C000
E000
7000
3F80
1F80
0300
0600
0380
ENDCHAR
STARTCHAR 011A
ENCODING 282
SWIDTH 585 0
DWIDTH 13 0
BBX 10 20 2 0
BITMAP
2200
3600
1C00
0800
0000
FF80
FF80
C000
C000
C000
C000
FF00
FF00
C000
C000
C000
C000
C000
FFC0
FFC0
ENDCHAR
STARTCHAR 011B
ENCODING 283
SWIDTH 540 0
DWIDTH 12 0
BBX 10 18 1 0
BITMAP
1100
1B00
0E00
0400
0000
0000
1F00
3F80
7180
60C0
C0C0
FFC0
FFC0
C000
E000
7000
3F80
1F80
ENDCHAR
STARTCHAR 011C
ENCODING 284
SWIDTH 675 0
DWIDTH 15 0
BBX 12 20 1 0
BITMAP
0100
0380
06C0
0440
0000
07E0
1FF0
3810
7000
6000
E000
E000
E000
E030
E030
6030
7030
3830
1FF0
07F0
ENDCHAR
STARTCHAR 011D
ENCODING 285
SWIDTH 585 0
DWIDTH 13 0
BBX 10 21 1 -4
BITMAP
0400
0E00
1B00
1100
0000
1FC0
3FC0
70C0
60C0
C0C0
C0C0
C0C0
C0C0
E0C0
71C0
3FC0
1EC0
00C0
01C0
7F80
7E00
ENDCHAR
STARTCHAR 011E
ENCODING 286
SWIDTH 675 0
DWIDTH 15 0
BBX 12 19 1 0
BITMAP
0C40
07C0
0380
0000
07E0
1FF0
3810
7000
6000
E000
E000
E000
E030
E030
6030
7030
3830
1FF0
07F0
ENDCHAR
STARTCHAR 011F
ENCODING 287
SWIDTH 585 0
DWIDTH 13 0
BBX 10 20 1 -4
BITMAP
1180
1F00
0E00
0000
1FC0
3FC0
70C0
60C0
C0C0
C0C0
C0C0
C0C0
E0C0
71C0
3FC0
1EC0
00C0
01C0
7F80
7E00
ENDCHAR
STARTCHAR 0120
ENCODING 288
SWIDTH 675 0
DWIDTH 15 0
BBX 12 20 1 0
BITMAP
0300
0380
0300
0000
0000
07E0
1FF0
3810
7000
6000
E000
E000
E000
E030
E030
6030
7030
3830
1FF0
07F0
ENDCHAR
STARTCHAR 0121
ENCODING 289
SWIDTH 585 0
DWIDTH 13 0
BBX 10 21 1 -4
BITMAP
0600
0E00
0600
0000
0000
1FC0
3FC0
70C0
60C0
C0C0
C0C0
C0C0
C0C0
E0C0
71C0
3FC0
1EC0
00C0
01C0
7F80
7E00
ENDCHAR
STARTCHAR 0122
ENCODING 290
SWIDTH 675 0
DWIDTH 15 0
BBX 12 19 1 -4
BITMAP
07E0
1FF0
3810
7000
6000
E000
E000
E000
E030
E030
6030
7030
3830
1FF0
07F0
0000
0300
0700
0600
ENDCHAR
STARTCHAR 0123
ENCODING 291
SWIDTH 585 0
DWIDTH 13 0
BBX 10 21 1 -4
BITMAP
0300
0600
0600
0600
0000
1FC0
3FC0
70C0
60C0
C0C0
C0C0
C0C0
C0C0
E0C0
71C0
3FC0
1EC0
00C0
01C0
7F80
7E00
ENDCHAR
STARTCHAR 0124
ENCODING 292
SWIDTH 720 0
DWIDTH 16 0
BBX 12 20 2 0
BITMAP
0400
0E00
1B00
1100
0000
C070
C070
C070
C070
C070
C070
FFF0
FFF0
C070
C070
C070
C070
C070
C070
C070
ENDCHAR
STARTCHAR 0125
ENCODING 293
SWIDTH 585 0
DWIDTH 13 0
BBX 10 21 1 0
BITMAP
3000
7800
C800
0000
6000
6000
6000
6000
6000
7F00
7F80
61C0
60C0
60C0
60C0
60C0
60C0
60C0
60C0
60C0
60C0
ENDCHAR
STARTCHAR 0126
ENCODING 294
SWIDTH 720 0
DWIDTH 16 0
BBX 16 15 0 0
BITMAP
300C
FFFF
FFFF
300C
300C
300C
3FFC
3FFC
300C
300C
300C
300C
300C
300C
300C
ENDCHAR
STARTCHAR 0127
ENCODING 295
SWIDTH 585 0
DWIDTH 13 0
BBX 11 17 0 0
BITMAP
3000
FF00
FF00
3000
3000
3F80
3FC0
30E0
3060
3060
3060
3060
3060
3060
3060
3060
3060
ENDCHAR
STARTCHAR 0128
ENCODING 296
SWIDTH 270 0
DWIDTH 6 0
BBX 8 20 -1 0
BITMAP
73
7E
CC
00
00
18
18
18
18
18
18
18
18
18
18
18
18
18
18
18
ENDCHAR
STARTCHAR 0129
ENCODING 297
SWIDTH 270 0
DWIDTH 6 0
BBX 7 17 -1 0
BITMAP
72
7E
CC
00
00
18
18
18
18
18
18
18
18
18
18
18
18
ENDCHAR
STARTCHAR 012A
ENCODING 298
SWIDTH 270 0
DWIDTH 6 0
BBX 6 19 0 0
BITMAP
FC
FC
00
00
30
30
30
30
30
30
30
30
30
30
30
30
30
30
30
ENDCHAR
STARTCHAR 012B
ENCODING 299
SWIDTH 270 0
DWIDTH 6 0
BBX 6 16 0 0
BITMAP
FC
FC
00
00
30
30
30
30
30
30
30
30
30
30
30
30
ENDCHAR
STARTCHAR 012C
ENCODING 300
SWIDTH 270 0
DWIDTH 6 0
BBX 6 19 0 0
BITMAP
CC
FC
78
00
30
30
30
30
30
30
30
30
30
30
30
30
30
30
30
ENDCHAR
STARTCHAR 012D
ENCODING 301
SWIDTH 270 0
DWIDTH 6 0
BBX 6 16 0 0
BITMAP
8C
F8
78
00
30
30
30
30
30
30
30
30
30
30
30
30
ENDCHAR
STARTCHAR 012E
ENCODING 302
SWIDTH 270 0
DWIDTH 6 0
BBX 4 19 0 -4
BITMAP
30
30
30
30
30
30
30
30
30
30
30
30
30
30
30
60
60
C0
70
ENDCHAR
STARTCHAR 012F
ENCODING 303
SWIDTH 270 0
DWIDTH 6 0
BBX 4 20 0 -4
BITMAP
30
30
00
00
30
30
30
30
30
30
30
30
30
30
30
30
60
C0
C0
70
ENDCHAR
STARTCHAR 0130
ENCODING 304
SWIDTH 270 0
DWIDTH 6 0
BBX 2 20 2 0
BITMAP
C0
C0
C0
00
00
C0
C0
C0
C0
C0
C0
C0
C0
C0
C0
C0
C0
C0
C0
C0
ENDCHAR
STARTCHAR 0131
ENCODING 305
SWIDTH 270 0
DWIDTH 6 0
BBX 2 12 2 0
BITMAP
C0
C0
C0
C0
C0
C0
C0
C0
C0
C0
C0
C0
ENDCHAR
STARTCHAR 0132
ENCODING 306
SWIDTH 765 0
DWIDTH 17 0
BBX 13 15 2 0
BITMAP
C018
C018
C018
C018
C018
C018
C018
C018
C018
C018
C018
C018
C438
CFF0
C7E0
ENDCHAR
STARTCHAR 0133
ENCODING 307
SWIDTH 495 0
DWIDTH 11 0
BBX 8 20 2 -4
BITMAP
C7
C7
00
00
C6
C6
C6
C6
C6
C6
C6
C6
C6
C6
C6
C6
06
06
3E
3C
ENDCHAR
STARTCHAR 0134
ENCODING 308
SWIDTH 495 0
DWIDTH 11 0
BBX 11 20 0 0
BITMAP
0080
01C0
0360
0220
0000
0180
0180
0180
0180
0180
0180
0180
0180
0180
0180
0180
0180
4380
FF00
7E00
ENDCHAR
STARTCHAR 0135
ENCODING 309
SWIDTH 270 0
DWIDTH 6 0
BBX 6 21 -1 -4
BITMAP
10
38
6C
44
00
18
18
18
18
18
18
18
18
18
18
18
18
18
38
F0
E0
ENDCHAR
STARTCHAR 0136
ENCODING 310
SWIDTH 630 0
DWIDTH 14 0
BBX 11 19 2 -4
BITMAP
C0E0
C1C0
C380
C700
CE00
DC00
F800
F000
FC00
DE00
CF00
C380
C1C0
C0E0
C060
0000
0C00
1C00
1800
ENDCHAR
STARTCHAR 0137
ENCODING 311
SWIDTH 495 0
DWIDTH 11 0
BBX 9 21 2 -4
BITMAP
C000
C000
C000
C000
C000
C300
C600
CE00
DC00
F800
F000
F800
DC00
CE00
C700
C300
C380
0000
1800
3800
3000
ENDCHAR
STARTCHAR 0138
ENCODING 312
SWIDTH 540 0
DWIDTH 12 0
BBX 9 12 2 0
BITMAP
C380
C700
CE00
DC00
F800
F000
F800
DC00
CE00
C700
C380
C180
ENDCHAR
STARTCHAR 0139
ENCODING 313
SWIDTH 495 0
DWIDTH 11 0
BBX 9 20 2 0
BITMAP
3000
7000
E000
4000
0000
C000
C000
C000
C000
C000
C000
C000
C000
C000
C000
C000
C000
C000
FF80
FF80
ENDCHAR
STARTCHAR 013A
ENCODING 314
SWIDTH 270 0
DWIDTH 6 0
BBX 3 21 2 0
BITMAP
20
E0
C0
00
C0
C0
C0
C0
C0
C0
C0
C0
C0
C0
C0
C0
C0
C0
C0
E0
60
ENDCHAR
STARTCHAR 013B
ENCODING 315
SWIDTH 495 0
DWIDTH 11 0
BBX 9 19 2 -4
BITMAP
C000
C000
C000
C000
C000
C000
C000
C000
C000
C000
C000
C000
C000
FF80
FF80
0000
0C00
3800
3800
ENDCHAR
STARTCHAR 013C
ENCODING 316
SWIDTH 270 0
DWIDTH 6 0
BBX 4 21 1 -4
BITMAP
60
60
60
60
60
60
60
60
60
60
60
60
60
60
60
70
30
00
60
E0
C0
ENDCHAR
STARTCHAR 013D
ENCODING 317
SWIDTH 495 0
DWIDTH 11 0
BBX 9 15 2 0
BITMAP
CC00
CC00
CC00
CC00
C800
C000
C000
C000
C000
C000
C000
C000
C000
FF80
FF80
ENDCHAR
STARTCHAR 013E
ENCODING 318
SWIDTH 270 0
DWIDTH 6 0
BBX 5 17 2 0
BITMAP
D8
D8
D8
D8
D8
C0
C0
C0
C0
C0
C0
C0
C0
C0
C0
E0
60
ENDCHAR
STARTCHAR 013F
ENCODING 319
SWIDTH 495 0
DWIDTH 11 0
BBX 9 15 2 0
BITMAP
C000
C000
C000
C000
C000
C300
C700
C300
C000
C000
C000
C000
C000
FF80
FF80
ENDCHAR
STARTCHAR 0140
ENCODING 320
SWIDTH 360 0
DWIDTH 8 0
BBX 6 17 2 0
BITMAP
C0
C0
C0
C0
C0
C0
C0
CC
CC
CC
C0
C0
C0
C0
C0
E0
60
ENDCHAR
STARTCHAR 0141
ENCODING 321
SWIDTH 540 0
DWIDTH 12 0
BBX 11 15 0 0
BITMAP
3000
3000
3000
3000
3000
3600
3E00
7800
F000
3000
3000
3000
3000
3FE0
3FE0
ENDCHAR
STARTCHAR 0142
ENCODING 322
SWIDTH 270 0
DWIDTH 6 0
BBX 6 17 0 0
BITMAP
30
30
30
30
30
30
34
3C
F0
F0
30
30
30
30
30
3C
1C
ENDCHAR
STARTCHAR 0143
ENCODING 323
SWIDTH 720 0
DWIDTH 16 0
BBX 12 20 2 0
BITMAP
0100
0300
0600
0400
0000
C030
E030
F030
F830
D830
CC30
C630
C730
C330
C1B0
C1F0
C0F0
C070
C070
C030
ENDCHAR
STARTCHAR 0144
ENCODING 324
SWIDTH 585 0
DWIDTH 13 0
BBX 9 17 2 0
BITMAP
0400
0E00
1800
1000
0000
FE00
FF00
C380
C180
C180
C180
C180
C180
C180
C180
C180
C180
ENDCHAR
STARTCHAR 0145
ENCODING 325
SWIDTH 720 0
DWIDTH 16 0
BBX 12 19 2 -4
BITMAP
C030
E030
F030
F830
D830
CC30
C630
C730
C330
C1B0
C1F0
C0F0
C070
C070
C030
0000
0600
0E00
0C00
ENDCHAR
STARTCHAR 0146
ENCODING 326
SWIDTH 585 0
DWIDTH 13 0
BBX 9 16 2 -4
BITMAP
FE00
FF00
C380
C180
C180
C180
C180
C180
C180
C180
C180
C180
0000
1800
3800
3800
ENDCHAR
STARTCHAR 0147
ENCODING 327
SWIDTH 720 0
DWIDTH 16 0
BBX 12 20 2 0
BITMAP
1080
0900
0600
0200
0000
C030
E030
F030
F830
D830
CC30
C630
C730
C330
C1B0
C1F0
C0F0
C070
C070
C030
ENDCHAR
STARTCHAR 0148
ENCODING 328
SWIDTH 585 0
DWIDTH 13 0
BBX 9 17 2 0
BITMAP
2200
3600
1C00
0800
0000
FE00
FF00
C380
C180
C180
C180
C180
C180
C180
C180
C180
C180
ENDCHAR
STARTCHAR 0149
ENCODING 329
SWIDTH 585 0
DWIDTH 13 0
BBX 11 18 0 0
BITMAP
6000
6000
6000
4000
C000
0000
3F80
3FC0
30E0
3060
3060
3060
3060
3060
3060
3060
3060
3060
ENDCHAR
STARTCHAR 014A
ENCODING 330
SWIDTH 720 0
DWIDTH 16 0
BBX 12 19 2 -4
BITMAP
C030
E030
F030
F830
D830
CC30
C630
C730
C330
C1B0
C0F0
C0F0
C070
C030
C030
0030
0030
00F0
00E0
ENDCHAR
STARTCHAR 014B
ENCODING 331
SWIDTH 585 0
DWIDTH 13 0
BBX 9 16 2 -4
BITMAP
FE00
FF00
C380
C180
C180
C180
C180
C180
C180
C180
C180
C180
0180
0180
0F80
0F00
ENDCHAR
STARTCHAR 014C
ENCODING 332
SWIDTH 765 0
DWIDTH 17 0
BBX 15 19 1 0
BITMAP
0FE0
0FE0
0000
0000
07C0
1FF0
3838
701C
600C
E00E
E006
E006
E006
E00E
600C
701C
3838
1FF0
07C0
ENDCHAR
STARTCHAR 014D
ENCODING 333
SWIDTH 585 0
DWIDTH 13 0
BBX 11 16 1 0
BITMAP
3F80
3F80
0000
0000
1F00
3F80
71C0
60C0
C060
C060
C060
C060
60C0
71C0
3F80
1F00
ENDCHAR
STARTCHAR 014E
ENCODING 334
SWIDTH 765 0
DWIDTH 17 0
BBX 15 19 1 0
BITMAP
0440
07C0
0380
0000
07C0
1FF0
3838
701C
600C
E00E
E006
E006
E006
E00E
600C
701C
3838
1FF0
07C0
ENDCHAR
STARTCHAR 014F
ENCODING 335
SWIDTH 585 0
DWIDTH 13 0
BBX 11 16 1 0
BITMAP
1100
1F00
0E00
0000
1F00
3F80
71C0
60C0
C060
C060
C060
C060
60C0
71C0
3F80
1F00
ENDCHAR
STARTCHAR 0150
ENCODING 336
SWIDTH 765 0
DWIDTH 17 0
BBX 15 20 1 0
BITMAP
0110
0330
0660
0440
0000
07C0
1FF0
3838
701C
600C
E00E
E006
E006
E006
E00E
600C
701C
3838
1FF0
07C0
ENDCHAR
STARTCHAR 0151
ENCODING 337
SWIDTH 585 0
DWIDTH 13 0
BBX 11 17 1 0
BITMAP
0480
0CC0
1980
1100
0000
1F00
3F80
71C0
60C0
C060
C060
C060
C060
60C0
71C0
3F80
1F00
ENDCHAR
STARTCHAR 0152
ENCODING 338
SWIDTH 990 0
DWIDTH 22 0
BBX 20 15 1 0
BITMAP
07FFE0
1FFFE0
3C3800
703800
603800
E03800
E03FE0
E03FE0
E03800
E03800
603800
703800
3C3800
1FFFF0
07FFF0
ENDCHAR
STARTCHAR 0153
ENCODING 339
SWIDTH 945 0
DWIDTH 21 0
BBX 19 12 1 0
BITMAP
1F0F00
3FBF80
71F0C0
60E0C0
C060E0
C07FE0
C07FE0
C06000
60E000
71F040
3FBFC0
1F0FC0
ENDCHAR
STARTCHAR 0154
ENCODING 340
SWIDTH 630 0
DWIDTH 14 0
BBX 11 20 2 0
BITMAP
0400
0E00
1C00
0800
0000
FF00
FF80
C1C0
C0C0
C0E0
C0C0
C1C0
FF80
FF00
C300
C380
C180
C0C0
C0E0
C060
ENDCHAR
STARTCHAR 0155
ENCODING 341
SWIDTH 360 0
DWIDTH 8 0
BBX 6 17 2 0
BITMAP
08
18
30
20
00
FC
FC
C0
C0
C0
C0
C0
C0
C0
C0
C0
C0
ENDCHAR
STARTCHAR 0156
ENCODING 342
SWIDTH 630 0
DWIDTH 14 0
BBX 11 19 2 -4
BITMAP
FF00
FF80
C1C0
C0C0
C0E0
C0C0
C1C0
FF80
FF00
C300
C380
C180
C0C0
C0E0
C060
0000
0C00
1C00
1800
ENDCHAR
STARTCHAR 0157
ENCODING 343
SWIDTH 360 0
DWIDTH 8 0
BBX 8 16 0 -4
BITMAP
3F
3F
30
30
30
30
30
30
30
30
30
30
00
30
F0
E0
ENDCHAR
STARTCHAR 0158
ENCODING 344
SWIDTH 630 0
DWIDTH 14 0
BBX 11 20 2 0
BITMAP
2200
3600
1C00
0800
0000
FF00
FF80
C1C0
C0C0
C0E0
C0C0
C1C0
FF80
FF00
C300
C380
C180
C0C0
C0E0
C060
ENDCHAR
STARTCHAR 0159
ENCODING 345
SWIDTH 360 0
DWIDTH 8 0
BBX 6 17 2 0
BITMAP
84
68
38
10
00
FC
FC
C0
C0
C0
C0
C0
C0
C0
C0
C0
C0
ENDCHAR
STARTCHAR 015A
ENCODING 346
SWIDTH 540 0
DWIDTH 12 0
BBX 10 20 1 0
BITMAP
0200
0600
0C00
0800
0000
3F00
7F80
E080
C000
C000
E000
7800
3F00
0780
01C0
00C0
00C0
C1C0
FF80
7F00
ENDCHAR
STARTCHAR 015B
ENCODING 347
SWIDTH 450 0
DWIDTH 10 0
BBX 8 17 1 0
BITMAP
04
0C
18
10
00
3E
7E
C0
C0
E0
7C
3E
07
03
83
FE
FC
ENDCHAR
STARTCHAR 015C
ENCODING 348
SWIDTH 540 0
DWIDTH 12 0
BBX 10 20 1 0
BITMAP
0400
0E00
1B00
2100
0000
3F00
7F80
E080
C000
C000
E000
7800
3F00
0780
01C0
00C0
00C0
C1C0
FF80
7F00
ENDCHAR
STARTCHAR 015D
ENCODING 349
SWIDTH 450 0
DWIDTH 10 0
BBX 8 17 1 0
BITMAP
10
18
24
42
00
3E
7E
C0
C0
E0
7C
3E
07
03
83
FE
FC
ENDCHAR
STARTCHAR 015E
ENCODING 350
SWIDTH 540 0
DWIDTH 12 0
BBX 10 18 1 -3
BITMAP
3F00
7F80
E080
C000
C000
E000
7800
3F00
0780
01C0
00C0
00C0
C1C0
FF80
7F00
0C00
0400
3C00
ENDCHAR
STARTCHAR 015F
ENCODING 351
SWIDTH 450 0
DWIDTH 10 0
BBX 8 15 1 -3
BITMAP
3E
7E
C0
C0
E0
78
1E
07
03
83
FE
FC
10
08
78
ENDCHAR
STARTCHAR 0160
ENCODING 352
SWIDTH 540 0
DWIDTH 12 0
BBX 10 20 1 0
BITMAP
2100
1B00
0E00
0400
0000
3F00
7F80
E080
C000
C000
E000
7800
3F00
0780
01C0
00C0
00C0
C1C0
FF80
7F00
ENDCHAR
STARTCHAR 0161
ENCODING 353
SWIDTH 450 0
DWIDTH 10 0
BBX 8 17 1 0
BITMAP
44
6C
38
10
00
3E
7E
C0
C0
E0
7C
3E
07
03
83
FE
FC
ENDCHAR
STARTCHAR 0162
ENCODING 354
SWIDTH 540 0
DWIDTH 12 0
BBX 12 19 0 -4
BITMAP
FFF0
FFF0
0600
0600
0600
0600
0600
0600
0600
0600
0600
0600
0600
0600
0600
0600
0600
0300
0E00
ENDCHAR
STARTCHAR 0163
ENCODING 355
SWIDTH 405 0
DWIDTH 9 0
BBX 6 19 2 -3
BITMAP
C0
C0
C0
C0
FC
FC
C0
C0
C0
C0
C0
C0
C0
C0
FC
7C
30
18
78
ENDCHAR
STARTCHAR 0164
ENCODING 356
SWIDTH 540 0
DWIDTH 12 0
BBX 12 20 0 0
BITMAP
0880
0D80
0700
0200
0000
FFF0
FFF0
0600
0600
0600
0600
0600
0600
0600
0600
0600
0600
0600
0600
0600
ENDCHAR
STARTCHAR 0165
ENCODING 357
SWIDTH 405 0
DWIDTH 9 0
BBX 6 17 2 0
BITMAP
18
D8
D8
D8
C0
FC
FC
C0
C0
C0
C0
C0
C0
C0
C0
FC
7C
ENDCHAR
STARTCHAR 0166
ENCODING 358
SWIDTH 540 0
DWIDTH 12 0
BBX 12 15 0 0
BITMAP
FFF0
FFF0
0600
0600
0600
0600
0600
3FC0
3FC0
0600
0600
0600
0600
0600
0600
ENDCHAR
STARTCHAR 0167
ENCODING 359
SWIDTH 405 0
DWIDTH 9 0
BBX 6 16 2 0
BITMAP
C0
C0
C0
C0
FC
FC
C0
C0
C0
FC
FC
C0
C0
C0
FC
7C
ENDCHAR
STARTCHAR 0168
ENCODING 360
SWIDTH 675 0
DWIDTH 15 0
BBX 11 20 2 0
BITMAP
1C80
3F80
2700
0000
0000
C060
C060
C060
C060
C060
C060
C060
C060
C060
C060
C060
E060
70E0
7FC0
1F00
ENDCHAR
STARTCHAR 0169
ENCODING 361
SWIDTH 585 0
DWIDTH 13 0
BBX 9 17 2 0
BITMAP
3100
7F00
4E00
0000
0000
C180
C180
C180
C180
C180
C180
C180
C180
C180
E180
7F80
3F80
ENDCHAR
STARTCHAR 016A
ENCODING 362
SWIDTH 675 0
DWIDTH 15 0
BBX 11 19 2 0
BITMAP
3F80
3F80
0000
0000
C060
C060
C060
C060
C060
C060
C060
C060
C060
C060
C060
E060
70E0
7FC0
1F00
ENDCHAR
STARTCHAR 016B
ENCODING 363
SWIDTH 585 0
DWIDTH 13 0
BBX 9 16 2 0
BITMAP
7E00
7E00
0000
0000
C180
C180
C180
C180
C180
C180
C180
C180
C180
E180
7F80
3F80
ENDCHAR
STARTCHAR 016C
ENCODING 364
SWIDTH 675 0
DWIDTH 15 0
BBX 11 19 2 0
BITMAP
1100
1F00
0E00
0000
C060
C060
C060
C060
C060
C060
C060
C060
C060
C060
C060
E060
70E0
7FC0
1F00
ENDCHAR
STARTCHAR 016D
ENCODING 365
SWIDTH 585 0
DWIDTH 13 0
BBX 9 16 2 0
BITMAP
6200
3E00
1C00
0000
C180
C180
C180
C180
C180
C180
C180
C180
C180
E180
7F80
3F80
ENDCHAR
STARTCHAR 016E
ENCODING 366
SWIDTH 675 0
DWIDTH 15 0
BBX 11 20 2 0
BITMAP
0E00
1900
1900
0E00
0000
C060
C060
C060
C060
C060
C060
C060
C060
C060
C060
C060
E060
70E0
7FC0
1F00
ENDCHAR
STARTCHAR 016F
ENCODING 367
SWIDTH 585 0
DWIDTH 13 0
BBX 9 17 2 0
BITMAP
1C00
2400
2400
1C00
0000
C180
C180
C180
C180
C180
C180
C180
C180
C180
E180
7F80
3F80
ENDCHAR
STARTCHAR 0170
ENCODING 368
SWIDTH 675 0
DWIDTH 15 0
BBX 11 20 2 0
BITMAP
0440
0CC0
1980
1100
0000
C060
C060
C060
C060
C060
C060
C060
C060
C060
C060
C060
E060
70E0
7FC0
1F00
ENDCHAR
STARTCHAR 0171
ENCODING 369
SWIDTH 585 0
DWIDTH 13 0
BBX 9 17 2 0
BITMAP
0900
1B00
3300
2200
0000
C180
C180
C180
C180
C180
C180
C180
C180
C180
E180
7F80
3F80
ENDCHAR
STARTCHAR 0172
ENCODING 370
SWIDTH 675 0
DWIDTH 15 0
BBX 11 18 2 -3
BITMAP
C060
C060
C060
C060
C060
C060
C060
C060
C060
C060
C060
E060
70C0
7FC0
1F00
0600
0C00
0700
ENDCHAR
STARTCHAR 0173
ENCODING 371
SWIDTH 585 0
DWIDTH 13 0
BBX 9 15 2 -3
BITMAP
C180
C180
C180
C180
C180
C180
C180
C180
C180
E180
7F80
3F80
0300
0600
0780
ENDCHAR
STARTCHAR 0174
ENCODING 372
SWIDTH 900 0
DWIDTH 20 0
BBX 19 20 1 0
BITMAP
004000
00E000
01B000
011000
000000
C00060
C000E0
C0C0C0
E0E0C0
E0E0C0
61E0C0
61B180
633180
733180
331980
361B00
360F00
3C0F00
1C0F00
1C0600
ENDCHAR
STARTCHAR 0175
ENCODING 373
SWIDTH 765 0
DWIDTH 17 0
BBX 16 17 1 0
BITMAP
0100
0380
06C0
0440
0000
C187
C386
C386
C386
62C6
66CC
66CC
344C
3C78
3C78
1C38
1830
ENDCHAR
STARTCHAR 0176
ENCODING 374
SWIDTH 585 0
DWIDTH 13 0
BBX 13 20 0 0
BITMAP
0200
0700
0D80
0880
0000
E038
6030
3070
3860
18C0
1CC0
0D80
0780
0700
0300
0300
0300
0300
0300
0300
ENDCHAR
STARTCHAR 0177
ENCODING 375
SWIDTH 495 0
DWIDTH 11 0
BBX 10 21 0 -4
BITMAP
0400
0E00
1B00
1100
0000
E0C0
60C0
60C0
60C0
3180
3180
3180
1900
1B00
0F00
0E00
0600
0600
0C00
F800
F000
ENDCHAR
STARTCHAR 0178
ENCODING 376
SWIDTH 585 0
DWIDTH 13 0
BBX 13 20 0 0
BITMAP
08C0
1DC0
08C0
0000
0000
E038
6030
3070
3860
18C0
1CC0
0D80
0780
0700
0300
0300
0300
0300
0300
0300
ENDCHAR
STARTCHAR 0179
ENCODING 377
SWIDTH 585 0
DWIDTH 13 0
BBX 11 20 1 0
BITMAP
0200
0700
0E00
0C00
0000
FFE0
FFE0
01C0
0380
0300
0600
0E00
0C00
1800
3000
7000
6000
E000
FFE0
FFE0
ENDCHAR
STARTCHAR 017A
ENCODING 378
SWIDTH 450 0
DWIDTH 10 0
BBX 9 17 1 0
BITMAP
0400
0C00
1800
1000
0000
FF00
FF00
0700
0E00
0C00
1800
3800
7000
6000
E000
FF80
FF80
ENDCHAR
STARTCHAR 017B
ENCODING 379
SWIDTH 585 0
DWIDTH 13 0
BBX 11 20 1 0
BITMAP
0C00
0E00
0C00
0000
0000
FFE0
FFE0
01C0
0380
0300
0600
0E00
0C00
1800
3000
7000
6000
E000
FFE0
FFE0
ENDCHAR
STARTCHAR 017C
ENCODING 380
SWIDTH 450 0
DWIDTH 10 0
BBX 9 17 1 0
BITMAP
1800
1800
1800
0000
0000
FF00
FF00
0700
0E00
0C00
1800
3800
7000
6000
E000
FF80
FF80
ENDCHAR
STARTCHAR 017D
ENCODING 381
SWIDTH 585 0
DWIDTH 13 0
BBX 11 20 1 0
BITMAP
1100
1B00
0E00
0400
0000
FFE0
FFE0
01C0
0380
0300
0600
0E00
0C00
1800
3000
7000
6000
E000
FFE0
FFE0
ENDCHAR
STARTCHAR 017E
ENCODING 382
SWIDTH 450 0
DWIDTH 10 0
BBX 9 17 1 0
BITMAP
4200
3600
1C00
0800
0000
FF00
FF00
0700
0E00
0C00
1800
3800
7000
6000
E000
FF80
FF80
ENDCHAR
STARTCHAR 017F
ENCODING 383
SWIDTH 270 0
DWIDTH 6 0
BBX 7 17 2 0
BITMAP
3E
7C
E0
C0
C0
C0
C0
C0
C0
C0
C0
C0
C0
C0
C0
C0
C0
ENDCHAR
STARTCHAR 0180
ENCODING 384
SWIDTH 585 0
DWIDTH 13 0
BBX 12 17 0 0
BITMAP
3000
FF00
FF00
3000
3000
3F80
3FC0
30E0
3060
3030
3030
3030
3030
3060
30E0
3FC0
3F80
ENDCHAR
STARTCHAR 0181
ENCODING 385
SWIDTH 720 0
DWIDTH 16 0
BBX 15 15 0 0
BITMAP
1FF0
7FFC
6C1C
CC0E
CC0C
0C1C
0FF8
0FFC
0C0E
0C06
0C06
0C06
0C0E
0FFC
0FF0
ENDCHAR
STARTCHAR 0182
ENCODING 386
SWIDTH 630 0
DWIDTH 14 0
BBX 11 15 2 0
BITMAP
FF80
FF80
C000
C000
C000
FF00
FF80
C1C0
C0E0
C0E0
C0E0
C0E0
C1C0
FF80
FE00
ENDCHAR
STARTCHAR 0183
ENCODING 387
SWIDTH 585 0
DWIDTH 13 0
BBX 10 17 2 0
BITMAP
FF80
FF80
C000
C000
C000
FE00
FF00
C380
C180
C0C0
C0C0
C0C0
C0C0
C180
C380
FF00
FE00
ENDCHAR
STARTCHAR 0184
ENCODING 388
SWIDTH 585 0
DWIDTH 13 0
BBX 11 17 1 0
BITMAP
2000
E000
E000
6000
6000
7F00
7F80
61C0
60C0
6060
6060
6060
6060
60C0
61C0
7F80
7F00
ENDCHAR
STARTCHAR 0185
ENCODING 389
SWIDTH 630 0
DWIDTH 14 0
BBX 12 15 1 0
BITMAP
2000
E000
E000
6000
6000
7F80
7FC0
60E0
6070
6030
6030
6070
60E0
7FC0
7F80
ENDCHAR
STARTCHAR 0186
ENCODING 390
SWIDTH 630 0
DWIDTH 14 0
BBX 11 15 1 0
BITMAP
7E00
FF80
83C0
00C0
00E0
0060
0060
0060
0060
0060
00E0
00C0
83C0
FF80
7E00
ENDCHAR
STARTCHAR 0187
ENCODING 391
SWIDTH 675 0
DWIDTH 15 0
BBX 15 17 1 0
BITMAP
001E
001E
07F0
1FF0
3820
7000
6000
E000
E000
E000
E000
E000
6000
7000
3810
1FF0
07E0
ENDCHAR
STARTCHAR 0188
ENCODING 392
SWIDTH 495 0
DWIDTH 11 0
BBX 11 14 1 0
BITMAP
00E0
01E0
1F80
3F00
7000
6000
C000
C000
C000
C000
E000
7000
3F80
1F80
ENDCHAR
STARTCHAR 0189
ENCODING 393
SWIDTH 720 0
DWIDTH 16 0
BBX 15 15 0 0
BITMAP
3FC0
3FF0
3078
301C
300C
300E
FE0E
FE0E
300E
300E
300C
301C
3078
3FF0
3FC0
ENDCHAR
STARTCHAR 018A
ENCODING 394
SWIDTH 810 0
DWIDTH 18 0
BBX 17 15 0 0
BITMAP
1FF000
7FFC00
EC1E00
CC0700
CC0300
0C0300
0C0380
0C0380
0C0380
0C0300
0C0300
0C0700
0C1E00
0FFC00
0FF000
ENDCHAR
STARTCHAR 018B
ENCODING 395
SWIDTH 630 0
DWIDTH 14 0
BBX 11 15 1 0
BITMAP
7FE0
7FE0
0060
0060
0060
1FE0
7FE0
7060
E060
C060
C060
E060
7060
7FE0
1FE0
ENDCHAR
STARTCHAR 018C
ENCODING 396
SWIDTH 585 0
DWIDTH 13 0
BBX 10 17 1 0
BITMAP
7FC0
7FC0
00C0
00C0
00C0
1FC0
3FC0
70C0
E0C0
C0C0
C0C0
C0C0
C0C0
60C0
70C0
3FC0
1FC0
ENDCHAR
STARTCHAR 018D
ENCODING 397
SWIDTH 585 0
DWIDTH 13 0
BBX 11 16 1 -4
BITMAP
1F00
3F80
71C0
E0C0
C060
C060
C0E0
E0C0
71C0
3F80
1E00
0700
0180
4180
7F00
7E00
ENDCHAR
STARTCHAR 018E
ENCODING 398
SWIDTH 585 0
DWIDTH 13 0
BBX 10 15 1 0
BITMAP
FFC0
FFC0
00C0
00C0
00C0
00C0
7FC0
7FC0
00C0
00C0
00C0
00C0
00C0
FFC0
FFC0
ENDCHAR
STARTCHAR 018F
ENCODING 399
SWIDTH 720 0
DWIDTH 16 0
BBX 13 15 1 0
BITMAP
3F80
7FE0
20F0
0030
0038
0018
0018
FFF8
FFF8
C018
6018
6030
7070
3FE0
0F80
ENDCHAR
STARTCHAR 0190
ENCODING 400
SWIDTH 585 0
DWIDTH 13 0
BBX 11 15 1 0
BITMAP
1F80
3FC0
7040
6000
6000
7000
1F00
3F00
7000
E000
C000
E000
7040
7FE0
1FC0
ENDCHAR
STARTCHAR 0191
ENCODING 401
SWIDTH 540 0
DWIDTH 12 0
BBX 12 19 -1 -4
BITMAP
1FF0
1FF0
1800
1800
1800
1800
1FE0
1FE0
1800
1800
1800
1800
1800
1800
1800
1800
1800
7800
F000
ENDCHAR
STARTCHAR 0192
ENCODING 402
SWIDTH 360 0
DWIDTH 8 0
BBX 10 21 -1 -4
BITMAP
07C0
0F80
1800
1800
1800
1F80
1F80
1800
1800
1800
1800
1800
1800
1800
1800
1800
1800
1800
3800
F000
E000
ENDCHAR
STARTCHAR 0193
ENCODING 403
SWIDTH 675 0
DWIDTH 15 0
BBX 15 17 1 0
BITMAP
001E
001E
07F0
1FF0
3810
7000
6000
E000
E000
E000
E030
E030
6030
7030
3830
1FF0
07F0
ENDCHAR
STARTCHAR 0194
ENCODING 404
SWIDTH 630 0
DWIDTH 14 0
BBX 14 19 0 -4
BITMAP
E00C
6018
7018
3030
3830
1860
0C60
0CC0
07C0
0780
0300
0300
0780
0680
0CC0
0CC0
0CC0
0FC0
0780
ENDCHAR
STARTCHAR 0195
ENCODING 405
SWIDTH 900 0
DWIDTH 20 0
BBX 16 17 2 0
BITMAP
C000
C000
C000
C000
C000
FE03
FF03
C303
C383
C183
C183
C183
C183
C183
C1C7
C0FE
C07C
ENDCHAR
STARTCHAR 0196
ENCODING 406
SWIDTH 360 0
DWIDTH 8 0
BBX 6 15 2 0
BITMAP
C0
C0
C0
C0
C0
C0
C0
C0
C0
C0
C0
C0
E0
FC
7C
ENDCHAR
STARTCHAR 0197
ENCODING 407
SWIDTH 315 0
DWIDTH 7 0
BBX 7 15 0 0
BITMAP
18
18
18
18
18
18
FE
FE
18
18
18
18
18
18
18
ENDCHAR
STARTCHAR 0198
ENCODING 408
SWIDTH 675 0
DWIDTH 15 0
BBX 12 15 2 0
BITMAP
C0F0
C1F0
C310
C600
CC00
DC00
F800
F800
FC00
DE00
CF00
C380
C1C0
C0E0
C070
ENDCHAR
STARTCHAR 0199
ENCODING 409
SWIDTH 495 0
DWIDTH 11 0
BBX 9 17 2 0
BITMAP
7000
F000
C000
C000
C000
C300
C600
CE00
DC00
F800
F000
F800
DC00
CE00
C700
C300
C380
ENDCHAR
STARTCHAR 019A
ENCODING 410
SWIDTH 270 0
DWIDTH 6 0
BBX 6 17 0 0
BITMAP
30
30
30
30
30
30
30
FC
FC
30
30
30
30
30
30
3C
1C
ENDCHAR
STARTCHAR 019B
ENCODING 411
SWIDTH 495 0
DWIDTH 11 0
BBX 11 17 0 0
BITMAP
7000
7800
1F80
3F00
3C00
0600
0E00
0F00
1B00
1B00
1980
3180
3180
60C0
60C0
60C0
E060
ENDCHAR
STARTCHAR 019C
ENCODING 412
SWIDTH 945 0
DWIDTH 21 0
BBX 18 15 2 0
BITMAP
C0C1C0
C0C1C0
C0C1C0
C0C1C0
C0C1C0
C0C1C0
C0C1C0
C0C1C0
C0C1C0
C0C1C0
C0C1C0
C0C1C0
E1E1C0
7FFFC0
3E3F80
ENDCHAR
STARTCHAR 019D
ENCODING 413
SWIDTH 720 0
DWIDTH 16 0
BBX 15 19 -1 -4
BITMAP
1806
1C06
1E06
1F06
1B06
1986
18C6
18E6
1866
1836
183E
181E
180E
180E
1806
1800
1800
7800
F000
ENDCHAR
STARTCHAR 019E
ENCODING 414
SWIDTH 585 0
DWIDTH 13 0
BBX 9 16 2 -4
BITMAP
FE00
FF00
C380
C180
C180
C180
C180
C180
C180
C180
C180
C180
0180
0180
0180
0180
ENDCHAR
STARTCHAR 019F
ENCODING 415
SWIDTH 765 0
DWIDTH 17 0
BBX 15 15 1 0
BITMAP
07C0
1FF0
3838
701C
600C
E00E
FFFE
FFFE
E00E
E00E
600C
701C
3838
1FF0
07C0
ENDCHAR
STARTCHAR 01A0
ENCODING 416
SWIDTH 765 0
DWIDTH 17 0
BBX 15 17 1 0
BITMAP
0006
0006
07C6
1FFC
3838
701C
600C
E00E
E006
E006
E006
E00E
600C
701C
3838
1FF0
07C0
ENDCHAR
STARTCHAR 01A1
ENCODING 417
SWIDTH 585 0
DWIDTH 13 0
BBX 12 14 1 0
BITMAP
0030
0030
1F60
3FE0
71C0
60C0
C060
C060
C060
C060
60C0
71C0
3F80
1F00
ENDCHAR
STARTCHAR 01A2
ENCODING 418
SWIDTH 1035 0
DWIDTH 23 0
BBX 20 15 1 0
BITMAP
07C7C0
1FFFE0
387860
701870
601C70
E00C70
E00C70
E00C70
E00C70
E00C70
601C70
701870
387870
1FF070
0FC070
ENDCHAR
STARTCHAR 01A3
ENCODING 419
SWIDTH 810 0
DWIDTH 18 0
BBX 15 16 1 -4
BITMAP
1F7C
3FFE
71C6
60C6
C0C6
C0E6
C0E6
C0C6
60C6
71C6
3F86
1F06
0006
0006
0006
0006
ENDCHAR
STARTCHAR 01A4
ENCODING 420
SWIDTH 720 0
DWIDTH 16 0
BBX 15 15 0 0
BITMAP
1FF0
7FFC
6C1C
CC0E
CC06
0C0E
0C1C
0FFC
0FF0
0C00
0C00
0C00
0C00
0C00
0C00
ENDCHAR
STARTCHAR 01A5
ENCODING 421
SWIDTH 585 0
DWIDTH 13 0
BBX 10 21 2 -4
BITMAP
7000
F000
C000
C000
C000
FE00
FF00
C380
C180
C0C0
C0C0
C0C0
C0C0
C180
C380
FF00
FE00
C000
C000
C000
C000
ENDCHAR
STARTCHAR 01A6
ENCODING 422
SWIDTH 630 0
DWIDTH 14 0
BBX 12 19 2 -2
BITMAP
C000
C000
FF00
FF80
C1C0
C0C0
C0E0
C0C0
C1C0
FF80
FF00
C300
C380
C180
C0C0
C0E0
C060
0070
0030
ENDCHAR
STARTCHAR 01A7
ENCODING 423
SWIDTH 540 0
DWIDTH 12 0
BBX 10 15 1 0
BITMAP
7E00
7F80
4180
01C0
01C0
0180
0780
3F00
7800
E000
C000
C000
E0C0
7FC0
3F80
ENDCHAR
STARTCHAR 01A8
ENCODING 424
SWIDTH 450 0
DWIDTH 10 0
BBX 8 12 1 0
BITMAP
FC
7E
07
03
07
3E
78
E0
C0
C1
FF
3F
ENDCHAR
STARTCHAR 01A9
ENCODING 425
SWIDTH 540 0
DWIDTH 12 0
BBX 11 15 1 0
BITMAP
FFC0
FFC0
6000
3000
1800
1C00
0E00
0600
0C00
1800
3000
6000
E000
FFE0
FFE0
ENDCHAR
STARTCHAR 01AA
ENCODING 426
SWIDTH 270 0
DWIDTH 6 0
BBX 8 21 -2 -4
BITMAP
78
FC
CC
CE
CE
FE
7E
0E
0E
0E
0E
0E
0E
0E
0E
0E
0E
0E
06
07
03
ENDCHAR
STARTCHAR 01AB
ENCODING 427
SWIDTH 405 0
DWIDTH 9 0
BBX 6 20 2 -4
BITMAP
C0
C0
C0
C0
FC
FC
C0
C0
C0
C0
C0
C0
C0
C0
FC
7C
04
0C
3C
38
ENDCHAR
STARTCHAR 01AC
ENCODING 428
SWIDTH 585 0
DWIDTH 13 0
BBX 13 15 0 0
BITMAP
3FF8
7FF8
E300
C300
C300
0300
0300
0300
0300
0300
0300
0300
0300
0300
0300
ENDCHAR
STARTCHAR 01AD
ENCODING 429
SWIDTH 405 0
DWIDTH 9 0
BBX 7 17 2 0
BITMAP
3E
FC
C0
C0
C0
FC
FC
C0
C0
C0
C0
C0
C0
C0
C0
FC
7C
ENDCHAR
STARTCHAR 01AE
ENCODING 430
SWIDTH 540 0
DWIDTH 12 0
BBX 12 19 0 -4
BITMAP
FFF0
FFF0
0600
0600
0600
0600
0600
0600
0600
0600
0600
0600
0600
0600
0600
0600
0700
03C0
03C0
ENDCHAR
STARTCHAR 01AF
ENCODING 431
SWIDTH 720 0
DWIDTH 16 0
BBX 14 17 2 0
BITMAP
000C
000C
C07C
C078
C060
C060
C060
C060
C060
C060
C060
C060
C060
E060
70E0
7FC0
1F00
ENDCHAR
STARTCHAR 01B0
ENCODING 432
SWIDTH 585 0
DWIDTH 13 0
BBX 12 14 2 0
BITMAP
0030
0070
C1E0
C1C0
C180
C180
C180
C180
C180
C180
C180
E180
7F80
3F80
ENDCHAR
STARTCHAR 01B1
ENCODING 433
SWIDTH 765 0
DWIDTH 17 0
BBX 15 15 1 0
BITMAP
FC7E
FC7E
1830
3018
700C
600C
600E
6006
600E
600E
600C
701C
3838
1FF0
07C0
ENDCHAR
STARTCHAR 01B2
ENCODING 434
SWIDTH 675 0
DWIDTH 15 0
BBX 12 15 2 0
BITMAP
C380
C3C0
C0E0
C060
C070
C030
C030
C030
C030
C070
C060
E060
E0C0
7FC0
1F00
ENDCHAR
STARTCHAR 01B3
ENCODING 435
SWIDTH 675 0
DWIDTH 15 0
BBX 15 15 0 0
BITMAP
E01C
603E
3070
3060
18C0
1DC0
0D80
0700
0700
0300
0300
0300
0300
0300
0300
ENDCHAR
STARTCHAR 01B4
ENCODING 436
SWIDTH 585 0
DWIDTH 13 0
BBX 12 16 0 -4
BITMAP
E070
60F0
60C0
70C0
3180
3180
3980
1B00
1B00
0F00
0E00
0600
0600
0C00
F800
F000
ENDCHAR
STARTCHAR 01B5
ENCODING 437
SWIDTH 585 0
DWIDTH 13 0
BBX 11 15 1 0
BITMAP
FFE0
FFE0
01C0
0380
0300
0600
7FC0
7FC0
1800
3800
3000
6000
E000
FFE0
FFE0
ENDCHAR
STARTCHAR 01B6
ENCODING 438
SWIDTH 450 0
DWIDTH 10 0
BBX 9 12 1 0
BITMAP
FF00
FF00
0700
0600
0C00
FF00
FF00
3000
6000
E000
FF80
FF80
ENDCHAR
STARTCHAR 01B7
ENCODING 439
SWIDTH 540 0
DWIDTH 12 0
BBX 10 15 1 0
BITMAP
FFC0
FFC0
0180
0300
0600
0C00
1F00
1F80
01C0
00C0
00C0
00C0
81C0
FF80
7F00
ENDCHAR
STARTCHAR 01B8
ENCODING 440
SWIDTH 540 0
DWIDTH 12 0
BBX 11 15 1 0
BITMAP
FFC0
FFC0
7000
3800
1C00
0E00
1E00
7E00
7000
E000
C000
E000
6040
7FE0
1FC0
ENDCHAR
STARTCHAR 01B9
ENCODING 441
SWIDTH 450 0
DWIDTH 10 0
BBX 9 16 1 -4
BITMAP
FF80
FF80
6000
3000
1800
0C00
1E00
7E00
E000
C000
C000
C000
C000
E000
7F80
1F80
ENDCHAR
STARTCHAR 01BA
ENCODING 442
SWIDTH 450 0
DWIDTH 10 0
BBX 9 16 0 -4
BITMAP
FF80
FF80
0300
0600
0C00
1E00
1F80
0380
0180
0180
0180
1F80
7F00
E000
C000
C000
ENDCHAR
STARTCHAR 01BB
ENCODING 443
SWIDTH 540 0
DWIDTH 12 0
BBX 10 15 1 0
BITMAP
3E00
FF00
C380
0180
0180
0380
0300
7F80
7F80
1800
3000
6000
6000
FFC0
FFC0
ENDCHAR
STARTCHAR 01BC
ENCODING 444
SWIDTH 540 0
DWIDTH 12 0
BBX 10 15 1 0
BITMAP
FFC0
FFC0
3000
2000
2000
7C00
7F00
0380
01C0
00C0
00C0
00C0
81C0
FF80
7E00
ENDCHAR
STARTCHAR 01BD
ENCODING 445
SWIDTH 495 0
DWIDTH 11 0
BBX 9 12 1 0
BITMAP
FF00
FF00
6000
6000
7E00
7F00
0380
0180
0180
8380
FF00
FE00
ENDCHAR
STARTCHAR 01BE
ENCODING 446
SWIDTH 450 0
DWIDTH 10 0
BBX 8 15 1 0
BITMAP
60
60
60
7E
7E
60
60
70
7C
1F
03
03
83
FF
FC
ENDCHAR
STARTCHAR 01BF
ENCODING 447
SWIDTH 585 0
DWIDTH 13 0
BBX 9 16 2 -4
BITMAP
7E00
FF00
C380
C180
C180
C180
C180
C180
C380
C700
DE00
F800
E000
C000
C000
C000
ENDCHAR
STARTCHAR 01C0
ENCODING 448
SWIDTH 270 0
DWIDTH 6 0
BBX 2 21 2 -4
BITMAP
C0
C0
C0
C0
C0
C0
C0
C0
C0
C0
C0
C0
C0
C0
C0
C0
C0
C0
C0
C0
C0
ENDCHAR
STARTCHAR 01C1
ENCODING 449
SWIDTH 495 0
DWIDTH 11 0
BBX 7 21 2 -4
BITMAP
C6
C6
C6
C6
C6
C6
C6
C6
C6
C6
C6
C6
C6
C6
C6
C6
C6
C6
C6
C6
C6
ENDCHAR
STARTCHAR 01C2
ENCODING 450
SWIDTH 585 0
DWIDTH 13 0
BBX 11 21 1 -4
BITMAP
0C00
0C00
0C00
0C00
0C00
0C00
0C00
FFE0
FFE0
0C00
0C00
0C00
FFE0
FFE0
0C00
0C00
0C00
0C00
0C00
0C00
0C00
ENDCHAR
STARTCHAR 01C3
ENCODING 451
SWIDTH 270 0
DWIDTH 6 0
BBX 3 15 2 0
BITMAP
C0
C0
C0
C0
C0
C0
C0
C0
C0
C0
00
00
C0
E0
C0
ENDCHAR
STARTCHAR 01C4
ENCODING 452
SWIDTH 1260 0
DWIDTH 28 0
BBX 26 20 2 0
BITMAP
00002200
00003600
00001C00
00000800
00000000
FF01FF80
FFC1FF80
C1E00380
C0600700
C0700E00
C0300C00
C0301800
C0303800
C0303000
C0306000
C070E000
C060C000
C1E18000
FFC3FFC0
FF03FFC0
ENDCHAR
STARTCHAR 01C5
ENCODING 453
SWIDTH 1170 0
DWIDTH 26 0
BBX 23 17 2 0
BITMAP
000088
0000D8
FF0070
FFC020
C1E000
C061FE
C071FE
C0300E
C0301C
C03038
C03030
C03060
C070E0
C060C0
C1E180
FFC1FE
FF01FE
ENDCHAR
STARTCHAR 01C6
ENCODING 454
SWIDTH 1035 0
DWIDTH 23 0
BBX 22 17 1 0
BITMAP
00C110
00C1B0
00C0E0
00C040
00C000
1FC7F8
3FC7F8
70C038
E0C030
C0C060
C0C0C0
C0C1C0
C0C380
60C300
70C700
3FC7FC
1FC7FC
ENDCHAR
STARTCHAR 01C7
ENCODING 455
SWIDTH 990 0
DWIDTH 22 0
BBX 19 15 2 0
BITMAP
C00060
C00060
C00060
C00060
C00060
C00060
C00060
C00060
C00060
C00060
C00060
C000E0
C020C0
FFBFC0
FF9F00
ENDCHAR
STARTCHAR 01C8
ENCODING 456
SWIDTH 765 0
DWIDTH 17 0
BBX 13 20 2 -4
BITMAP
0018
C018
C000
C000
C018
C018
C018
C018
C018
C018
C018
C018
C018
C018
FF98
FF98
0018
0018
00F8
00F0
ENDCHAR
STARTCHAR 01C9
ENCODING 457
SWIDTH 540 0
DWIDTH 12 0
BBX 8 21 2 -4
BITMAP
C0
C3
C3
C0
C0
C3
C3
C3
C3
C3
C3
C3
C3
C3
C3
E3
63
03
07
1E
1C
ENDCHAR
STARTCHAR 01CA
ENCODING 458
SWIDTH 1215 0
DWIDTH 27 0
BBX 23 15 2 0
BITMAP
C03006
E03006
F03006
F83006
D83006
CC3006
C63006
C73006
C33006
C1B006
C1F006
C0F006
C0710E
C073FC
C030F8
ENDCHAR
STARTCHAR 01CB
ENCODING 459
SWIDTH 990 0
DWIDTH 22 0
BBX 18 20 2 -4
BITMAP
0000C0
C030C0
E03000
F03000
F830C0
D830C0
CC30C0
C630C0
C730C0
C330C0
C1B0C0
C1F0C0
C0F0C0
C070C0
C070C0
C030C0
0000C0
0001C0
000780
000700
ENDCHAR
STARTCHAR 01CC
ENCODING 460
SWIDTH 810 0
DWIDTH 18 0
BBX 15 20 2 -4
BITMAP
000E
000E
0000
0000
FE0E
FF0E
C38E
C18E
C18E
C18E
C18E
C18E
C18E
C18E
C18E
C18E
000C
000C
007C
0078
ENDCHAR
STARTCHAR 01CD
ENCODING 461
SWIDTH 675 0
DWIDTH 15 0
BBX 14 20 0 0
BITMAP
0440
06C0
0380
0100
0000
0380
0380
0780
06C0
0CC0
0C60
1860
1870
1830
3FF0
3FF8
7018
6018
600C
E00C
ENDCHAR
STARTCHAR 01CE
ENCODING 462
SWIDTH 495 0
DWIDTH 11 0
BBX 9 17 1 0
BITMAP
2200
3600
1C00
0800
0000
7E00
7F00
0380
0180
3F80
7F80
E180
C180
C180
E180
7F80
3F80
ENDCHAR
STARTCHAR 01CF
ENCODING 463
SWIDTH 270 0
DWIDTH 6 0
BBX 6 20 0 0
BITMAP
84
48
30
20
00
30
30
30
30
30
30
30
30
30
30
30
30
30
30
30
ENDCHAR
STARTCHAR 01D0
ENCODING 464
SWIDTH 270 0
DWIDTH 6 0
BBX 5 17 0 0
BITMAP
88
D8
70
20
00
30
30
30
30
30
30
30
30
30
30
30
30
ENDCHAR
STARTCHAR 01D1
ENCODING 465
SWIDTH 765 0
DWIDTH 17 0
BBX 15 20 1 0
BITMAP
0440
06C0
0380
0100
0000
07C0
1FF0
3838
701C
600C
E00E
E006
E006
E006
E00E
600C
701C
3838
1FF0
07C0
ENDCHAR
STARTCHAR 01D2
ENCODING 466
SWIDTH 585 0
DWIDTH 13 0
BBX 11 17 1 0
BITMAP
1100
1B00
0E00
0400
0000
1F00
3F80
71C0
60C0
C060
C060
C060
C060
60C0
71C0
3F80
1F00
ENDCHAR
STARTCHAR 01D3
ENCODING 467
SWIDTH 675 0
DWIDTH 15 0
BBX 11 20 2 0
BITMAP
1100
1B00
0E00
0400
0000
C060
C060
C060
C060
C060
C060
C060
C060
C060
C060
C060
E060
70E0
7FC0
1F00
ENDCHAR
STARTCHAR 01D4
ENCODING 468
SWIDTH 585 0
DWIDTH 13 0
BBX 9 17 2 0
BITMAP
2200
3600
1C00
0800
0000
C180
C180
C180
C180
C180
C180
C180
C180
C180
E180
7F80
3F80
ENDCHAR
STARTCHAR 01D5
ENCODING 469
SWIDTH 675 0
DWIDTH 15 0
BBX 11 22 2 0
BITMAP
1F00
1F00
0000
3180
3180
0000
0000
C060
C060
C060
C060
C060
C060
C060
C060
C060
C060
C060
E060
70E0
7FC0
1F00
ENDCHAR
STARTCHAR 01D6
ENCODING 470
SWIDTH 585 0
DWIDTH 13 0
BBX 9 18 2 0
BITMAP
7E00
7E00
0000
6700
6700
0000
C180
C180
C180
C180
C180
C180
C180
C180
C180
E180
7F80
3F80
ENDCHAR
STARTCHAR 01D7
ENCODING 471
SWIDTH 675 0
DWIDTH 15 0
BBX 11 21 2 0
BITMAP
0200
0600
0600
34C0
30C0
0000
C060
C060
C060
C060
C060
C060
C060
C060
C060
C060
C060
E060
70E0
7FC0
1F00
ENDCHAR
STARTCHAR 01D8
ENCODING 472
SWIDTH 585 0
DWIDTH 13 0
BBX 9 19 2 0
BITMAP
0400
0C00
0C00
0800
6300
6300
0000
C180
C180
C180
C180
C180
C180
C180
C180
C180
E180
7F80
3F80
ENDCHAR
STARTCHAR 01D9
ENCODING 473
SWIDTH 675 0
DWIDTH 15 0
BBX 11 20 2 0
BITMAP
1900
0F00
34C0
30C0
0000
C060
C060
C060
C060
C060
C060
C060
C060
C060
C060
C060
E060
70E0
7FC0
1F00
ENDCHAR
STARTCHAR 01DA
ENCODING 474
SWIDTH 585 0
DWIDTH 13 0
BBX 9 18 2 0
BITMAP
2600
3C00
0800
6300
6300
0000
C180
C180
C180
C180
C180
C180
C180
C180
C180
E180
7F80
3F80
ENDCHAR
STARTCHAR 01DB
ENCODING 475
SWIDTH 675 0
DWIDTH 15 0
BBX 11 21 2 0
BITMAP
0800
0C00
0400
34C0
30C0
0000
C060
C060
C060
C060
C060
C060
C060
C060
C060
C060
C060
E060
70E0
7FC0
1F00
ENDCHAR
STARTCHAR 01DC
ENCODING 476
SWIDTH 585 0
DWIDTH 13 0
BBX 9 19 2 0
BITMAP
1000
3000
1800
0800
6300
6300
0000
C180
C180
C180
C180
C180
C180
C180
C180
C180
E180
7F80
3F80
ENDCHAR
STARTCHAR 01DD
ENCODING 477
SWIDTH 540 0
DWIDTH 12 0
BBX 10 12 1 0
BITMAP
7E00
7F80
0180
00C0
00C0
FFC0
FFC0
C0C0
E1C0
6180
7F80
1E00
ENDCHAR
STARTCHAR 01DE
ENCODING 478
SWIDTH 675 0
DWIDTH 15 0
BBX 14 22 0 0
BITMAP
0FC0
0FC0
0000
0CE0
0CE0
0000
0000
0380
0380
0780
06C0
0CC0
0C60
1860
1870
1830
3FF0
3FF8
7018
6018
600C
E00C
ENDCHAR
STARTCHAR 01DF
ENCODING 479
SWIDTH 495 0
DWIDTH 11 0
BBX 9 18 1 0
BITMAP
3F00
3F00
0000
3300
3300
0000
7E00
7F00
0380
0180
3F80
7F80
E180
C180
C180
E180
7F80
3F80
ENDCHAR
STARTCHAR 01E0
ENCODING 480
SWIDTH 675 0
DWIDTH 15 0
BBX 14 22 0 0
BITMAP
0FC0
0FC0
0000
0300
0300
0000
0000
0380
0380
0780
06C0
0CC0
0C60
1860
1870
1830
3FF0
3FF8
7018
6018
600C
E00C
ENDCHAR
STARTCHAR 01E1
ENCODING 481
SWIDTH 495 0
DWIDTH 11 0
BBX 9 18 1 0
BITMAP
3F00
3F00
0000
0C00
0C00
0000
7E00
7F00
0380
0180
3F80
7F80
E180
C180
C180
E180
7F80
3F80
ENDCHAR
STARTCHAR 01E2
ENCODING 482
SWIDTH 945 0
DWIDTH 21 0
BBX 20 19 0 0
BITMAP
003F00
003F00
000000
000000
007FE0
00FFE0
00F800
01B800
033800
033800
063FC0
0C3FC0
0C3800
1FF800
1FF800
303800
303800
603FF0
E03FF0
ENDCHAR
STARTCHAR 01E3
ENCODING 483
SWIDTH 855 0
DWIDTH 19 0
BBX 17 16 1 0
BITMAP
07E000
07E000
000000
000000
7E3C00
7F7F00
03C300
018180
3FFF80
7FFF80
E18000
C18000
C1C000
E1E000
7FFF00
3E3F00
ENDCHAR
STARTCHAR 01E4
ENCODING 484
SWIDTH 675 0
DWIDTH 15 0
BBX 14 15 1 0
BITMAP
07E0
1FF0
3810
7000
6000
E000
E000
E030
E0FC
E0FC
6030
7030
3830
1FF0
07F0
ENDCHAR
STARTCHAR 01E5
ENCODING 485
SWIDTH 585 0
DWIDTH 13 0
BBX 12 16 1 -4
BITMAP
1FC0
3FC0
70C0
60C0
C0C0
C7F0
C7F0
C0C0
E0C0
71C0
3FC0
1EC0
00C0
01C0
7F80
7F00
ENDCHAR
STARTCHAR 01E6
ENCODING 486
SWIDTH 675 0
DWIDTH 15 0
BBX 12 20 1 0
BITMAP
0440
06C0
0380
0100
0000
07E0
1FF0
3810
7000
6000
E000
E000
E000
E030
E030
6030
7030
3830
1FF0
07F0
ENDCHAR
STARTCHAR 01E7
ENCODING 487
SWIDTH 585 0
DWIDTH 13 0
BBX 10 21 1 -4
BITMAP
1100
1B00
0E00
0400
0000
1FC0
3FC0
70C0
60C0
C0C0
C0C0
C0C0
C0C0
E0C0
71C0
3FC0
1EC0
00C0
01C0
7F80
7E00
ENDCHAR
STARTCHAR 01E8
ENCODING 488
SWIDTH 630 0
DWIDTH 14 0
BBX 11 20 2 0
BITMAP
2100
1200
0C00
0400
0000
C0E0
C1C0
C380
C700
CE00
DC00
F800
F000
FC00
DE00
CF00
C380
C1C0
C0E0
C060
ENDCHAR
STARTCHAR 01E9
ENCODING 489
SWIDTH 495 0
DWIDTH 11 0
BBX 10 21 1 0
BITMAP
C800
7800
3000
0000
6000
6000
6000
6000
6000
6180
6300
6700
6E00
7C00
7800
7C00
6E00
6700
6380
6180
61C0
ENDCHAR
STARTCHAR 01EA
ENCODING 490
SWIDTH 765 0
DWIDTH 17 0
BBX 15 18 1 -3
BITMAP
07C0
1FF0
3838
701C
600C
E00E
E006
E006
E006
E00E
600C
701C
3838
1FF0
07C0
0180
0100
01C0
ENDCHAR
STARTCHAR 01EB
ENCODING 491
SWIDTH 585 0
DWIDTH 13 0
BBX 11 15 1 -3
BITMAP
1F00
3F80
71C0
60C0
C060
C060
C060
C060
60C0
71C0
3F80
1F00
0C00
0C00
0F00
ENDCHAR
STARTCHAR 01EC
ENCODING 492
SWIDTH 765 0
DWIDTH 17 0
BBX 15 22 1 -3
BITMAP
0FE0
0FE0
0000
0000
07C0
1FF0
3838
701C
600C
E00E
E006
E006
E006
E00E
600C
701C
3838
1FF0
07C0
0180
0100
01C0
ENDCHAR
STARTCHAR 01ED
ENCODING 493
SWIDTH 585 0
DWIDTH 13 0
BBX 11 19 1 -3
BITMAP
3F80
3F80
0000
0000
1F00
3F80
71C0
60C0
C060
C060
C060
C060
60C0
71C0
3F80
1F00
0C00
0C00
0F00
ENDCHAR
STARTCHAR 01EE
ENCODING 494
SWIDTH 540 0
DWIDTH 12 0
BBX 10 20 1 0
BITMAP
1100
1B00
0E00
0400
0000
FFC0
FFC0
0180
0300
0600
0C00
1F00
1F80
01C0
00C0
00C0
00C0
81C0
FF80
7F00
ENDCHAR
STARTCHAR 01EF
ENCODING 495
SWIDTH 450 0
DWIDTH 10 0
BBX 9 21 0 -4
BITMAP
2200
3600
1C00
0800
0000
FF80
FF80
0300
0700
0600
0C00
1800
1E00
0380
0180
0180
0180
0180
8380
FF00
FE00
ENDCHAR
STARTCHAR 01F0
ENCODING 496
SWIDTH 270 0
DWIDTH 6 0
BBX 6 21 -1 -4
BITMAP
44
6C
38
10
00
18
18
18
18
18
18
18
18
18
18
18
18
18
38
F0
E0
ENDCHAR
STARTCHAR 01F1
ENCODING 497
SWIDTH 1260 0
DWIDTH 28 0
BBX 26 15 2 0
BITMAP
FF01FF80
FFC1FF80
C1E00380
C0600700
C0700E00
C0300C00
C0301800
C0303800
C0303000
C0306000
C070E000
C060C000
C1E18000
FFC3FFC0
FF03FFC0
ENDCHAR
STARTCHAR 01F2
ENCODING 498
SWIDTH 1170 0
DWIDTH 26 0
BBX 23 15 2 0
BITMAP
FF0000
FFC000
C1E000
C061FE
C071FE
C0300E
C0301C
C03038
C03030
C03060
C070E0
C060C0
C1E180
FFC1FE
FF01FE
ENDCHAR
STARTCHAR 01F3
ENCODING 499
SWIDTH 1035 0
DWIDTH 23 0
BBX 22 17 1 0
BITMAP
00C000
00C000
00C000
00C000
00C000
1FC7F8
3FC7F8
70C038
E0C030
C0C060
C0C0C0
C0C1C0
C0C380
60C300
70C700
3FC7FC
1FC7FC
ENDCHAR
STARTCHAR 01F4
ENCODING 500
SWIDTH 675 0
DWIDTH 15 0
BBX 12 20 1 0
BITMAP
0080
01C0
0300
0200
0000
07E0
1FF0
3810
7000
6000
E000
E000
E000
E030
E030
6030
7030
3830
1FF0
07F0
ENDCHAR
STARTCHAR 01F5
ENCODING 501
SWIDTH 585 0
DWIDTH 13 0
BBX 10 21 1 -4
BITMAP
0200
0700
0E00
0400
0000
1FC0
3FC0
70C0
60C0
C0C0
C0C0
C0C0
C0C0
E0C0
71C0
3FC0
1EC0
00C0
01C0
7F80
7E00
ENDCHAR
STARTCHAR 01F6
ENCODING 502
SWIDTH 1035 0
DWIDTH 23 0
BBX 20 15 2 0
BITMAP
C07000
C07000
C07000
C07030
C07030
C07030
FFF030
FFF030
C07030
C07070
C03070
C03060
C038E0
C01FE0
C00F80
ENDCHAR
STARTCHAR 01F7
ENCODING 503
SWIDTH 630 0
DWIDTH 14 0
BBX 11 19 2 -4
BITMAP
7F00
FFC0
C1C0
C0E0
C060
C060
C060
C060
C0E0
C0C0
C180
C700
DE00
F800
E000
C000
C000
C000
C000
ENDCHAR
STARTCHAR 01F8
ENCODING 504
SWIDTH 720 0
DWIDTH 16 0
BBX 12 20 2 0
BITMAP
0800
0C00
0600
0200
0000
C030
E030
F030
F830
D830
CC30
C630
C730
C330
C1B0
C1F0
C0F0
C070
C070
C030
ENDCHAR
STARTCHAR 01F9
ENCODING 505
SWIDTH 585 0
DWIDTH 13 0
BBX 9 17 2 0
BITMAP
3000
3000
1800
0800
0000
FE00
FF00
C380
C180
C180
C180
C180
C180
C180
C180
C180
C180
ENDCHAR
STARTCHAR 01FA
ENCODING 506
SWIDTH 675 0
DWIDTH 15 0
BBX 14 21 0 0
BITMAP
0080
0380
0300
0380
0480
0480
0380
0780
07C0
06C0
0CC0
0C60
1860
1870
1830
3FF0
3FF8
7018
6018
600C
E00C
ENDCHAR
STARTCHAR 01FB
ENCODING 507
SWIDTH 495 0
DWIDTH 11 0
BBX 9 20 1 0
BITMAP
0400
1E00
1800
1C00
1200
1200
1C00
0000
7E00
7F00
0380
0180
3F80
7F80
E180
C180
C180
E180
7F80
3F80
ENDCHAR
STARTCHAR 01FC
ENCODING 508
SWIDTH 945 0
DWIDTH 21 0
BBX 20 20 0 0
BITMAP
000600
000E00
000C00
000800
000000
007FE0
00FFE0
00F800
01B800
033800
033800
063FC0
0C3FC0
0C3800
1FF800
1FF800
303800
303800
603FF0
E03FF0
ENDCHAR
STARTCHAR 01FD
ENCODING 509
SWIDTH 855 0
DWIDTH 19 0
BBX 17 17 1 0
BITMAP
004000
00C000
018000
010000
000000
7E3C00
7F7F00
03C300
018180
3FFF80
7FFF80
E18000
C18000
C1C000
E1E000
7FFF00
3E3F00
ENDCHAR
STARTCHAR 01FE
ENCODING 510
SWIDTH 765 0
DWIDTH 17 0
BBX 15 20 1 0
BITMAP
00C0
01C0
0180
0100
0000
07C4
1FFC
3838
703C
606C
E0EE
E1CE
E386
E306
E60E
6C0C
781C
3838
7FF0
67C0
ENDCHAR
STARTCHAR 01FF
ENCODING 511
SWIDTH 585 0
DWIDTH 13 0
BBX 11 18 1 -1
BITMAP
0200
0700
0E00
0400
0000
1F40
3FC0
71C0
61C0
C360
C660
CC60
D860
70C0
71C0
7F80
5F00
4000
ENDCHAR
STARTCHAR 0200
ENCODING 512
SWIDTH 675 0
DWIDTH 15 0
BBX 14 20 0 0
BITMAP
1100
1980
0CC0
0440
0000
0380
0380
0780
06C0
0CC0
0C60
1860
1870
1830
3FF0
3FF8
7018
6018
600C
E00C
ENDCHAR
STARTCHAR 0201
ENCODING 513
SWIDTH 495 0
DWIDTH 11 0
BBX 9 17 1 0
BITMAP
4800
6C00
3600
2200
0000
7E00
7F00
0380
0180
3F80
7F80
E180
C180
C180
E180
7F80
3F80
ENDCHAR
STARTCHAR 0202
ENCODING 514
SWIDTH 675 0
DWIDTH 15 0
BBX 14 19 0 0
BITMAP
0780
07C0
0C40
0000
0380
0380
0780
06C0
0CC0
0C60
1860
1870
1830
3FF0
3FF8
7018
6018
600C
E00C
ENDCHAR
STARTCHAR 0203
ENCODING 515
SWIDTH 495 0
DWIDTH 11 0
BBX 9 16 1 0
BITMAP
1C00
3E00
2300
0000
7E00
7F00
0380
0180
3F80
7F80
E180
C180
C180
E180
7F80
3F80
ENDCHAR
STARTCHAR 0204
ENCODING 516
SWIDTH 585 0
DWIDTH 13 0
BBX 10 20 2 0
BITMAP
4400
6E00
3600
1200
0000
FF80
FF80
C000
C000
C000
C000
FF00
FF00
C000
C000
C000
C000
C000
FFC0
FFC0
ENDCHAR
STARTCHAR 0205
ENCODING 517
SWIDTH 540 0
DWIDTH 12 0
BBX 10 17 1 0
BITMAP
4400
6600
3300
1100
0000
1F00
3F80
7180
60C0
C0C0
FFC0
FFC0
C000
E000
7000
3F80
1F80
ENDCHAR
STARTCHAR 0206
ENCODING 518
SWIDTH 585 0
DWIDTH 13 0
BBX 10 19 2 0
BITMAP
1C00
3E00
2200
0000
FF80
FF80
C000
C000
C000
C000
FF00
FF00
C000
C000
C000
C000
C000
FFC0
FFC0
ENDCHAR
STARTCHAR 0207
ENCODING 519
SWIDTH 540 0
DWIDTH 12 0
BBX 10 16 1 0
BITMAP
0E00
1F00
3100
0000
1F00
3F80
7180
60C0
C0C0
FFC0
FFC0
C000
E000
7000
3F80
1F80
ENDCHAR
STARTCHAR 0208
ENCODING 520
SWIDTH 270 0
DWIDTH 6 0
BBX 6 20 -1 0
BITMAP
88
DC
6C
24
00
18
18
18
18
18
18
18
18
18
18
18
18
18
18
18
ENDCHAR
STARTCHAR 0209
ENCODING 521
SWIDTH 270 0
DWIDTH 6 0
BBX 6 17 -1 0
BITMAP
90
D8
6C
44
00
18
18
18
18
18
18
18
18
18
18
18
18
ENDCHAR
STARTCHAR 020A
ENCODING 522
SWIDTH 270 0
DWIDTH 6 0
BBX 6 19 0 0
BITMAP
78
FC
CC
00
30
30
30
30
30
30
30
30
30
30
30
30
30
30
30
ENDCHAR
STARTCHAR 020B
ENCODING 523
SWIDTH 270 0
DWIDTH 6 0
BBX 6 16 0 0
BITMAP
78
F8
8C
00
30
30
30
30
30
30
30
30
30
30
30
30
ENDCHAR
STARTCHAR 020C
ENCODING 524
SWIDTH 765 0
DWIDTH 17 0
BBX 15 20 1 0
BITMAP
0900
1980
0CC0
0440
0000
07C0
1FF0
3838
701C
600C
E00E
E006
E006
E006
E00E
600C
701C
3838
1FF0
07C0
ENDCHAR
STARTCHAR 020D
ENCODING 525
SWIDTH 585 0
DWIDTH 13 0
BBX 11 17 1 0
BITMAP
6400
6600
3300
1100
0000
1F00
3F80
71C0
60C0
C060
C060
C060
C060
60C0
71C0
3F80
1F00
ENDCHAR
STARTCHAR 020E
ENCODING 526
SWIDTH 765 0
DWIDTH 17 0
BBX 15 19 1 0
BITMAP
0380
07C0
0440
0000
07C0
1FF0
3838
701C
600C
E00E
E006
E006
E006
E00E
600C
701C
3838
1FF0
07C0
ENDCHAR
STARTCHAR 020F
ENCODING 527
SWIDTH 585 0
DWIDTH 13 0
BBX 11 16 1 0
BITMAP
0E00
1F00
1100
0000
1F00
3F80
71C0
60C0
C060
C060
C060
C060
60C0
71C0
3F80
1F00
ENDCHAR
STARTCHAR 0210
ENCODING 528
SWIDTH 630 0
DWIDTH 14 0
BBX 11 20 2 0
BITMAP
C800
CC00
6600
2200
0000
FF00
FF80
C1C0
C0C0
C0E0
C0C0
C1C0
FF80
FF00
C300
C380
C180
C0C0
C0E0
C060
ENDCHAR
STARTCHAR 0211
ENCODING 529
SWIDTH 360 0
DWIDTH 8 0
BBX 7 17 1 0
BITMAP
88
CC
6C
24
00
7E
7E
60
60
60
60
60
60
60
60
60
60
ENDCHAR
STARTCHAR 0212
ENCODING 530
SWIDTH 630 0
DWIDTH 14 0
BBX 11 19 2 0
BITMAP
1C00
3E00
2200
0000
FF00
FF80
C1C0
C0C0
C0E0
C0C0
C1C0
FF80
FF00
C300
C380
C180
C0C0
C0E0
C060
ENDCHAR
STARTCHAR 0213
ENCODING 531
SWIDTH 360 0
DWIDTH 8 0
BBX 6 16 2 0
BITMAP
78
FC
CC
00
FC
FC
C0
C0
C0
C0
C0
C0
C0
C0
C0
C0
ENDCHAR
STARTCHAR 0214
ENCODING 532
SWIDTH 675 0
DWIDTH 15 0
BBX 11 20 2 0
BITMAP
2400
6600
3300
1100
0000
C060
C060
C060
C060
C060
C060
C060
C060
C060
C060
C060
E060
70E0
7FC0
1F00
ENDCHAR
STARTCHAR 0215
ENCODING 533
SWIDTH 585 0
DWIDTH 13 0
BBX 9 17 2 0
BITMAP
8800
CC00
6600
2200
0000
C180
C180
C180
C180
C180
C180
C180
C180
C180
E180
7F80
3F80
ENDCHAR
STARTCHAR 0216
ENCODING 534
SWIDTH 675 0
DWIDTH 15 0
BBX 11 19 2 0
BITMAP
0E00
1F00
1100
0000
C060
C060
C060
C060
C060
C060
C060
C060
C060
C060
C060
E060
70E0
7FC0
1F00
ENDCHAR
STARTCHAR 0217
ENCODING 535
SWIDTH 585 0
DWIDTH 13 0
BBX 9 16 2 0
BITMAP
1C00
3E00
6200
0000
C180
C180
C180
C180
C180
C180
C180
C180
C180
E180
7F80
3F80
ENDCHAR
STARTCHAR 0218
ENCODING 536
SWIDTH 540 0
DWIDTH 12 0
BBX 10 19 1 -4
BITMAP
3F00
7F80
E080
C000
C000
E000
7800
3F00
0780
01C0
00C0
00C0
C1C0
FF80
7F00
0000
0C00
3C00
3800
ENDCHAR
STARTCHAR 0219
ENCODING 537
SWIDTH 450 0
DWIDTH 10 0
BBX 8 16 1 -4
BITMAP
3E
7E
C0
C0
E0
7C
3E
07
03
83
FE
FC
00
18
78
70
ENDCHAR
STARTCHAR 021A
ENCODING 538
SWIDTH 540 0
DWIDTH 12 0
BBX 12 19 0 -4
BITMAP
FFF0
FFF0
0600
0600
0600
0600
0600
0600
0600
0600
0600
0600
0600
0600
0600
0000
0600
0E00
0C00
ENDCHAR
STARTCHAR 021B
ENCODING 539
SWIDTH 405 0
DWIDTH 9 0
BBX 6 20 2 -4
BITMAP
C0
C0
C0
C0
FC
FC
C0
C0
C0
C0
C0
C0
C0
C0
FC
7C
00
30
70
60
ENDCHAR
STARTCHAR 021C
ENCODING 540
SWIDTH 540 0
DWIDTH 12 0
BBX 10 19 1 -4
BITMAP
FC00
FF00
8300
0380
0180
0180
0380
0700
3E00
3F00
0780
0180
01C0
01C0
0180
0380
0700
FE00
F800
ENDCHAR
STARTCHAR 021D
ENCODING 541
SWIDTH 450 0
DWIDTH 10 0
BBX 9 16 0 -4
BITMAP
7C00
FE00
0700
0300
0300
0600
3C00
3E00
0700
0380
0180
0380
0300
0F00
FC00
F000
ENDCHAR
STARTCHAR 021E
ENCODING 542
SWIDTH 720 0
DWIDTH 16 0
BBX 12 20 2 0
BITMAP
1100
1B00
0E00
0400
0000
C070
C070
C070
C070
C070
C070
FFF0
FFF0
C070
C070
C070
C070
C070
C070
C070
ENDCHAR
STARTCHAR 021F
ENCODING 543
SWIDTH 585 0
DWIDTH 13 0
BBX 10 21 1 0
BITMAP
C800
7800
3000
0000
6000
6000
6000
6000
6000
7F00
7F80
61C0
60C0
60C0
60C0
60C0
60C0
60C0
60C0
60C0
60C0
ENDCHAR
STARTCHAR 0220
ENCODING 544
SWIDTH 675 0
DWIDTH 15 0
BBX 11 19 2 -4
BITMAP
7F00
FFC0
C1C0
C0E0
C060
C060
C060
C060
C060
C060
C060
C060
C060
C060
C060
0060
0060
0060
0060
ENDCHAR
STARTCHAR 0221
ENCODING 545
SWIDTH 720 0
DWIDTH 16 0
BBX 15 21 1 -4
BITMAP
00C0
00C0
00C0
00C0
00C0
1FC0
3FC0
70C0
E0C0
C0C0
C0C0
C0C0
C0C0
60C0
70FC
3FFE
1FE6
00C6
01E6
037E
023C
ENDCHAR
STARTCHAR 0222
ENCODING 546
SWIDTH 675 0
DWIDTH 15 0
BBX 13 15 1 0
BITMAP
6060
6070
6030
6030
6070
30E0
3FC0
3FE0
7070
E038
C038
E038
F070
7FF0
1FC0
ENDCHAR
STARTCHAR 0223
ENCODING 547
SWIDTH 585 0
DWIDTH 13 0
BBX 11 17 1 0
BITMAP
60C0
60C0
60C0
60C0
60C0
71C0
3F80
3F80
71C0
E0E0
C060
C060
C060
E0E0
71C0
3F80
1F00
ENDCHAR
STARTCHAR 0224
ENCODING 548
SWIDTH 585 0
DWIDTH 13 0
BBX 11 19 1 -4
BITMAP
FFE0
FFE0
01C0
0380
0300
0700
0E00
1C00
1800
3800
7000
6000
E000
FFE0
FFE0
0060
00E0
03C0
03C0
ENDCHAR
STARTCHAR 0225
ENCODING 549
SWIDTH 450 0
DWIDTH 10 0
BBX 9 16 1 -4
BITMAP
FF00
FF00
0700
0E00
0C00
1800
3800
7000
6000
E000
FF80
FF80
0180
0300
0F00
0E00
ENDCHAR
STARTCHAR 0226
ENCODING 550
SWIDTH 675 0
DWIDTH 15 0
BBX 14 20 0 0
BITMAP
0300
0380
0300
0000
0000
0380
0380
0780
06C0
0CC0
0C60
1860
1870
1830
3FF0
3FF8
7018
6018
600C
E00C
ENDCHAR
STARTCHAR 0227
ENCODING 551
SWIDTH 495 0
DWIDTH 11 0
BBX 9 17 1 0
BITMAP
0C00
1C00
0C00
0000
0000
7E00
7F00
0380
0180
3F80
7F80
E180
C180
C180
E180
7F80
3F80
ENDCHAR
STARTCHAR 0228
ENCODING 552
SWIDTH 585 0
DWIDTH 13 0
BBX 10 19 2 -4
BITMAP
FF80
FF80
C000
C000
C000
C000
FF00
FF00
C000
C000
C000
C000
C000
FFC0
FFC0
0800
0C00
0600
1C00
ENDCHAR
STARTCHAR 0229
ENCODING 553
SWIDTH 540 0
DWIDTH 12 0
BBX 10 15 1 -3
BITMAP
1F00
3F80
7180
60C0
C0C0
FFC0
FFC0
C000
E000
7000
3F80
1F80
0400
0600
1E00
ENDCHAR
STARTCHAR 022A
ENCODING 554
SWIDTH 765 0
DWIDTH 17 0
BBX 15 22 1 0
BITMAP
07C0
07C0
0000
0C60
0C60
0000
0000
07C0
1FF0
3838
701C
600C
E00E
E006
E006
E006
E00E
600C
701C
3838
1FF0
07C0
ENDCHAR
STARTCHAR 022B
ENCODING 555
SWIDTH 585 0
DWIDTH 13 0
BBX 11 18 1 0
BITMAP
1F00
1F00
0000
3180
3180
0000
1F00
3F80
71C0
60C0
C060
C060
C060
C060
60C0
71C0
3F80
1F00
ENDCHAR
STARTCHAR 022C
ENCODING 556
SWIDTH 765 0
DWIDTH 17 0
BBX 15 22 1 0
BITMAP
07C0
07C0
0000
0720
09C0
0000
0000
07C0
1FF0
3838
701C
600C
E00E
E006
E006
E006
E00E
600C
701C
3838
1FF0
07C0
ENDCHAR
STARTCHAR 022D
ENCODING 557
SWIDTH 585 0
DWIDTH 13 0
BBX 11 18 1 0
BITMAP
1F00
1F00
0000
1C80
2700
0000
1F00
3F80
71C0
60C0
C060
C060
C060
C060
60C0
71C0
3F80
1F00
ENDCHAR
STARTCHAR 022E
ENCODING 558
SWIDTH 765 0
DWIDTH 17 0
BBX 15 21 1 0
BITMAP
0180
0380
0180
0000
0000
0000
07C0
1FF0
3838
701C
600C
E00E
E006
E006
E006
E00E
600C
701C
3838
1FF0
07C0
ENDCHAR
STARTCHAR 022F
ENCODING 559
SWIDTH 585 0
DWIDTH 13 0
BBX 11 17 1 0
BITMAP
0E00
0E00
0E00
0000
0000
1F00
3F80
71C0
60C0
C060
C060
C060
C060
60C0
71C0
3F80
1F00
ENDCHAR
STARTCHAR 0230
ENCODING 560
SWIDTH 765 0
DWIDTH 17 0
BBX 15 22 1 0
BITMAP
07C0
07C0
0000
0380
0380
0000
0000
07C0
1FF0
3838
701C
600C
E00E
E006
E006
E006
E00E
600C
701C
3838
1FF0
07C0
ENDCHAR
STARTCHAR 0231
ENCODING 561
SWIDTH 585 0
DWIDTH 13 0
BBX 11 18 1 0
BITMAP
1F00
1F00
0000
0E00
0E00
0000
1F00
3F80
71C0
60C0
C060
C060
C060
C060
60C0
71C0
3F80
1F00
ENDCHAR
STARTCHAR 0232
ENCODING 562
SWIDTH 585 0
DWIDTH 13 0
BBX 13 19 0 0
BITMAP
1FC0
1FC0
0000
0000
E038
6030
3070
3860
18C0
1CC0
0D80
0780
0700
0300
0300
0300
0300
0300
0300
ENDCHAR
STARTCHAR 0233
ENCODING 563
SWIDTH 495 0
DWIDTH 11 0
BBX 10 20 0 -4
BITMAP
1F80
1F80
0000
0000
E0C0
60C0
60C0
60C0
3180
3180
3180
1900
1B00
0F00
0E00
0600
0600
0C00
F800
F000
ENDCHAR
STARTCHAR 0234
ENCODING 564
SWIDTH 405 0
DWIDTH 9 0
BBX 9 21 0 -4
BITMAP
3000
3000
3000
3000
3000
3000
3000
3000
3000
3000
3000
3000
3000
3000
3F00
3F80
3980
3180
7980
DF80
8F00
ENDCHAR
STARTCHAR 0235
ENCODING 565
SWIDTH 720 0
DWIDTH 16 0
BBX 14 16 2 -4
BITMAP
FE00
FF00
C380
C180
C180
C180
C180
C180
C180
C1F8
C1F8
C18C
018C
038C
06F8
0470
ENDCHAR
STARTCHAR 0236
ENCODING 566
SWIDTH 405 0
DWIDTH 9 0
BBX 9 20 0 -4
BITMAP
3000
3000
3000
3000
3F00
3F00
3000
3000
3000
3000
3000
3000
3000
3F00
3F80
3980
3180
7980
DF80
8F00
ENDCHAR
STARTCHAR 0237
ENCODING 567
SWIDTH 270 0
DWIDTH 6 0
BBX 5 16 -1 -4
BITMAP
18
18
18
18
18
18
18
18
18
18
18
18
18
38
F0
E0
ENDCHAR
STARTCHAR 0238
ENCODING 568
SWIDTH 900 0
DWIDTH 20 0
BBX 18 17 1 0
BITMAP
00C000
00C000
00C000
00C000
00C000
1FDE00
3FFF80
70E180
E0C0C0
C0C0C0
C0C0C0
C0C0C0
C0C0C0
60C1C0
70C380
3FFF80
1FFE00
ENDCHAR
STARTCHAR 0239
ENCODING 569
SWIDTH 900 0
DWIDTH 20 0
BBX 18 16 1 -4
BITMAP
1FFE00
3FFF80
70C380
60C1C0
C0C0C0
C0C0C0
C0C0C0
C0C0C0
E0C0C0
70E180
3FFF80
1FDE00
00C000
00C000
00C000
00C000
ENDCHAR
STARTCHAR 023A
ENCODING 570
SWIDTH 675 0
DWIDTH 15 0
BBX 14 19 0 -2
BITMAP
0010
0030
0330
03E0
07E0
06C0
0CC0
0CE0
18E0
19F0
19B0
3930
3FF8
3FF8
7218
660C
E40C
0C00
0C00
ENDCHAR
STARTCHAR 023B
ENCODING 571
SWIDTH 630 0
DWIDTH 14 0
BBX 12 19 1 -2
BITMAP
0020
0020
07E0
1FF0
3870
70C0
6080
E180
E180
E300
E300
E600
6600
7C00
3C10
1FF0
1FE0
1800
1000
ENDCHAR
STARTCHAR 023C
ENCODING 572
SWIDTH 495 0
DWIDTH 11 0
BBX 9 16 1 -2
BITMAP
0100
0100
1F00
3F80
7200
6600
C600
C400
CC00
CC00
E800
7800
3F80
1F80
3000
3000
ENDCHAR
STARTCHAR 023D
ENCODING 573
SWIDTH 540 0
DWIDTH 12 0
BBX 11 15 0 0
BITMAP
3000
3000
3000
3000
3000
3000
FF00
FF00
3000
3000
3000
3000
3000
3FE0
3FE0
ENDCHAR
STARTCHAR 023E
ENCODING 574
SWIDTH 630 0
DWIDTH 14 0
BBX 13 17 0 -1
BITMAP
0008
FFF8
FFF8
0630
0660
06C0
06C0
0780
0700
0600
0600
0E00
1E00
1E00
3600
6600
4000
ENDCHAR
STARTCHAR 023F
ENCODING 575
SWIDTH 450 0
DWIDTH 10 0
BBX 8 16 1 -4
BITMAP
3E
7E
C0
C0
E0
78
3E
07
03
83
FF
FC
60
30
1E
0F
ENDCHAR
STARTCHAR 0240
ENCODING 576
SWIDTH 450 0
DWIDTH 10 0
BBX 9 16 1 -4
BITMAP
FF00
FF00
0700
0600
0C00
1C00
3800
3000
6000
6000
C000
F000
3800
0E00
0780
0380
ENDCHAR
STARTCHAR 0241
ENCODING 577
SWIDTH 495 0
DWIDTH 11 0
BBX 10 15 0 0
BITMAP
3F00
FF80
41C0
00C0
00C0
01C0
0780
0F00
1C00
1800
1800
1800
1800
1800
1800
ENDCHAR
STARTCHAR 0242
ENCODING 578
SWIDTH 405 0
DWIDTH 9 0
BBX 9 12 0 0
BITMAP
7E00
FF00
4380
0180
0700
0F00
1E00
1800
3000
3000
3000
3000
ENDCHAR
STARTCHAR 0243
ENCODING 579
SWIDTH 630 0
DWIDTH 14 0
BBX 13 15 0 0
BITMAP
3FC0
3FF0
3070
3038
3038
3070
3FE0
3FF0
3038
FE18
FE18
3018
3038
3FF0
3FC0
ENDCHAR
STARTCHAR 0244
ENCODING 580
SWIDTH 720 0
DWIDTH 16 0
BBX 15 15 0 0
BITMAP
301C
301C
301C
301C
301C
FFFE
FFFE
301C
301C
301C
3018
3818
1C38
0FF0
07E0
ENDCHAR
STARTCHAR 0245
ENCODING 581
SWIDTH 630 0
DWIDTH 14 0
BBX 14 15 0 0
BITMAP
0300
0780
0780
06C0
0CC0
0CE0
1860
1860
1870
3030
3038
7018
6018
601C
E00C
ENDCHAR
STARTCHAR 0246
ENCODING 582
SWIDTH 585 0
DWIDTH 13 0
BBX 10 20 2 -3
BITMAP
0040
00C0
FFC0
FF80
C180
C100
C300
C300
FF80
FF80
C400
CC00
C800
D800
D800
FFC0
FFC0
2000
6000
6000
ENDCHAR
STARTCHAR 0247
ENCODING 583
SWIDTH 585 0
DWIDTH 13 0
BBX 10 16 1 -2
BITMAP
0100
0300
1F00
3F80
73C0
66C0
C4C0
FFC0
FFC0
CC00
6800
7800
3FC0
1F80
3000
3000
ENDCHAR
STARTCHAR 0248
ENCODING 584
SWIDTH 495 0
DWIDTH 11 0
BBX 11 15 0 0
BITMAP
0180
0180
0180
0180
0180
0180
0FE0
0FE0
0180
0180
0180
0180
4380
FF00
7E00
ENDCHAR
STARTCHAR 0249
ENCODING 585
SWIDTH 270 0
DWIDTH 6 0
BBX 7 20 -1 -4
BITMAP
1C
1C
00
00
18
18
18
18
18
7E
7E
18
18
18
18
18
18
18
F8
F0
ENDCHAR
STARTCHAR 024A
ENCODING 586
SWIDTH 765 0
DWIDTH 17 0
BBX 17 19 1 -4
BITMAP
07C000
1FF000
383800
701C00
600C00
E00E00
E00600
E00600
E00600
E00E00
600E00
701E00
383E00
1FF600
07C600
000600
000600
000780
000380
ENDCHAR
STARTCHAR 024B
ENCODING 587
SWIDTH 585 0
DWIDTH 13 0
BBX 13 16 1 -4
BITMAP
1FC0
3FC0
70C0
60C0
C0C0
C0C0
C0C0
C0C0
E0C0
70C0
3FC0
1FC0
00C0
00E0
0078
0078
ENDCHAR
STARTCHAR 024C
ENCODING 588
SWIDTH 630 0
DWIDTH 14 0
BBX 13 15 0 0
BITMAP
3FC0
3FF0
3070
3038
3018
3038
3070
FFF0
FFC0
30C0
3060
3070
3030
3018
3018
ENDCHAR
STARTCHAR 024D
ENCODING 589
SWIDTH 405 0
DWIDTH 9 0
BBX 8 12 0 0
BITMAP
1F
3F
30
30
30
30
FE
FE
30
30
30
30
ENDCHAR
STARTCHAR 024E
ENCODING 590
SWIDTH 630 0
DWIDTH 14 0
BBX 13 15 0 0
BITMAP
6018
7030
3030
FFF8
FFF8
0CC0
0D80
0780
0700
0300
0300
0300
0300
0300
0300
ENDCHAR
STARTCHAR 024F
ENCODING 591
SWIDTH 495 0
DWIDTH 11 0
BBX 11 16 0 -4
BITMAP
6060
60C0
30C0
30C0
FFE0
FFE0
1980
1900
0F00
0F00
0700
0600
0600
0C00
7C00
F000
ENDCHAR
STARTCHAR 0292
ENCODING 658
SWIDTH 450 0
DWIDTH 10 0
BBX 9 16 0 -4
BITMAP
FF80
FF80
0300
0700
0600
0C00
1800
1E00
0380
0180
0180
0180
0180
8380
FF00
FE00
ENDCHAR
STARTCHAR 02BC
ENCODING 700
SWIDTH 360 0
DWIDTH 8 0
BBX 2 5 3 12
BITMAP
C0
C0
C0
C0
80
ENDCHAR
STARTCHAR 02C6
ENCODING 710
SWIDTH 360 0
DWIDTH 8 0
BBX 5 4 2 13
BITMAP
20
70
D8
88
ENDCHAR
STARTCHAR 02C7
ENCODING 711
SWIDTH 360 0
DWIDTH 8 0
BBX 5 4 2 13
BITMAP
88
D8
70
20
ENDCHAR
STARTCHAR 02C9
ENCODING 713
SWIDTH 360 0
DWIDTH 8 0
BBX 6 2 1 14
BITMAP
FC
FC
ENDCHAR
STARTCHAR 02D8
ENCODING 728
SWIDTH 360 0
DWIDTH 8 0
BBX 6 3 1 13
BITMAP
C4
7C
78
ENDCHAR
STARTCHAR 02D9
ENCODING 729
SWIDTH 360 0
DWIDTH 8 0
BBX 2 3 3 14
BITMAP
C0
C0
C0
ENDCHAR
STARTCHAR 02DA
ENCODING 730
SWIDTH 360 0
DWIDTH 8 0
BBX 4 4 2 13
BITMAP
70
90
90
70
ENDCHAR
STARTCHAR 02DB
ENCODING 731
SWIDTH 360 0
DWIDTH 8 0
BBX 3 4 2 -4
BITMAP
60
C0
C0
E0
ENDCHAR
STARTCHAR 02DC
ENCODING 732
SWIDTH 360 0
DWIDTH 8 0
BBX 7 3 1 14
BITMAP
66
FC
9C
ENDCHAR
STARTCHAR 02DD
ENCODING 733
SWIDTH 360 0
DWIDTH 8 0
BBX 7 4 1 13
BITMAP
22
66
CC
88
ENDCHAR
STARTCHAR 0311
ENCODING 785
SWIDTH 360 0
DWIDTH 8 0
BBX 6 3 1 13
BITMAP
78
7C
C4
ENDCHAR
STARTCHAR 0384
ENCODING 900
SWIDTH 360 0
DWIDTH 8 0
BBX 4 5 3 13
BITMAP
20
30
60
C0
40
ENDCHAR
STARTCHAR 0385
ENCODING 901
SWIDTH 360 0
DWIDTH 8 0
BBX 8 4 0 13
BITMAP
08
CB
DB
10
ENDCHAR
STARTCHAR 0386
ENCODING 902
SWIDTH 675 0
DWIDTH 15 0
BBX 14 15 0 0
BITMAP
3380
3380
2780
66C0
0CC0
0C60
1860
1870
1830
3FF0
3FF8
7018
6018
600C
E00C
ENDCHAR
STARTCHAR 0388
ENCODING 904
SWIDTH 630 0
DWIDTH 14 0
BBX 14 15 -1 0
BITMAP
6FFC
6FFC
4C00
CC00
0C00
0C00
0FF8
0FF8
0C00
0C00
0C00
0C00
0C00
0FFC
0FFC
ENDCHAR
STARTCHAR 0389
ENCODING 905
SWIDTH 765 0
DWIDTH 17 0
BBX 16 15 -1 0
BITMAP
6E03
6E03
4E03
CE03
0E03
0E03
0FFF
0FFF
0E03
0E03
0E03
0E03
0E03
0E03
0E03
ENDCHAR
STARTCHAR 038A
ENCODING 906
SWIDTH 315 0
DWIDTH 7 0
BBX 7 15 -1 0
BITMAP
6E
6E
4E
CE
0E
0E
0E
0E
0E
0E
0E
0E
0E
0E
0E
ENDCHAR
STARTCHAR 038C
ENCODING 908
SWIDTH 810 0
DWIDTH 18 0
BBX 17 15 -1 0
BITMAP
61F800
67FE00
4F0F00
CC0300
1C0380
180180
180180
180180
180180
180180
1C0380
0C0300
0F0F00
07FE00
01F800
ENDCHAR
STARTCHAR 038E
ENCODING 910
SWIDTH 720 0
DWIDTH 16 0
BBX 17 15 -1 0
BITMAP
6E0380
660300
470600
C30600
038C00
019C00
00D800
00F000
007000
006000
006000
006000
006000
006000
006000
ENDCHAR
STARTCHAR 038F
ENCODING 911
SWIDTH 810 0
DWIDTH 18 0
BBX 18 15 -1 0
BITMAP
61F800
67FE00
4F0F00
CC0300
1C0380
180180
180180
180180
180180
1C0180
0C0300
0E0300
070600
1F8FC0
1F8FC0
ENDCHAR
STARTCHAR 0390
ENCODING 912
SWIDTH 270 0
DWIDTH 6 0
BBX 8 17 -1 0
BITMAP
08
DB
D3
30
00
18
18
18
18
18
18
18
18
18
18
1C
0C
ENDCHAR
STARTCHAR 0391
ENCODING 913
SWIDTH 675 0
DWIDTH 15 0
BBX 14 15 0 0
BITMAP
0380
0380
0780
06C0
0CC0
0C60
1860
1870
1830
3FF0
3FF8
7018
6018
600C
E00C
ENDCHAR
STARTCHAR 0392
ENCODING 914
SWIDTH 630 0
DWIDTH 14 0
BBX 11 15 2 0
BITMAP
FF00
FF80
C1C0
C0C0
C0C0
C1C0
FF80
FFC0
C0E0
C060
C060
C060
C1E0
FFC0
FF00
ENDCHAR
STARTCHAR 0393
ENCODING 915
SWIDTH 495 0
DWIDTH 11 0
BBX 9 15 2 0
BITMAP
FF80
FF80
C000
C000
C000
C000
C000
C000
C000
C000
C000
C000
C000
C000
C000
ENDCHAR
STARTCHAR 0394
ENCODING 916
SWIDTH 630 0
DWIDTH 14 0
BBX 14 15 0 0
BITMAP
0300
0780
0780
04C0
0CC0
0C60
1860
1860
3030
3030
3038
6018
6018
7FFC
FFFC
ENDCHAR
STARTCHAR 0395
ENCODING 917
SWIDTH 585 0
DWIDTH 13 0
BBX 10 15 2 0
BITMAP
FF80
FF80
C000
C000
C000
C000
FF00
FF00
C000
C000
C000
C000
C000
FFC0
FFC0
ENDCHAR
STARTCHAR 0396
ENCODING 918
SWIDTH 585 0
DWIDTH 13 0
BBX 11 15 1 0
BITMAP
FFE0
FFE0
01C0
0380
0300
0600
0E00
0C00
1800
3000
7000
6000
E000
FFE0
FFE0
ENDCHAR
STARTCHAR 0397
ENCODING 919
SWIDTH 720 0
DWIDTH 16 0
BBX 12 15 2 0
BITMAP
C070
C070
C070
C070
C070
C070
FFF0
FFF0
C070
C070
C070
C070
C070
C070
C070
ENDCHAR
STARTCHAR 0398
ENCODING 920
SWIDTH 765 0
DWIDTH 17 0
BBX 15 15 1 0
BITMAP
07C0
1FF0
3838
701C
600C
E00E
E006
EFE6
EFE6
E00E
600C
701C
3838
1FF0
07C0
ENDCHAR
STARTCHAR 0399
ENCODING 921
SWIDTH 270 0
DWIDTH 6 0
BBX 2 15 2 0
BITMAP
C0
C0
C0
C0
C0
C0
C0
C0
C0
C0
C0
C0
C0
C0
C0
ENDCHAR
STARTCHAR 039A
ENCODING 922
SWIDTH 630 0
DWIDTH 14 0
BBX 11 15 2 0
BITMAP
C0E0
C1C0
C380
C700
CE00
DC00
F800
F000
FC00
DE00
CF00
C380
C1C0
C0E0
C060
ENDCHAR
STARTCHAR 039B
ENCODING 923
SWIDTH 630 0
DWIDTH 14 0
BBX 14 15 0 0
BITMAP
0300
0780
0780
06C0
0CC0
0CE0
1860
1860
1870
3030
3038
7018
6018
601C
E00C
ENDCHAR
STARTCHAR 039C
ENCODING 924
SWIDTH 855 0
DWIDTH 19 0
BBX 17 15 1 0
BITMAP
300700
700700
780F00
680B00
6C1B00
641300
661300
623300
632300
636300
614300
61C380
60C180
600180
E00180
ENDCHAR
STARTCHAR 039D
ENCODING 925
SWIDTH 720 0
DWIDTH 16 0
BBX 12 15 2 0
BITMAP
C030
E030
F030
F830
D830
CC30
C630
C730
C330
C1B0
C1F0
C0F0
C070
C070
C030
ENDCHAR
STARTCHAR 039E
ENCODING 926
SWIDTH 540 0
DWIDTH 12 0
BBX 10 15 1 0
BITMAP
FFC0
FFC0
0000
0000
0000
0000
7F80
7F80
0000
0000
0000
0000
0000
FFC0
FFC0
ENDCHAR
STARTCHAR 039F
ENCODING 927
SWIDTH 765 0
DWIDTH 17 0
BBX 15 15 1 0
BITMAP
07C0
1FF0
3838
701C
600C
E00E
E006
E006
E006
E00E
600C
701C
3838
1FF0
07C0
ENDCHAR
STARTCHAR 03A0
ENCODING 928
SWIDTH 675 0
DWIDTH 15 0
BBX 11 15 2 0
BITMAP
FFE0
FFE0
C060
C060
C060
C060
C060
C060
C060
C060
C060
C060
C060
C060
C060
ENDCHAR
STARTCHAR 03A1
ENCODING 929
SWIDTH 585 0
DWIDTH 13 0
BBX 11 15 2 0
BITMAP
FF00
FF80
C1C0
C0E0
C0E0
C0E0
C1C0
FF80
FF00
C000
C000
C000
C000
C000
C000
ENDCHAR
STARTCHAR 03A3
ENCODING 931
SWIDTH 540 0
DWIDTH 12 0
BBX 11 15 1 0
BITMAP
FFC0
FFC0
6000
3000
1800
1C00
0E00
0600
0C00
1800
3000
6000
E000
FFE0
FFE0
ENDCHAR
STARTCHAR 03A4
ENCODING 932
SWIDTH 540 0
DWIDTH 12 0
BBX 12 15 0 0
BITMAP
FFF0
FFF0
0600
0600
0600
0600
0600
0600
0600
0600
0600
0600
0600
0600
0600
ENDCHAR
STARTCHAR 03A5
ENCODING 933
SWIDTH 585 0
DWIDTH 13 0
BBX 13 15 0 0
BITMAP
E038
6030
3070
3860
18C0
1CC0
0D80
0780
0700
0300
0300
0300
0300
0300
0300
ENDCHAR
STARTCHAR 03A6
ENCODING 934
SWIDTH 855 0
DWIDTH 19 0
BBX 17 16 1 0
BITMAP
01C000
01C000
0FF800
1FFC00
79CF00
61C300
E1C380
C1C180
C1C180
E1C380
61C300
79CF00
1FFC00
0FF800
01C000
01C000
ENDCHAR
STARTCHAR 03A7
ENCODING 935
SWIDTH 630 0
DWIDTH 14 0
BBX 12 15 1 0
BITMAP
E070
6060
70C0
39C0
1980
1F00
0F00
0600
0F00
1F80
39C0
30C0
60E0
E070
C030
ENDCHAR
STARTCHAR 03A8
ENCODING 936
SWIDTH 810 0
DWIDTH 18 0
BBX 16 15 1 0
BITMAP
E187
E187
E187
E187
E187
E186
6186
6186
719E
3FFC
0FF0
0180
0180
0180
0180
ENDCHAR
STARTCHAR 03A9
ENCODING 937
SWIDTH 765 0
DWIDTH 17 0
BBX 15 15 1 0
BITMAP
07C0
1FF0
3838
701C
600C
600E
600E
6006
600E
600C
700C
3018
1830
FC7E
FC7E
ENDCHAR
STARTCHAR 03AA
ENCODING 938
SWIDTH 270 0
DWIDTH 6 0
BBX 6 20 0 0
BITMAP
CC
CC
CC
00
00
30
30
30
30
30
30
30
30
30
30
30
30
30
30
30
ENDCHAR
STARTCHAR 03AB
ENCODING 939
SWIDTH 585 0
DWIDTH 13 0
BBX 13 20 0 0
BITMAP
08C0
1DC0
08C0
0000
0000
E038
6030
3070
3860
18C0
1CC0
0D80
0780
0700
0300
0300
0300
0300
0300
0300
ENDCHAR
STARTCHAR 03AC
ENCODING 940
SWIDTH 585 0
DWIDTH 13 0
BBX 12 18 1 0
BITMAP
0200
0300
0600
0C00
0400
0000
1FC0
3FC0
70C0
60C0
C0C0
C0C0
C0C0
C0C0
E0C0
70C0
3FF0
1F30
ENDCHAR
STARTCHAR 03AD
ENCODING 941
SWIDTH 495 0
DWIDTH 11 0
BBX 9 18 1 0
BITMAP
0200
0600
0C00
0C00
0800
0000
3F80
7F80
6000
6000
6000
3E00
7E00
E000
C000
E080
7F80
3F80
ENDCHAR
STARTCHAR 03AE
ENCODING 942
SWIDTH 585 0
DWIDTH 13 0
BBX 9 22 2 -4
BITMAP
0400
0C00
0C00
1800
1000
0000
FE00
FF00
C380
C180
C180
C180
C180
C180
C180
C180
C180
C180
0180
0180
0180
0180
ENDCHAR
STARTCHAR 03AF
ENCODING 943
SWIDTH 270 0
DWIDTH 6 0
BBX 3 18 2 0
BITMAP
60
60
C0
C0
80
00
C0
C0
C0
C0
C0
C0
C0
C0
C0
C0
E0
60
ENDCHAR
STARTCHAR 03B0
ENCODING 944
SWIDTH 585 0
DWIDTH 13 0
BBX 9 17 2 0
BITMAP
0800
CF80
DB80
1000
0000
C180
C180
C180
C180
C180
C180
C180
C180
C180
E380
7F00
3E00
ENDCHAR
STARTCHAR 03B1
ENCODING 945
SWIDTH 585 0
DWIDTH 13 0
BBX 12 12 1 0
BITMAP
1FC0
3FC0
70C0
60C0
C0C0
C0C0
C0C0
C0C0
E0C0
70C0
3FF0
1F30
ENDCHAR
STARTCHAR 03B2
ENCODING 946
SWIDTH 585 0
DWIDTH 13 0
BBX 10 21 2 -4
BITMAP
3E00
7F00
E380
C180
C180
C180
C300
CE00
CF80
C1C0
C0C0
C0C0
C0C0
C0C0
C1C0
FF80
FE00
C000
C000
C000
C000
ENDCHAR
STARTCHAR 03B3
ENCODING 947
SWIDTH 495 0
DWIDTH 11 0
BBX 9 16 1 -4
BITMAP
C180
C180
C180
6180
6300
6300
3300
3600
3600
3400
1C00
1800
1800
1800
1800
1800
ENDCHAR
STARTCHAR 03B4
ENCODING 948
SWIDTH 585 0
DWIDTH 13 0
BBX 11 17 1 0
BITMAP
0F80
3FC0
3000
3800
1E00
1F00
3980
60C0
60C0
C060
C060
C060
C0E0
60C0
71C0
3F80
1F00
ENDCHAR
STARTCHAR 03B5
ENCODING 949
SWIDTH 495 0
DWIDTH 11 0
BBX 9 12 1 0
BITMAP
3F80
7F80
6000
6000
6000
3E00
7E00
E000
C000
E080
7F80
3F80
ENDCHAR
STARTCHAR 03B6
ENCODING 950
SWIDTH 450 0
DWIDTH 10 0
BBX 9 21 1 -4
BITMAP
7F80
7F80
0700
0600
0C00
1800
3000
7000
6000
6000
C000
C000
C000
E000
7000
7E00
1F80
0380
0180
0180
0300
ENDCHAR
STARTCHAR 03B7
ENCODING 951
SWIDTH 585 0
DWIDTH 13 0
BBX 9 16 2 -4
BITMAP
FE00
FF00
C380
C180
C180
C180
C180
C180
C180
C180
C180
C180
0180
0180
0180
0180
ENDCHAR
STARTCHAR 03B8
ENCODING 952
SWIDTH 585 0
DWIDTH 13 0
BBX 11 17 1 0
BITMAP
1F00
3F80
71C0
60C0
6060
C060
C060
FFE0
FFE0
C060
C060
E060
60E0
60C0
71C0
3F80
1F00
ENDCHAR
STARTCHAR 03B9
ENCODING 953
SWIDTH 270 0
DWIDTH 6 0
BBX 3 12 2 0
BITMAP
C0
C0
C0
C0
C0
C0
C0
C0
C0
C0
E0
60
ENDCHAR
STARTCHAR 03BA
ENCODING 954
SWIDTH 540 0
DWIDTH 12 0
BBX 9 12 2 0
BITMAP
C380
C700
CE00
DC00
F800
F000
F800
DC00
CE00
C700
C380
C180
ENDCHAR
STARTCHAR 03BB
ENCODING 955
SWIDTH 495 0
DWIDTH 11 0
BBX 11 17 0 0
BITMAP
7000
7800
1C00
0C00
0600
0600
0E00
0F00
1B00
1B00
1980
3180
3180
60C0
60C0
60C0
E060
ENDCHAR
STARTCHAR 03BC
ENCODING 956
SWIDTH 585 0
DWIDTH 13 0
BBX 9 16 2 -4
BITMAP
C180
C180
C180
C180
C180
C180
C180
C180
C180
E180
FF80
FF80
C000
C000
C000
C000
ENDCHAR
STARTCHAR 03BD
ENCODING 957
SWIDTH 495 0
DWIDTH 11 0
BBX 11 12 0 0
BITMAP
E0E0
60C0
60C0
60C0
3180
3180
3180
1B00
1B00
0F00
0E00
0E00
ENDCHAR
STARTCHAR 03BE
ENCODING 958
SWIDTH 450 0
DWIDTH 10 0
BBX 9 21 1 -4
BITMAP
1F80
3F00
7000
6000
6000
6000
3000
1F00
3F00
7000
E000
C000
C000
E000
7000
3F00
1F80
0180
0180
0180
0300
ENDCHAR
STARTCHAR 03BF
ENCODING 959
SWIDTH 585 0
DWIDTH 13 0
BBX 11 12 1 0
BITMAP
1F00
3F80
71C0
60C0
C060
C060
C060
C060
60C0
71C0
3F80
1F00
ENDCHAR
STARTCHAR 03C0
ENCODING 960
SWIDTH 585 0
DWIDTH 13 0
BBX 9 12 2 0
BITMAP
FF80
FF80
C180
C180
C180
C180
C180
C180
C180
C180
C180
C180
ENDCHAR
STARTCHAR 03C1
ENCODING 961
SWIDTH 585 0
DWIDTH 13 0
BBX 10 16 2 -4
BITMAP
3E00
7F80
E180
C1C0
C0C0
C0C0
C0C0
C0C0
C1C0
C380
FF00
FE00
C000
C000
C000
C000
ENDCHAR
STARTCHAR 03C2
ENCODING 962
SWIDTH 450 0
DWIDTH 10 0
BBX 9 16 1 -4
BITMAP
1F80
3F00
7000
6000
C000
C000
C000
C000
E000
7000
3F00
0F00
0380
0180
0300
0300
ENDCHAR
STARTCHAR 03C3
ENCODING 963
SWIDTH 585 0
DWIDTH 13 0
BBX 12 12 1 0
BITMAP
1FF0
3FF0
7180
60C0
C0C0
C060
C060
C060
60C0
71C0
3F80
1F00
ENDCHAR
STARTCHAR 03C4
ENCODING 964
SWIDTH 450 0
DWIDTH 10 0
BBX 9 12 0 0
BITMAP
FF80
FF80
1800
1800
1800
1800
1800
1800
1C00
0C00
0F80
0780
ENDCHAR
STARTCHAR 03C5
ENCODING 965
SWIDTH 585 0
DWIDTH 13 0
BBX 9 12 2 0
BITMAP
C180
C180
C180
C180
C180
C180
C180
C180
C180
E380
7F00
3E00
ENDCHAR
STARTCHAR 03C6
ENCODING 966
SWIDTH 765 0
DWIDTH 17 0
BBX 15 16 1 -4
BITMAP
0FE0
3FF8
731C
630C
C30E
C306
C306
C30E
630C
731C
3FF8
0FE0
0300
0300
0300
0300
ENDCHAR
STARTCHAR 03C7
ENCODING 967
SWIDTH 495 0
DWIDTH 11 0
BBX 10 12 1 0
BITMAP
C180
6300
7300
3600
1C00
1C00
1C00
3600
3700
6300
C180
C1C0
ENDCHAR
STARTCHAR 03C8
ENCODING 968
SWIDTH 765 0
DWIDTH 17 0
BBX 13 16 2 -4
BITMAP
C318
C318
C318
C318
C318
C318
C318
C318
C318
7338
7FF0
1FC0
0300
0300
0300
0300
ENDCHAR
STARTCHAR 03C9
ENCODING 969
SWIDTH 810 0
DWIDTH 18 0
BBX 16 12 1 0
BITMAP
3004
7006
6186
6183
E183
C183
C183
C183
E1C3
63C7
7FFE
1E3C
ENDCHAR
STARTCHAR 03CA
ENCODING 970
SWIDTH 270 0
DWIDTH 6 0
BBX 7 17 -1 0
BITMAP
66
E6
66
00
00
18
18
18
18
18
18
18
18
18
18
1C
0C
ENDCHAR
STARTCHAR 03CB
ENCODING 971
SWIDTH 585 0
DWIDTH 13 0
BBX 9 17 2 0
BITMAP
6600
7700
6600
0000
0000
C180
C180
C180
C180
C180
C180
C180
C180
C180
E380
7F00
3E00
ENDCHAR
STARTCHAR 03CC
ENCODING 972
SWIDTH 585 0
DWIDTH 13 0
BBX 11 18 1 0
BITMAP
0200
0300
0600
0C00
0400
0000
1F00
3F80
71C0
60C0
C060
C060
C060
C060
60C0
71C0
3F80
1F00
ENDCHAR
STARTCHAR 03CD
ENCODING 973
SWIDTH 585 0
DWIDTH 13 0
BBX 9 18 2 0
BITMAP
0400
0C00
0C00
1800
1000
0000
C180
C180
C180
C180
C180
C180
C180
C180
C180
E380
7F00
3E00
ENDCHAR
STARTCHAR 03CE
ENCODING 974
SWIDTH 810 0
DWIDTH 18 0
BBX 16 18 1 0
BITMAP
0040
00C0
00C0
0180
0100
0000
3004
7006
6186
6183
E183
C183
C183
C183
E1C3
63C7
7FFE
1E3C
ENDCHAR
STARTCHAR 0400
ENCODING 1024
SWIDTH 585 0
DWIDTH 13 0
BBX 10 20 2 0
BITMAP
1000
1800
0C00
0400
0000
FF80
FF80
C000
C000
C000
C000
FF00
FF00
C000
C000
C000
C000
C000
FFC0
FFC0
ENDCHAR
STARTCHAR 0401
ENCODING 1025
SWIDTH 585 0
DWIDTH 13 0
BBX 10 20 2 0
BITMAP
6300
7700
6300
0000
0000
FF80
FF80
C000
C000
C000
C000
FF00
FF00
C000
C000
C000
C000
C000
FFC0
FFC0
ENDCHAR
STARTCHAR 0402
ENCODING 1026
SWIDTH 765 0
DWIDTH 17 0
BBX 16 15 0 0
BITMAP
FFF0
FFF0
0600
0600
0600
07F8
07FC
060E
0606
0607
0607
0607
0606
063E
0638
ENDCHAR
STARTCHAR 0403
ENCODING 1027
SWIDTH 495 0
DWIDTH 11 0
BBX 9 20 2 0
BITMAP
0400
0E00
1800
1000
0000
FF80
FF80
C000
C000
C000
C000
C000
C000
C000
C000
C000
C000
C000
C000
C000
ENDCHAR
STARTCHAR 0404
ENCODING 1028
SWIDTH 630 0
DWIDTH 14 0
BBX 12 15 1 0
BITMAP
07E0
1FF0
3810
7000
6000
E000
FF80
FF80
E000
E000
6000
7000
3810
1FF0
07E0
ENDCHAR
STARTCHAR 0405
ENCODING 1029
SWIDTH 540 0
DWIDTH 12 0
BBX 10 15 1 0
BITMAP
3F00
7F80
E080
C000
C000
E000
7800
3F00
0780
01C0
00C0
00C0
C1C0
FF80
7F00
ENDCHAR
STARTCHAR 0406
ENCODING 1030
SWIDTH 270 0
DWIDTH 6 0
BBX 2 15 2 0
BITMAP
C0
C0
C0
C0
C0
C0
C0
C0
C0
C0
C0
C0
C0
C0
C0
ENDCHAR
STARTCHAR 0407
ENCODING 1031
SWIDTH 270 0
DWIDTH 6 0
BBX 6 20 0 0
BITMAP
CC
CC
CC
00
00
30
30
30
30
30
30
30
30
30
30
30
30
30
30
30
ENDCHAR
STARTCHAR 0408
ENCODING 1032
SWIDTH 495 0
DWIDTH 11 0
BBX 9 15 0 0
BITMAP
0180
0180
0180
0180
0180
0180
0180
0180
0180
0180
0180
0180
4380
FF00
7E00
ENDCHAR
STARTCHAR 0409
ENCODING 1033
SWIDTH 1035 0
DWIDTH 23 0
BBX 22 15 0 0
BITMAP
07FC00
07FC00
060C00
060C00
060C00
060FE0
060FF8
060C3C
0E0C0C
0C0C0C
0C0C0C
1C0C0C
380C3C
F00FF8
E00FE0
ENDCHAR
STARTCHAR 040A
ENCODING 1034
SWIDTH 1035 0
DWIDTH 23 0
BBX 20 15 2 0
BITMAP
C06000
C06000
C06000
C06000
C06000
FFFF80
FFFFC0
C060E0
C06070
C06070
C06070
C06070
C060E0
C07FC0
C07F80
ENDCHAR
STARTCHAR 040B
ENCODING 1035
SWIDTH 720 0
DWIDTH 16 0
BBX 15 15 0 0
BITMAP
FFF0
FFF0
0600
0600
0600
07F8
07FC
060E
0606
0606
0606
0606
0606
0606
0606
ENDCHAR
STARTCHAR 040C
ENCODING 1036
SWIDTH 630 0
DWIDTH 14 0
BBX 11 20 2 0
BITMAP
0200
0600
0C00
0800
0000
C0E0
C1C0
C380
C700
CE00
DC00
F800
F000
FC00
DE00
CF00
C380
C1C0
C0E0
C060
ENDCHAR
STARTCHAR 040D
ENCODING 1037
SWIDTH 720 0
DWIDTH 16 0
BBX 12 20 2 0
BITMAP
0800
0C00
0600
0200
0000
C030
C070
C0F0
C1F0
C1B0
C330
C630
CE30
CC30
D830
F830
F030
E030
E030
C030
ENDCHAR
STARTCHAR 040E
ENCODING 1038
SWIDTH 585 0
DWIDTH 13 0
BBX 12 19 1 0
BITMAP
1180
1F80
0F00
0000
C070
E060
6060
70C0
30C0
30C0
1980
1D80
0F00
0F00
0700
0600
0E00
FC00
F000
ENDCHAR
STARTCHAR 040F
ENCODING 1039
SWIDTH 675 0
DWIDTH 15 0
BBX 11 19 2 -4
BITMAP
C060
C060
C060
C060
C060
C060
C060
C060
C060
C060
C060
C060
C060
FFE0
FFE0
0600
0600
0600
0600
ENDCHAR
STARTCHAR 0410
ENCODING 1040
SWIDTH 675 0
DWIDTH 15 0
BBX 14 15 0 0
BITMAP
0380
0380
0780
06C0
0CC0
0C60
1860
1870
1830
3FF0
3FF8
7018
6018
600C
E00C
ENDCHAR
STARTCHAR 0411
ENCODING 1041
SWIDTH 630 0
DWIDTH 14 0
BBX 11 15 2 0
BITMAP
FF80
FF80
C000
C000
C000
FF00
FF80
C1C0
C0E0
C0E0
C0E0
C0E0
C1C0
FF80
FE00
ENDCHAR
STARTCHAR 0412
ENCODING 1042
SWIDTH 630 0
DWIDTH 14 0
BBX 11 15 2 0
BITMAP
FF00
FF80
C1C0
C0C0
C0C0
C1C0
FF80
FFC0
C0E0
C060
C060
C060
C1E0
FFC0
FF00
ENDCHAR
STARTCHAR 0413
ENCODING 1043
SWIDTH 495 0
DWIDTH 11 0
BBX 9 15 2 0
BITMAP
FF80
FF80
C000
C000
C000
C000
C000
C000
C000
C000
C000
C000
C000
C000
C000
ENDCHAR
STARTCHAR 0414
ENCODING 1044
SWIDTH 720 0
DWIDTH 16 0
BBX 16 19 0 -4
BITMAP
07FC
07FC
061C
061C
061C
061C
061C
0E1C
0C1C
0C1C
0C1C
181C
381C
FFFF
FFFF
C007
C007
C007
C007
ENDCHAR
STARTCHAR 0415
ENCODING 1045
SWIDTH 585 0
DWIDTH 13 0
BBX 10 15 2 0
BITMAP
FF80
FF80
C000
C000
C000
C000
FF00
FF00
C000
C000
C000
C000
C000
FFC0
FFC0
ENDCHAR
STARTCHAR 0416
ENCODING 1046
SWIDTH 900 0
DWIDTH 20 0
BBX 18 15 1 0
BITMAP
E0C1C0
60C380
30C300
18C600
1CCE00
0EDC00
06F800
03F000
06D800
0CCC00
18C600
30C300
70C380
E0C180
C0C0C0
ENDCHAR
STARTCHAR 0417
ENCODING 1047
SWIDTH 585 0
DWIDTH 13 0
BBX 10 15 1 0
BITMAP
7F00
FF80
41C0
00C0
01C0
0380
3F00
3F80
01C0
00C0
00C0
00C0
81C0
FF80
7F00
ENDCHAR
STARTCHAR 0418
ENCODING 1048
SWIDTH 720 0
DWIDTH 16 0
BBX 12 15 2 0
BITMAP
C030
C070
C0F0
C1F0
C1B0
C330
C630
CE30
CC30
D830
F830
F030
E030
E030
C030
ENDCHAR
STARTCHAR 0419
ENCODING 1049
SWIDTH 720 0
DWIDTH 16 0
BBX 12 19 2 0
BITMAP
1980
1F80
0F00
0000
C030
C070
C0F0
C1F0
C1B0
C330
C630
CE30
CC30
D830
F830
F030
E030
E030
C030
ENDCHAR
STARTCHAR 041A
ENCODING 1050
SWIDTH 630 0
DWIDTH 14 0
BBX 11 15 2 0
BITMAP
C0E0
C1C0
C380
C700
CE00
DC00
F800
F000
FC00
DE00
CF00
C380
C1C0
C0E0
C060
ENDCHAR
STARTCHAR 041B
ENCODING 1051
SWIDTH 720 0
DWIDTH 16 0
BBX 14 15 0 0
BITMAP
07FC
07FC
060C
060C
060C
060C
060C
060C
0E0C
0C0C
0C0C
1C0C
380C
F00C
E00C
ENDCHAR
STARTCHAR 041C
ENCODING 1052
SWIDTH 855 0
DWIDTH 19 0
BBX 17 15 1 0
BITMAP
300700
700700
780F00
680B00
6C1B00
641300
661300
623300
632300
636300
614300
61C380
60C180
600180
E00180
ENDCHAR
STARTCHAR 041D
ENCODING 1053
SWIDTH 720 0
DWIDTH 16 0
BBX 12 15 2 0
BITMAP
C070
C070
C070
C070
C070
C070
FFF0
FFF0
C070
C070
C070
C070
C070
C070
C070
ENDCHAR
STARTCHAR 041E
ENCODING 1054
SWIDTH 765 0
DWIDTH 17 0
BBX 15 15 1 0
BITMAP
07C0
1FF0
3838
701C
600C
E00E
E006
E006
E006
E00E
600C
701C
3838
1FF0
07C0
ENDCHAR
STARTCHAR 041F
ENCODING 1055
SWIDTH 675 0
DWIDTH 15 0
BBX 11 15 2 0
BITMAP
FFE0
FFE0
C060
C060
C060
C060
C060
C060
C060
C060
C060
C060
C060
C060
C060
ENDCHAR
STARTCHAR 0420
ENCODING 1056
SWIDTH 585 0
DWIDTH 13 0
BBX 11 15 2 0
BITMAP
FF00
FF80
C1C0
C0E0
C0E0
C0E0
C1C0
FF80
FF00
C000
C000
C000
C000
C000
C000
ENDCHAR
STARTCHAR 0421
ENCODING 1057
SWIDTH 630 0
DWIDTH 14 0
BBX 12 15 1 0
BITMAP
07E0
1FF0
3830
7000
6000
E000
E000
E000
E000
E000
6000
7000
3810
1FF0
07E0
ENDCHAR
STARTCHAR 0422
ENCODING 1058
SWIDTH 540 0
DWIDTH 12 0
BBX 12 15 0 0
BITMAP
FFF0
FFF0
0600
0600
0600
0600
0600
0600
0600
0600
0600
0600
0600
0600
0600
ENDCHAR
STARTCHAR 0423
ENCODING 1059
SWIDTH 585 0
DWIDTH 13 0
BBX 12 15 1 0
BITMAP
C070
E060
6060
70C0
30C0
30C0
1980
1D80
0F00
0F00
0700
0600
0E00
FC00
F000
ENDCHAR
STARTCHAR 0424
ENCODING 1060
SWIDTH 855 0
DWIDTH 19 0
BBX 17 16 1 0
BITMAP
01C000
01C000
0FF800
1FFC00
79CF00
61C300
E1C380
C1C180
C1C180
E1C380
61C300
79CF00
1FFC00
0FF800
01C000
01C000
ENDCHAR
STARTCHAR 0425
ENCODING 1061
SWIDTH 630 0
DWIDTH 14 0
BBX 12 15 1 0
BITMAP
E070
6060
70C0
39C0
1980
1F00
0F00
0600
0F00
1F80
39C0
30C0
60E0
E070
C030
ENDCHAR
STARTCHAR 0426
ENCODING 1062
SWIDTH 720 0
DWIDTH 16 0
BBX 13 19 2 -4
BITMAP
C060
C060
C060
C060
C060
C060
C060
C060
C060
C060
C060
C060
C060
FFF8
FFF8
0018
0018
0018
0018
ENDCHAR
STARTCHAR 0427
ENCODING 1063
SWIDTH 630 0
DWIDTH 14 0
BBX 11 15 1 0
BITMAP
C060
C060
C060
C060
C060
C060
E060
7060
7FE0
1FE0
0060
0060
0060
0060
0060
ENDCHAR
STARTCHAR 0428
ENCODING 1064
SWIDTH 990 0
DWIDTH 22 0
BBX 18 15 2 0
BITMAP
C0C0C0
C0C0C0
C0C0C0
C0C0C0
C0C0C0
C0C0C0
C0C0C0
C0C0C0
C0C0C0
C0C0C0
C0C0C0
C0C0C0
C0C0C0
FFFFC0
FFFFC0
ENDCHAR
STARTCHAR 0429
ENCODING 1065
SWIDTH 990 0
DWIDTH 22 0
BBX 20 19 2 -4
BITMAP
C0C0C0
C0C0C0
C0C0C0
C0C0C0
C0C0C0
C0C0C0
C0C0C0
C0C0C0
C0C0C0
C0C0C0
C0C0C0
C0C0C0
C0C0C0
FFFFF0
FFFFF0
000030
000030
000030
000030
ENDCHAR
STARTCHAR 042A
ENCODING 1066
SWIDTH 720 0
DWIDTH 16 0
BBX 15 15 0 0
BITMAP
FC00
FC00
0C00
0C00
0C00
0FF0
0FFC
0C1E
0C06
0C06
0C06
0C06
0C1E
0FFC
0FF0
ENDCHAR
STARTCHAR 042B
ENCODING 1067
SWIDTH 855 0
DWIDTH 19 0
BBX 15 15 2 0
BITMAP
C006
C006
C006
C006
C006
FE06
FF86
C1C6
C0C6
C0C6
C0C6
C0C6
C1C6
FF86
FE06
ENDCHAR
STARTCHAR 042C
ENCODING 1068
SWIDTH 630 0
DWIDTH 14 0
BBX 11 15 2 0
BITMAP
C000
C000
C000
C000
C000
FE00
FF80
C1C0
C0E0
C0E0
C0E0
C0E0
C1C0
FF80
FE00
ENDCHAR
STARTCHAR 042D
ENCODING 1069
SWIDTH 630 0
DWIDTH 14 0
BBX 11 15 1 0
BITMAP
7E00
FF80
81C0
00C0
0060
0060
3FE0
3FE0
0060
0060
00E0
00C0
83C0
FF80
7E00
ENDCHAR
STARTCHAR 042E
ENCODING 1070
SWIDTH 1035 0
DWIDTH 23 0
BBX 19 15 2 0
BITMAP
C03E00
C0FF80
C1C1C0
C380C0
C30060
C30060
FF0060
FF0060
C70060
C30060
C30060
C380E0
C1C1C0
C0FF80
C03E00
ENDCHAR
STARTCHAR 042F
ENCODING 1071
SWIDTH 630 0
DWIDTH 14 0
BBX 11 15 1 0
BITMAP
1FE0
3FE0
7060
E060
E060
E060
7060
7FE0
1FE0
1860
3060
3060
6060
E060
C060
ENDCHAR
STARTCHAR 0430
ENCODING 1072
SWIDTH 495 0
DWIDTH 11 0
BBX 9 12 1 0
BITMAP
7E00
7F00
0380
0180
3F80
7F80
E180
C180
C180
E180
7F80
3F80
ENDCHAR
STARTCHAR 0431
ENCODING 1073
SWIDTH 585 0
DWIDTH 13 0
BBX 11 17 1 0
BITMAP
01C0
0FC0
3C00
3000
6000
6F00
7FC0
F1C0
C0E0
C060
C060
E060
6060
60E0
71C0
3F80
1F00
ENDCHAR
STARTCHAR 0432
ENCODING 1074
SWIDTH 540 0
DWIDTH 12 0
BBX 9 12 2 0
BITMAP
FE00
FF00
C380
C180
C300
FE00
FF80
C180
C180
C180
FF80
FE00
ENDCHAR
STARTCHAR 0433
ENCODING 1075
SWIDTH 405 0
DWIDTH 9 0
BBX 7 12 2 0
BITMAP
FE
FE
C0
C0
C0
C0
C0
C0
C0
C0
C0
C0
ENDCHAR
STARTCHAR 0434
ENCODING 1076
SWIDTH 585 0
DWIDTH 13 0
BBX 13 15 0 -3
BITMAP
0FE0
0FE0
0C60
0C60
0860
1860
1860
1860
3860
3060
FFF8
FFF8
C018
C018
C018
ENDCHAR
STARTCHAR 0435
ENCODING 1077
SWIDTH 540 0
DWIDTH 12 0
BBX 10 12 1 0
BITMAP
1F00
3F80
7180
60C0
C0C0
FFC0
FFC0
C000
E000
7000
3F80
1F80
ENDCHAR
STARTCHAR 0436
ENCODING 1078
SWIDTH 765 0
DWIDTH 17 0
BBX 15 12 1 0
BITMAP
E30C
631C
3318
1B30
0F60
0FC0
1F60
1B30
3318
630C
E30E
C306
ENDCHAR
STARTCHAR 0437
ENCODING 1079
SWIDTH 495 0
DWIDTH 11 0
BBX 9 12 1 0
BITMAP
7C00
FF00
0300
0300
0300
3E00
3F00
0300
0180
8380
FF00
FE00
ENDCHAR
STARTCHAR 0438
ENCODING 1080
SWIDTH 585 0
DWIDTH 13 0
BBX 9 12 2 0
BITMAP
C180
C380
C380
C780
CD80
C980
D980
F180
F180
E180
C180
C180
ENDCHAR
STARTCHAR 0439
ENCODING 1081
SWIDTH 585 0
DWIDTH 13 0
BBX 9 16 2 0
BITMAP
6300
3E00
1C00
0000
C180
C380
C380
C780
CD80
C980
D980
F180
F180
E180
C180
C180
ENDCHAR
STARTCHAR 043A
ENCODING 1082
SWIDTH 540 0
DWIDTH 12 0
BBX 9 12 2 0
BITMAP
C380
C700
CE00
DC00
F800
F000
F800
DC00
CE00
C700
C380
C180
ENDCHAR
STARTCHAR 043B
ENCODING 1083
SWIDTH 585 0
DWIDTH 13 0
BBX 11 12 0 0
BITMAP
0FE0
0FE0
0C60
0C60
0C60
0C60
1860
1860
1860
3060
F060
4060
ENDCHAR
STARTCHAR 043C
ENCODING 1084
SWIDTH 720 0
DWIDTH 16 0
BBX 14 12 1 0
BITMAP
6018
7038
7838
6858
6858
6CD8
6498
6798
6318
631C
400C
C00C
ENDCHAR
STARTCHAR 043D
ENCODING 1085
SWIDTH 585 0
DWIDTH 13 0
BBX 9 12 2 0
BITMAP
C180
C180
C180
C180
C180
FF80
FF80
C180
C180
C180
C180
C180
ENDCHAR
STARTCHAR 043E
ENCODING 1086
SWIDTH 585 0
DWIDTH 13 0
BBX 11 12 1 0
BITMAP
1F00
3F80
71C0
60C0
C060
C060
C060
C060
60C0
71C0
3F80
1F00
ENDCHAR
STARTCHAR 043F
ENCODING 1087
SWIDTH 585 0
DWIDTH 13 0
BBX 9 12 2 0
BITMAP
FF80
FF80
C180
C180
C180
C180
C180
C180
C180
C180
C180
C180
ENDCHAR
STARTCHAR 0440
ENCODING 1088
SWIDTH 585 0
DWIDTH 13 0
BBX 10 16 2 -4
BITMAP
FE00
FF00
C380
C180
C0C0
C0C0
C0C0
C0C0
C180
C380
FF00
FE00
C000
C000
C000
C000
ENDCHAR
STARTCHAR 0441
ENCODING 1089
SWIDTH 450 0
DWIDTH 10 0
BBX 9 12 1 0
BITMAP
1F00
3F00
7000
6000
C000
C000
C000
C000
E000
7000
3F80
1F80
ENDCHAR
STARTCHAR 0442
ENCODING 1090
SWIDTH 450 0
DWIDTH 10 0
BBX 10 12 0 0
BITMAP
FFC0
FFC0
0C00
0C00
0C00
0C00
0C00
0C00
0C00
0C00
0C00
0C00
ENDCHAR
STARTCHAR 0443
ENCODING 1091
SWIDTH 495 0
DWIDTH 11 0
BBX 10 16 0 -4
BITMAP
E0C0
60C0
60C0
60C0
3180
3180
3180
1900
1B00
0F00
0E00
0600
0600
0C00
F800
F000
ENDCHAR
STARTCHAR 0444
ENCODING 1092
SWIDTH 765 0
DWIDTH 17 0
BBX 15 21 1 -4
BITMAP
0300
0300
0300
0300
0300
0FE0
3FF8
731C
630C
C30E
C306
C306
C30E
630C
731C
3FF8
0FE0
0300
0300
0300
0300
ENDCHAR
STARTCHAR 0445
ENCODING 1093
SWIDTH 495 0
DWIDTH 11 0
BBX 10 12 1 0
BITMAP
C180
6300
7300
3600
1C00
1C00
1C00
3600
3700
6300
C180
C1C0
ENDCHAR
STARTCHAR 0446
ENCODING 1094
SWIDTH 585 0
DWIDTH 13 0
BBX 10 15 2 -3
BITMAP
C180
C180
C180
C180
C180
C180
C180
C180
C180
C180
FFC0
FFC0
00C0
00C0
00C0
ENDCHAR
STARTCHAR 0447
ENCODING 1095
SWIDTH 540 0
DWIDTH 12 0
BBX 9 12 1 0
BITMAP
C180
C180
C180
C180
C180
E180
7F80
3F80
0180
0180
0180
0180
ENDCHAR
STARTCHAR 0448
ENCODING 1096
SWIDTH 810 0
DWIDTH 18 0
BBX 14 12 2 0
BITMAP
C30C
C30C
C30C
C30C
C30C
C30C
C30C
C30C
C30C
C30C
FFFC
FFFC
ENDCHAR
STARTCHAR 0449
ENCODING 1097
SWIDTH 810 0
DWIDTH 18 0
BBX 16 15 2 -3
BITMAP
C30C
C30C
C30C
C30C
C30C
C30C
C30C
C30C
C30C
C30C
FFFF
FFFF
0003
0003
0003
ENDCHAR
STARTCHAR 044A
ENCODING 1098
SWIDTH 585 0
DWIDTH 13 0
BBX 12 12 0 0
BITMAP
F800
F800
1800
1800
1FC0
1FF0
1830
1830
1830
1830
1FF0
1FC0
ENDCHAR
STARTCHAR 044B
ENCODING 1099
SWIDTH 765 0
DWIDTH 17 0
BBX 13 12 2 0
BITMAP
C018
C018
C018
C018
FE18
FF18
C398
C198
C198
C398
FF18
FE18
ENDCHAR
STARTCHAR 044C
ENCODING 1100
SWIDTH 540 0
DWIDTH 12 0
BBX 9 12 2 0
BITMAP
C000
C000
C000
C000
FE00
FF00
C380
C180
C180
C380
FF00
FE00
ENDCHAR
STARTCHAR 044D
ENCODING 1101
SWIDTH 495 0
DWIDTH 11 0
BBX 9 12 1 0
BITMAP
FC00
FE00
0700
0300
0180
3F80
3F80
0180
0300
0700
FE00
FC00
ENDCHAR
STARTCHAR 044E
ENCODING 1102
SWIDTH 810 0
DWIDTH 18 0
BBX 15 12 2 0
BITMAP
C1F0
C3F8
C71C
C60C
CE0E
FC06
FC06
CE0E
C60C
C71C
C3F8
C1F0
ENDCHAR
STARTCHAR 044F
ENCODING 1103
SWIDTH 540 0
DWIDTH 12 0
BBX 9 12 1 0
BITMAP
3F80
7F80
6180
C180
E180
7F80
3F80
3180
6180
6180
C180
C180
ENDCHAR
STARTCHAR 0450
ENCODING 1104
SWIDTH 540 0
DWIDTH 12 0
BBX 10 17 1 0
BITMAP
1000
1800
0C00
0400
0000
1F00
3F80
7180
60C0
C0C0
FFC0
FFC0
C000
E000
7000
3F80
1F80
ENDCHAR
STARTCHAR 0451
ENCODING 1105
SWIDTH 540 0
DWIDTH 12 0
BBX 10 17 1 0
BITMAP
3300
3380
3300
0000
0000
1F00
3F80
7180
60C0
C0C0
FFC0
FFC0
C000
E000
7000
3F80
1F80
ENDCHAR
STARTCHAR 0452
ENCODING 1106
SWIDTH 585 0
DWIDTH 13 0
BBX 11 21 0 -4
BITMAP
3000
FF00
FF00
3000
3000
3F80
3FC0
30E0
3060
3060
3060
3060
3060
3060
3060
3060
3060
0060
0060
03E0
03C0
ENDCHAR
STARTCHAR 0453
ENCODING 1107
SWIDTH 405 0
DWIDTH 9 0
BBX 7 17 2 0
BITMAP
04
0C
18
10
00
FE
FE
C0
C0
C0
C0
C0
C0
C0
C0
C0
C0
ENDCHAR
STARTCHAR 0454
ENCODING 1108
SWIDTH 495 0
DWIDTH 11 0
BBX 9 12 1 0
BITMAP
1F80
3F80
7000
6000
C000
FE00
FE00
C000
6000
7000
3F80
1F80
ENDCHAR
STARTCHAR 0455
ENCODING 1109
SWIDTH 450 0
DWIDTH 10 0
BBX 8 12 1 0
BITMAP
3E
7E
C0
C0
E0
7C
3E
07
03
83
FE
FC
ENDCHAR
STARTCHAR 0456
ENCODING 1110
SWIDTH 270 0
DWIDTH 6 0
BBX 2 16 2 0
BITMAP
C0
C0
00
00
C0
C0
C0
C0
C0
C0
C0
C0
C0
C0
C0
C0
ENDCHAR
STARTCHAR 0457
ENCODING 1111
SWIDTH 270 0
DWIDTH 6 0
BBX 7 17 -1 0
BITMAP
66
E6
66
00
00
18
18
18
18
18
18
18
18
18
18
18
18
ENDCHAR
STARTCHAR 0458
ENCODING 1112
SWIDTH 270 0
DWIDTH 6 0
BBX 5 20 -1 -4
BITMAP
18
18
00
00
18
18
18
18
18
18
18
18
18
18
18
18
18
38
F0
E0
ENDCHAR
STARTCHAR 0459
ENCODING 1113
SWIDTH 855 0
DWIDTH 19 0
BBX 18 12 0 0
BITMAP
0FE000
0FE000
0C6000
0C6000
0C7F00
0C7FC0
1861C0
1860C0
1860C0
7060C0
F07FC0
407F00
ENDCHAR
STARTCHAR 045A
ENCODING 1114
SWIDTH 855 0
DWIDTH 19 0
BBX 16 12 2 0
BITMAP
C180
C180
C180
C180
C1FC
FFFE
FF87
C183
C183
C187
C1FE
C1FC
ENDCHAR
STARTCHAR 045B
ENCODING 1115
SWIDTH 585 0
DWIDTH 13 0
BBX 11 17 0 0
BITMAP
3000
FF00
FF00
3000
3000
3F80
3FC0
30E0
3060
3060
3060
3060
3060
3060
3060
3060
3060
ENDCHAR
STARTCHAR 045C
ENCODING 1116
SWIDTH 540 0
DWIDTH 12 0
BBX 9 17 2 0
BITMAP
0400
0C00
1800
1000
0000
C380
C700
CE00
DC00
F800
F000
F800
DC00
CE00
C700
C380
C180
ENDCHAR
STARTCHAR 045D
ENCODING 1117
SWIDTH 585 0
DWIDTH 13 0
BBX 9 17 2 0
BITMAP
1000
3800
0C00
0400
0000
C180
C380
C380
C780
CD80
C980
D980
F180
F180
E180
C180
C180
ENDCHAR
STARTCHAR 045E
ENCODING 1118
SWIDTH 495 0
DWIDTH 11 0
BBX 10 20 0 -4
BITMAP
1180
1F80
0F00
0000
E0C0
60C0
60C0
60C0
3180
3180
3180
1900
1B00
0F00
0E00
0600
0600
0C00
F800
F000
ENDCHAR
STARTCHAR 045F
ENCODING 1119
SWIDTH 585 0
DWIDTH 13 0
BBX 9 15 2 -3
BITMAP
C180
C180
C180
C180
C180
C180
C180
C180
C180
C180
FF80
FF80
1800
1800
1800
ENDCHAR
STARTCHAR 0462
ENCODING 1122
SWIDTH 720 0
DWIDTH 16 0
BBX 15 16 0 0
BITMAP
0C00
0C00
FFE0
FFE0
0C00
0C00
0FF0
0FFC
0C1E
0C06
0C06
0C06
0C06
0C1E
0FFC
0FF0
ENDCHAR
STARTCHAR 0463
ENCODING 1123
SWIDTH 585 0
DWIDTH 13 0
BBX 12 17 0 0
BITMAP
1800
1800
1800
1800
1800
FF80
FF80
1800
1800
1FC0
1FF0
1830
1830
1830
1830
1FF0
1FC0
ENDCHAR
STARTCHAR 0472
ENCODING 1138
SWIDTH 765 0
DWIDTH 17 0
BBX 15 15 1 0
BITMAP
07C0
1FF0
3838
700C
600C
EE06
FF8E
F1FE
E07E
E00E
600C
701C
3838
1FF0
07C0
ENDCHAR
STARTCHAR 0473
ENCODING 1139
SWIDTH 585 0
DWIDTH 13 0
BBX 11 12 1 0
BITMAP
1F00
3F80
61C0
60C0
F860
FC60
E7E0
C3E0
60C0
70C0
3F80
1F00
ENDCHAR
STARTCHAR 0474
ENCODING 1140
SWIDTH 765 0
DWIDTH 17 0
BBX 17 15 0 0
BITMAP
E00700
600F80
601C00
701800
303800
383000
183000
186000
1C6000
0CE000
0EC000
06C000
078000
038000
030000
ENDCHAR
STARTCHAR 0475
ENCODING 1141
SWIDTH 540 0
DWIDTH 12 0
BBX 13 12 0 0
BITMAP
E078
60F0
60C0
70C0
3180
3180
3900
1B00
1B00
0E00
0E00
0E00
ENDCHAR
STARTCHAR 048A
ENCODING 1162
SWIDTH 720 0
DWIDTH 16 0
BBX 14 23 2 -4
BITMAP
1980
1F80
0F00
0000
C030
C070
C0F0
C1F0
C1B0
C330
C630
CE30
CC30
D830
F830
F030
E030
E03C
C03C
000C
0018
0018
0010
ENDCHAR
STARTCHAR 048B
ENCODING 1163
SWIDTH 585 0
DWIDTH 13 0
BBX 11 21 2 -4
BITMAP
6300
3E00
1C00
0000
0000
C180
C380
C380
C780
CD80
C980
D980
F180
F180
E180
C1E0
C1E0
0060
0060
00C0
0080
ENDCHAR
STARTCHAR 048C
ENCODING 1164
SWIDTH 630 0
DWIDTH 14 0
BBX 13 16 0 0
BITMAP
3000
3000
FE00
FE00
3000
3000
3FC0
3FF0
3070
3038
3018
3018
3038
3070
3FF0
3FC0
ENDCHAR
STARTCHAR 048D
ENCODING 1165
SWIDTH 540 0
DWIDTH 12 0
BBX 11 12 0 0
BITMAP
3000
FE00
FE00
3000
3000
3F80
3FC0
30E0
3060
30E0
3FC0
3F80
ENDCHAR
STARTCHAR 048E
ENCODING 1166
SWIDTH 585 0
DWIDTH 13 0
BBX 11 15 2 0
BITMAP
FF00
FF80
C1C0
C0E0
C0E0
CCE0
C7C0
FF80
FF00
C300
C180
C100
C000
C000
C000
ENDCHAR
STARTCHAR 048F
ENCODING 1167
SWIDTH 585 0
DWIDTH 13 0
BBX 10 16 2 -4
BITMAP
FE00
FF00
C380
C180
C0C0
C0C0
C0C0
CCC0
CD80
C780
FF00
FF00
C100
C100
C000
C000
ENDCHAR
STARTCHAR 0490
ENCODING 1168
SWIDTH 495 0
DWIDTH 11 0
BBX 9 18 2 0
BITMAP
0180
0180
0180
FF80
FF80
C000
C000
C000
C000
C000
C000
C000
C000
C000
C000
C000
C000
C000
ENDCHAR
STARTCHAR 0491
ENCODING 1169
SWIDTH 405 0
DWIDTH 9 0
BBX 7 15 2 0
BITMAP
06
06
06
FE
FE
C0
C0
C0
C0
C0
C0
C0
C0
C0
C0
ENDCHAR
STARTCHAR 0492
ENCODING 1170
SWIDTH 495 0
DWIDTH 11 0
BBX 11 15 0 0
BITMAP
3FE0
3FE0
3000
3000
3000
3000
FF00
FF00
3000
3000
3000
3000
3000
3000
3000
ENDCHAR
STARTCHAR 0493
ENCODING 1171
SWIDTH 405 0
DWIDTH 9 0
BBX 9 12 0 0
BITMAP
3F80
3F80
3000
3000
3000
FE00
FE00
3000
3000
3000
3000
3000
ENDCHAR
STARTCHAR 0494
ENCODING 1172
SWIDTH 630 0
DWIDTH 14 0
BBX 11 19 2 -4
BITMAP
FF80
FF80
C000
C000
C000
C000
FF00
FF80
C1C0
C0C0
C0E0
C060
C060
C060
C0E0
00C0
01C0
0F80
0E00
ENDCHAR
STARTCHAR 0495
ENCODING 1173
SWIDTH 540 0
DWIDTH 12 0
BBX 9 16 2 -4
BITMAP
FF00
FF00
C000
C000
C000
FE00
FF00
C380
C180
C180
C180
C180
0180
0380
0F00
0E00
ENDCHAR
STARTCHAR 0496
ENCODING 1174
SWIDTH 900 0
DWIDTH 20 0
BBX 19 19 1 -4
BITMAP
E0C1C0
70C380
30C300
18C600
1CCC00
0EDC00
06F800
03F000
06D800
0CCC00
18C600
30C700
70C380
E0C1E0
C0C0E0
000060
000060
000060
000060
ENDCHAR
STARTCHAR 0497
ENCODING 1175
SWIDTH 765 0
DWIDTH 17 0
BBX 16 15 1 -3
BITMAP
E30C
631C
3318
1B30
0F60
0FC0
1FE0
1B70
3338
631C
E30F
C307
0003
0003
0003
ENDCHAR
STARTCHAR 0498
ENCODING 1176
SWIDTH 585 0
DWIDTH 13 0
BBX 10 18 1 -3
BITMAP
7F00
FF80
41C0
00C0
01C0
0380
3F00
3F80
01C0
00C0
00C0
00C0
81C0
FF80
7F00
0C00
0600
1C00
ENDCHAR
STARTCHAR 0499
ENCODING 1177
SWIDTH 495 0
DWIDTH 11 0
BBX 9 15 1 -3
BITMAP
7C00
FF00
0300
0300
0300
3E00
3F00
0300
0180
8380
FF00
FE00
1800
0C00
3800
ENDCHAR
STARTCHAR 049A
ENCODING 1178
SWIDTH 630 0
DWIDTH 14 0
BBX 12 19 2 -4
BITMAP
C0E0
C1C0
C380
C300
C600
CC00
D800
F000
DC00
CE00
C700
C380
C1C0
C0F0
C070
0030
0030
0030
0030
ENDCHAR
STARTCHAR 049B
ENCODING 1179
SWIDTH 540 0
DWIDTH 12 0
BBX 10 15 2 -3
BITMAP
C380
C300
C600
CC00
D800
F000
F800
DC00
CE00
C700
C3C0
C1C0
00C0
00C0
00C0
ENDCHAR
STARTCHAR 049C
ENCODING 1180
SWIDTH 720 0
DWIDTH 16 0
BBX 13 15 2 0
BITMAP
C030
C060
C0E0
C1C0
DB80
DB00
DE00
FE00
FF00
DB80
D9C0
D8E0
C060
C030
C038
ENDCHAR
STARTCHAR 049D
ENCODING 1181
SWIDTH 630 0
DWIDTH 14 0
BBX 11 12 2 0
BITMAP
C0C0
C1C0
D980
DB00
DE00
FC00
DE00
DB00
DB80
C180
C0C0
C060
ENDCHAR
STARTCHAR 049E
ENCODING 1182
SWIDTH 630 0
DWIDTH 14 0
BBX 14 15 0 0
BITMAP
3038
3070
FCE0
FDC0
3180
3300
3600
3E00
3F00
3780
31C0
30E0
3070
3038
301C
ENDCHAR
STARTCHAR 049F
ENCODING 1183
SWIDTH 540 0
DWIDTH 12 0
BBX 12 12 0 0
BITMAP
3060
30C0
FD80
3300
3600
3C00
3600
3300
3180
30C0
30E0
3070
ENDCHAR
STARTCHAR 04A0
ENCODING 1184
SWIDTH 720 0
DWIDTH 16 0
BBX 16 15 0 0
BITMAP
FC0E
FC0C
0C18
0C30
0C60
0CC0
0D80
0F80
0FC0
0DE0
0C70
0C38
0C1C
0C0E
0C07
ENDCHAR
STARTCHAR 04A1
ENCODING 1185
SWIDTH 585 0
DWIDTH 13 0
BBX 13 12 0 0
BITMAP
F830
F860
18C0
1980
1B00
1F00
1F80
19C0
18E0
1860
1830
1838
ENDCHAR
STARTCHAR 04A2
ENCODING 1186
SWIDTH 720 0
DWIDTH 16 0
BBX 14 19 2 -4
BITMAP
C070
C070
C070
C070
C070
C070
FFF0
FFF0
C070
C070
C070
C070
C070
C07C
C07C
000C
000C
000C
000C
ENDCHAR
STARTCHAR 04A3
ENCODING 1187
SWIDTH 585 0
DWIDTH 13 0
BBX 11 15 2 -3
BITMAP
C180
C180
C180
C180
C180
FF80
FF80
C180
C180
C180
C1E0
C1E0
0060
0060
0060
ENDCHAR
STARTCHAR 04A4
ENCODING 1188
SWIDTH 810 0
DWIDTH 18 0
BBX 16 15 2 0
BITMAP
C07F
C07F
C070
C070
C070
C070
FFF0
FFF0
C070
C070
C070
C070
C070
C070
C070
ENDCHAR
STARTCHAR 04A5
ENCODING 1189
SWIDTH 630 0
DWIDTH 14 0
BBX 12 12 2 0
BITMAP
C1F0
C1F0
C180
C180
C180
FF80
FF80
C180
C180
C180
C180
C180
ENDCHAR
STARTCHAR 04A6
ENCODING 1190
SWIDTH 1035 0
DWIDTH 23 0
BBX 20 19 2 -4
BITMAP
FFE000
FFE000
C06000
C06000
C06000
C06000
C07F80
C07FC0
C060E0
C06060
C06070
C06030
C06030
C06030
C06070
000060
0000E0
0007C0
000700
ENDCHAR
STARTCHAR 04A7
ENCODING 1191
SWIDTH 855 0
DWIDTH 19 0
BBX 16 16 2 -4
BITMAP
FF80
FF80
C180
C180
C180
C1FC
C1FE
C187
C183
C183
C183
C183
0003
0007
001E
001C
ENDCHAR
STARTCHAR 04A8
ENCODING 1192
SWIDTH 765 0
DWIDTH 17 0
BBX 15 19 1 -4
BITMAP
07E0
1FE0
3800
7000
60F8
E1FC
E18E
E306
E306
E306
6306
730C
3B9C
1FF8
07E0
00C0
00F0
003C
001C
ENDCHAR
STARTCHAR 04A9
ENCODING 1193
SWIDTH 585 0
DWIDTH 13 0
BBX 11 15 1 -3
BITMAP
1F00
3E00
7000
63C0
C7E0
C660
CC60
CC60
6460
76E0
3FC0
1F80
0300
01E0
00E0
ENDCHAR
STARTCHAR 04AA
ENCODING 1194
SWIDTH 630 0
DWIDTH 14 0
BBX 12 18 1 -3
BITMAP
07E0
1FF0
3830
7000
6000
E000
E000
E000
E000
E000
6000
7000
3810
1FF0
07E0
0300
0180
0700
ENDCHAR
STARTCHAR 04AB
ENCODING 1195
SWIDTH 450 0
DWIDTH 10 0
BBX 9 16 1 -4
BITMAP
1F00
3F00
7000
6000
C000
C000
C000
C000
6000
7000
3F80
1F80
0C00
0E00
0600
1C00
ENDCHAR
STARTCHAR 04AC
ENCODING 1196
SWIDTH 540 0
DWIDTH 12 0
BBX 12 19 0 -4
BITMAP
FFF0
FFF0
0600
0600
0600
0600
0600
0600
0600
0600
0600
0600
0600
0780
0780
0180
0180
0180
0180
ENDCHAR
STARTCHAR 04AD
ENCODING 1197
SWIDTH 450 0
DWIDTH 10 0
BBX 10 15 0 -3
BITMAP
FFC0
FFC0
0C00
0C00
0C00
0C00
0C00
0C00
0C00
0C00
0F00
0F00
0300
0300
0300
ENDCHAR
STARTCHAR 04AE
ENCODING 1198
SWIDTH 585 0
DWIDTH 13 0
BBX 13 15 0 0
BITMAP
E038
6030
3070
3860
18C0
1CC0
0D80
0780
0700
0300
0300
0300
0300
0300
0300
ENDCHAR
STARTCHAR 04AF
ENCODING 1199
SWIDTH 495 0
DWIDTH 11 0
BBX 11 16 0 -4
BITMAP
E0E0
60C0
60C0
70C0
3180
3180
3980
1B00
1B00
1F00
0E00
0E00
0E00
0E00
0E00
0E00
ENDCHAR
STARTCHAR 04B0
ENCODING 1200
SWIDTH 585 0
DWIDTH 13 0
BBX 13 15 0 0
BITMAP
E038
6030
3070
3060
18C0
1CC0
0D80
0F80
0700
3FE0
3FE0
0300
0300
0300
0300
ENDCHAR
STARTCHAR 04B1
ENCODING 1201
SWIDTH 495 0
DWIDTH 11 0
BBX 11 16 0 -4
BITMAP
E0E0
60C0
60C0
70C0
3180
3180
1980
1B00
1B00
0E00
7FC0
7FC0
0E00
0E00
0E00
0E00
ENDCHAR
STARTCHAR 04B2
ENCODING 1202
SWIDTH 630 0
DWIDTH 14 0
BBX 13 19 1 -4
BITMAP
E070
6060
70C0
39C0
1980
1F00
0F00
0700
0F00
1F80
39C0
30C0
60E0
E078
C038
0018
0018
0018
0018
ENDCHAR
STARTCHAR 04B3
ENCODING 1203
SWIDTH 540 0
DWIDTH 12 0
BBX 10 15 1 -3
BITMAP
C180
6300
7300
3600
1C00
1C00
1C00
3600
3700
6380
C1C0
C1C0
00C0
00C0
00C0
ENDCHAR
STARTCHAR 04B4
ENCODING 1204
SWIDTH 855 0
DWIDTH 19 0
BBX 18 19 0 -4
BITMAP
FFE300
FFE300
060300
060300
060300
060300
060300
060300
060300
060300
060300
060300
060300
07FFC0
07FFC0
0000C0
0000C0
0000C0
0000C0
ENDCHAR
STARTCHAR 04B5
ENCODING 1205
SWIDTH 675 0
DWIDTH 15 0
BBX 14 15 0 -3
BITMAP
FF38
FF38
1838
1838
1838
1838
1838
1838
1838
1838
1FFC
1FFC
000C
000C
000C
ENDCHAR
STARTCHAR 04B6
ENCODING 1206
SWIDTH 630 0
DWIDTH 14 0
BBX 13 19 1 -4
BITMAP
C060
C060
C060
C060
C060
C060
E060
7060
7FE0
1FE0
0060
0060
0060
0078
0078
0018
0018
0018
0018
ENDCHAR
STARTCHAR 04B7
ENCODING 1207
SWIDTH 540 0
DWIDTH 12 0
BBX 11 15 1 -3
BITMAP
C180
C180
C180
C180
C180
E180
7F80
3F80
0180
0180
01E0
01E0
0060
0060
0060
ENDCHAR
STARTCHAR 04B8
ENCODING 1208
SWIDTH 630 0
DWIDTH 14 0
BBX 11 15 1 0
BITMAP
C060
C060
C060
C060
C060
C660
E660
7660
7FE0
1FE0
0660
0660
0660
0060
0060
ENDCHAR
STARTCHAR 04B9
ENCODING 1209
SWIDTH 540 0
DWIDTH 12 0
BBX 9 12 1 0
BITMAP
C180
C180
C180
C180
C980
E980
7F80
3F80
0980
0980
0180
0180
ENDCHAR
STARTCHAR 04BA
ENCODING 1210
SWIDTH 630 0
DWIDTH 14 0
BBX 11 15 2 0
BITMAP
C000
C000
C000
C000
C000
FF00
FFC0
C1C0
C0E0
C060
C060
C060
C060
C060
C060
ENDCHAR
STARTCHAR 04BB
ENCODING 1211
SWIDTH 585 0
DWIDTH 13 0
BBX 9 17 2 0
BITMAP
C000
C000
C000
C000
C000
FE00
FF00
C380
C180
C180
C180
C180
C180
C180
C180
C180
C180
ENDCHAR
STARTCHAR 04BC
ENCODING 1212
SWIDTH 810 0
DWIDTH 18 0
BBX 17 15 0 0
BITMAP
00FC00
03FE00
038700
060380
C60180
CC0180
7FFF80
3FFF80
0C0000
0E0000
060000
070000
038100
01FF00
00FE00
ENDCHAR
STARTCHAR 04BD
ENCODING 1213
SWIDTH 675 0
DWIDTH 15 0
BBX 14 12 0 0
BITMAP
01E0
07F0
0E38
CC18
CC18
7FFC
3FFC
0C00
0C00
0E00
07F8
01F0
ENDCHAR
STARTCHAR 04BE
ENCODING 1214
SWIDTH 810 0
DWIDTH 18 0
BBX 17 19 0 -4
BITMAP
00FC00
03FE00
038700
060380
C60180
CC0180
7FFF80
3FFF80
0C0000
0E0000
060000
070000
038100
01FF00
00FE00
003000
003000
003000
003000
ENDCHAR
STARTCHAR 04BF
ENCODING 1215
SWIDTH 675 0
DWIDTH 15 0
BBX 14 15 0 -3
BITMAP
01E0
07F0
0E38
CC18
CC18
7FFC
3FFC
0C00
0C00
0E00
07F8
01F0
00C0
00C0
00C0
ENDCHAR
STARTCHAR 04C0
ENCODING 1216
SWIDTH 270 0
DWIDTH 6 0
BBX 2 15 2 0
BITMAP
C0
C0
C0
C0
C0
C0
C0
C0
C0
C0
C0
C0
C0
C0
C0
ENDCHAR
STARTCHAR 04C1
ENCODING 1217
SWIDTH 900 0
DWIDTH 20 0
BBX 18 19 1 0
BITMAP
033000
03F000
01E000
000000
E0C1C0
60C380
30C300
18C600
1CCE00
0EDC00
06F800
03F000
06D800
0CCC00
18C600
30C300
70C380
E0C180
C0C0C0
ENDCHAR
STARTCHAR 04C2
ENCODING 1218
SWIDTH 765 0
DWIDTH 17 0
BBX 15 16 1 0
BITMAP
0C60
07C0
0380
0000
E30C
631C
3318
1B30
0F60
0FC0
1F60
1B30
3318
630C
E30E
C306
ENDCHAR
STARTCHAR 04C3
ENCODING 1219
SWIDTH 630 0
DWIDTH 14 0
BBX 11 19 2 -4
BITMAP
C0C0
C180
C380
C700
CE00
DC00
D800
FE00
FF80
C1C0
C0E0
C060
C060
C060
C060
00C0
01C0
0F80
0F00
ENDCHAR
STARTCHAR 04C4
ENCODING 1220
SWIDTH 540 0
DWIDTH 12 0
BBX 9 16 2 -4
BITMAP
C380
C300
C600
CC00
D800
FC00
FF00
C380
C180
C180
C180
C180
0180
0380
0F00
0E00
ENDCHAR
STARTCHAR 04C5
ENCODING 1221
SWIDTH 720 0
DWIDTH 16 0
BBX 16 19 0 -4
BITMAP
07FC
07FC
060C
060C
060C
060C
060C
060C
0E0C
0C0C
0C0C
1C0C
380C
F00F
E00F
0006
0006
000C
0008
ENDCHAR
STARTCHAR 04C6
ENCODING 1222
SWIDTH 585 0
DWIDTH 13 0
BBX 13 16 0 -4
BITMAP
0FE0
0FE0
0C60
0C60
0C60
0C60
1860
1860
1860
3060
F078
4078
0018
0018
0030
0020
ENDCHAR
STARTCHAR 04C7
ENCODING 1223
SWIDTH 720 0
DWIDTH 16 0
BBX 12 19 2 -4
BITMAP
C070
C070
C070
C070
C070
C070
FFF0
FFF0
C070
C070
C070
C070
C070
C070
C070
0070
0070
01E0
01C0
ENDCHAR
STARTCHAR 04C8
ENCODING 1224
SWIDTH 585 0
DWIDTH 13 0
BBX 9 16 2 -4
BITMAP
C180
C180
C180
C180
C180
FF80
FF80
C180
C180
C180
C180
C180
0180
0180
0780
0700
ENDCHAR
STARTCHAR 04C9
ENCODING 1225
SWIDTH 720 0
DWIDTH 16 0
BBX 14 19 2 -4
BITMAP
C070
C070
C070
C070
C070
C070
FFF0
FFF0
C070
C070
C070
C070
C070
C07C
C078
0018
0018
0030
0020
ENDCHAR
STARTCHAR 04CA
ENCODING 1226
SWIDTH 585 0
DWIDTH 13 0
BBX 11 16 2 -4
BITMAP
C180
C180
C180
C180
C180
FF80
FF80
C180
C180
C180
C1E0
C1E0
0060
00C0
00C0
0080
ENDCHAR
STARTCHAR 04CB
ENCODING 1227
SWIDTH 630 0
DWIDTH 14 0
BBX 11 19 1 -4
BITMAP
E060
E060
E060
E060
E060
E060
6060
7060
7FE0
1FE0
0060
0060
0060
01E0
01E0
0180
0180
0180
0180
ENDCHAR
STARTCHAR 04CC
ENCODING 1228
SWIDTH 540 0
DWIDTH 12 0
BBX 9 15 1 -3
BITMAP
C180
C180
C180
C180
C180
E180
7F80
3F80
0180
0180
0780
0780
0600
0600
0600
ENDCHAR
STARTCHAR 04CD
ENCODING 1229
SWIDTH 900 0
DWIDTH 20 0
BBX 19 19 1 -4
BITMAP
300700
700700
780F00
680B00
6C1B00
641300
661300
623300
632300
636300
614300
61C380
60C180
6001E0
E001C0
0000C0
0000C0
000180
000100
ENDCHAR
STARTCHAR 04CE
ENCODING 1230
SWIDTH 765 0
DWIDTH 17 0
BBX 15 16 1 -4
BITMAP
6018
7038
7838
6858
6858
6CD8
6498
6798
6318
631C
400E
C00E
0006
0006
000C
000C
ENDCHAR
STARTCHAR 04CF
ENCODING 1231
SWIDTH 270 0
DWIDTH 6 0
BBX 2 15 2 0
BITMAP
C0
C0
C0
C0
C0
C0
C0
C0
C0
C0
C0
C0
C0
C0
C0
ENDCHAR
STARTCHAR 04D0
ENCODING 1232
SWIDTH 675 0
DWIDTH 15 0
BBX 14 19 0 0
BITMAP
0C60
07C0
0780
0000
0380
0380
0780
06C0
0CC0
0C60
1860
1870
1830
3FF0
3FF8
7018
6018
600C
E00C
ENDCHAR
STARTCHAR 04D1
ENCODING 1233
SWIDTH 495 0
DWIDTH 11 0
BBX 9 16 1 0
BITMAP
2300
3F00
1E00
0000
7E00
7F00
0380
0180
3F80
7F80
E180
C180
C180
E180
7F80
3F80
ENDCHAR
STARTCHAR 04D2
ENCODING 1234
SWIDTH 675 0
DWIDTH 15 0
BBX 14 20 0 0
BITMAP
0CC0
0CE0
0CC0
0000
0000
0380
0380
0780
06C0
0CC0
0C60
1860
1870
1830
3FF0
3FF8
7018
6018
600C
E00C
ENDCHAR
STARTCHAR 04D3
ENCODING 1235
SWIDTH 495 0
DWIDTH 11 0
BBX 9 17 1 0
BITMAP
3300
7300
3300
0000
0000
7E00
7F00
0380
0180
3F80
7F80
E180
C180
C180
E180
7F80
3F80
ENDCHAR
STARTCHAR 04D4
ENCODING 1236
SWIDTH 945 0
DWIDTH 21 0
BBX 20 15 0 0
BITMAP
007FE0
00FFE0
00F800
01B800
033800
033800
063FC0
0C3FC0
0C3800
1FF800
1FF800
303800
303800
603FF0
E03FF0
ENDCHAR
STARTCHAR 04D5
ENCODING 1237
SWIDTH 855 0
DWIDTH 19 0
BBX 17 12 1 0
BITMAP
7E3C00
7F7F00
03C300
018180
3FFF80
7FFF80
E18000
C18000
C1C000
E1E000
7FFF00
3E3F00
ENDCHAR
STARTCHAR 04D6
ENCODING 1238
SWIDTH 585 0
DWIDTH 13 0
BBX 10 19 2 0
BITMAP
6300
3E00
3C00
0000
FF80
FF80
C000
C000
C000
C000
FF00
FF00
C000
C000
C000
C000
C000
FFC0
FFC0
ENDCHAR
STARTCHAR 04D7
ENCODING 1239
SWIDTH 540 0
DWIDTH 12 0
BBX 10 16 1 0
BITMAP
3100
3F00
1E00
0000
1F00
3F80
7180
60C0
C0C0
FFC0
FFC0
C000
E000
7000
3F80
1F80
ENDCHAR
STARTCHAR 04D8
ENCODING 1240
SWIDTH 720 0
DWIDTH 16 0
BBX 13 15 1 0
BITMAP
3F80
7FE0
20F0
0030
0038
0018
0018
FFF8
FFF8
C018
6018
6030
7070
3FE0
0F80
ENDCHAR
STARTCHAR 04D9
ENCODING 1241
SWIDTH 540 0
DWIDTH 12 0
BBX 10 12 1 0
BITMAP
7E00
7F80
0180
00C0
00C0
FFC0
FFC0
C0C0
E0C0
6180
7F80
1E00
ENDCHAR
STARTCHAR 04DA
ENCODING 1242
SWIDTH 720 0
DWIDTH 16 0
BBX 13 20 1 0
BITMAP
18C0
1DC0
18C0
0000
0000
3F80
7FE0
20F0
0030
0038
0018
0018
FFF8
FFF8
C018
6018
6030
7070
3FE0
0F80
ENDCHAR
STARTCHAR 04DB
ENCODING 1243
SWIDTH 540 0
DWIDTH 12 0
BBX 10 17 1 0
BITMAP
3300
3300
3300
0000
0000
7E00
7F80
0180
00C0
00C0
FFC0
FFC0
C0C0
E0C0
6180
7F80
1E00
ENDCHAR
STARTCHAR 04DC
ENCODING 1244
SWIDTH 900 0
DWIDTH 20 0
BBX 18 20 1 0
BITMAP
033000
033000
033000
000000
000000
E0C1C0
60C380
30C300
18C600
1CCE00
0EDC00
06F800
03F000
06D800
0CCC00
18C600
30C300
70C380
E0C180
C0C0C0
ENDCHAR
STARTCHAR 04DD
ENCODING 1245
SWIDTH 765 0
DWIDTH 17 0
BBX 15 17 1 0
BITMAP
0C40
0EE0
0C40
0000
0000
E30C
631C
3318
1B30
0F60
0FC0
1F60
1B30
3318
630C
E30E
C306
ENDCHAR
STARTCHAR 04DE
ENCODING 1246
SWIDTH 585 0
DWIDTH 13 0
BBX 10 20 1 0
BITMAP
2300
7700
2300
0000
0000
7F00
FF80
41C0
00C0
01C0
0380
3F00
3F80
01C0
00C0
00C0
00C0
81C0
FF80
7F00
ENDCHAR
STARTCHAR 04DF
ENCODING 1247
SWIDTH 495 0
DWIDTH 11 0
BBX 9 17 1 0
BITMAP
6600
6600
6600
0000
0000
7C00
FF00
0300
0300
0300
3E00
3F00
0300
0180
8380
FF00
FE00
ENDCHAR
STARTCHAR 04E0
ENCODING 1248
SWIDTH 540 0
DWIDTH 12 0
BBX 10 15 1 0
BITMAP
FFC0
FFC0
0180
0300
0600
0C00
1F00
1F80
01C0
00C0
00C0
00C0
81C0
FF80
7F00
ENDCHAR
STARTCHAR 04E1
ENCODING 1249
SWIDTH 450 0
DWIDTH 10 0
BBX 9 16 0 -4
BITMAP
FF80
FF80
0300
0700
0600
0C00
1800
1E00
0380
0180
0180
0180
0180
8380
FF00
FE00
ENDCHAR
STARTCHAR 04E2
ENCODING 1250
SWIDTH 720 0
DWIDTH 16 0
BBX 12 19 2 0
BITMAP
1F80
1F80
0000
0000
C030
C070
C0F0
C1F0
C1B0
C330
C630
CE30
CC30
D830
F830
F030
E030
E030
C030
ENDCHAR
STARTCHAR 04E3
ENCODING 1251
SWIDTH 585 0
DWIDTH 13 0
BBX 9 16 2 0
BITMAP
7F00
7F00
0000
0000
C180
C380
C380
C780
CD80
C980
D980
F180
F180
E180
C180
C180
ENDCHAR
STARTCHAR 04E4
ENCODING 1252
SWIDTH 720 0
DWIDTH 16 0
BBX 12 20 2 0
BITMAP
1980
1980
1980
0000
0000
C030
C070
C0F0
C1F0
C1B0
C330
C630
CE30
CC30
D830
F830
F030
E030
E030
C030
ENDCHAR
STARTCHAR 04E5
ENCODING 1253
SWIDTH 585 0
DWIDTH 13 0
BBX 9 17 2 0
BITMAP
2300
7700
2300
0000
0000
C180
C380
C380
C780
CD80
C980
D980
F180
F180
E180
C180
C180
ENDCHAR
STARTCHAR 04E6
ENCODING 1254
SWIDTH 765 0
DWIDTH 17 0
BBX 15 20 1 0
BITMAP
0460
0EE0
0460
0000
0000
07C0
1FF0
3838
701C
600C
E00E
E006
E006
E006
E00E
600C
701C
3838
1FF0
07C0
ENDCHAR
STARTCHAR 04E7
ENCODING 1255
SWIDTH 585 0
DWIDTH 13 0
BBX 11 17 1 0
BITMAP
3180
3B80
3180
0000
0000
1F00
3F80
71C0
60C0
C060
C060
C060
C060
60C0
71C0
3F80
1F00
ENDCHAR
STARTCHAR 04E8
ENCODING 1256
SWIDTH 765 0
DWIDTH 17 0
BBX 15 15 1 0
BITMAP
07C0
1FF0
3838
701C
600C
E00E
FFFE
FFFE
E00E
E00E
600C
701C
3838
1FF0
07C0
ENDCHAR
STARTCHAR 04E9
ENCODING 1257
SWIDTH 585 0
DWIDTH 13 0
BBX 11 12 1 0
BITMAP
1F00
3F80
71C0
60C0
C060
FFE0
FFE0
C060
60C0
71C0
3F80
1F00
ENDCHAR
STARTCHAR 04EA
ENCODING 1258
SWIDTH 765 0
DWIDTH 17 0
BBX 15 20 1 0
BITMAP
0460
0EE0
0460
0000
0000
07C0
1FF0
3838
701C
600C
E00E
FFFE
FFFE
E00E
E00E
600C
701C
3838
1FF0
07C0
ENDCHAR
STARTCHAR 04EB
ENCODING 1259
SWIDTH 585 0
DWIDTH 13 0
BBX 11 17 1 0
BITMAP
3180
3B80
3180
0000
0000
1F00
3F80
71C0
60C0
C060
FFE0
FFE0
C060
60C0
71C0
3F80
1F00
ENDCHAR
STARTCHAR 04EC
ENCODING 1260
SWIDTH 630 0
DWIDTH 14 0
BBX 11 20 1 0
BITMAP
6300
7700
6300
0000
0000
7E00
FF80
81C0
00C0
0060
0060
3FE0
3FE0
0060
0060
00E0
00C0
83C0
FF80
7E00
ENDCHAR
STARTCHAR 04ED
ENCODING 1261
SWIDTH 495 0
DWIDTH 11 0
BBX 9 17 1 0
BITMAP
4600
EE00
4600
0000
0000
FC00
FE00
0700
0300
0180
3F80
3F80
0180
0300
0700
FE00
FC00
ENDCHAR
STARTCHAR 04EE
ENCODING 1262
SWIDTH 585 0
DWIDTH 13 0
BBX 12 19 1 0
BITMAP
1F80
1F80
0000
0000
C070
E060
6060
70C0
30C0
30C0
1980
1D80
0F00
0F00
0700
0600
0E00
FC00
F000
ENDCHAR
STARTCHAR 04EF
ENCODING 1263
SWIDTH 495 0
DWIDTH 11 0
BBX 10 20 0 -4
BITMAP
1F80
1F80
0000
0000
E0C0
60C0
60C0
60C0
3180
3180
3180
1900
1B00
0F00
0E00
0600
0600
0C00
F800
F000
ENDCHAR
STARTCHAR 04F0
ENCODING 1264
SWIDTH 585 0
DWIDTH 13 0
BBX 12 20 1 0
BITMAP
1980
3980
1980
0000
0000
C070
E060
6060
70C0
30C0
30C0
1980
1D80
0F00
0F00
0700
0600
0E00
FC00
F000
ENDCHAR
STARTCHAR 04F1
ENCODING 1265
SWIDTH 495 0
DWIDTH 11 0
BBX 10 21 0 -4
BITMAP
1980
3980
1980
0000
0000
E0C0
60C0
60C0
60C0
3180
3180
3180
1900
1B00
0F00
0E00
0600
0600
0C00
F800
F000
ENDCHAR
STARTCHAR 04F2
ENCODING 1266
SWIDTH 585 0
DWIDTH 13 0
BBX 12 20 1 0
BITMAP
0440
0CC0
1980
1100
0000
C070
E060
6060
70C0
30C0
30C0
1980
1D80
0F00
0F00
0700
0600
0E00
FC00
F000
ENDCHAR
STARTCHAR 04F3
ENCODING 1267
SWIDTH 495 0
DWIDTH 11 0
BBX 10 21 0 -4
BITMAP
0440
0CC0
1980
1100
0000
E0C0
60C0
60C0
60C0
3180
3180
3180
1900
1B00
0F00
0E00
0600
0600
0C00
F800
F000
ENDCHAR
STARTCHAR 04F4
ENCODING 1268
SWIDTH 630 0
DWIDTH 14 0
BBX 11 20 1 0
BITMAP
1980
3980
1980
0000
0000
C060
C060
C060
C060
C060
C060
E060
7060
7FE0
1FE0
0060
0060
0060
0060
0060
ENDCHAR
STARTCHAR 04F5
ENCODING 1269
SWIDTH 540 0
DWIDTH 12 0
BBX 9 17 1 0
BITMAP
6300
7700
6300
0000
0000
C180
C180
C180
C180
C180
E180
7F80
3F80
0180
0180
0180
0180
ENDCHAR
STARTCHAR 04F6
ENCODING 1270
SWIDTH 495 0
DWIDTH 11 0
BBX 9 19 2 -4
BITMAP
FF80
FF80
C000
C000
C000
C000
C000
C000
C000
C000
C000
C000
C000
F000
F000
3000
3000
3000
3000
ENDCHAR
STARTCHAR 04F7
ENCODING 1271
SWIDTH 405 0
DWIDTH 9 0
BBX 7 15 2 -3
BITMAP
FE
FE
C0
C0
C0
C0
C0
C0
C0
C0
E0
E0
60
60
60
ENDCHAR
STARTCHAR 04F8
ENCODING 1272
SWIDTH 855 0
DWIDTH 19 0
BBX 15 20 2 0
BITMAP
0C40
0EE0
0C40
0000
0000
C006
C006
C006
C006
C006
FE06
FF86
C1C6
C0C6
C0C6
C0C6
C0C6
C1C6
FF86
FE06
ENDCHAR
STARTCHAR 04F9
ENCODING 1273
SWIDTH 765 0
DWIDTH 17 0
BBX 13 17 2 0
BITMAP
1980
1DC0
1980
0000
0000
C018
C018
C018
C018
FE18
FF18
C398
C198
C198
C398
FF18
FE18
ENDCHAR
STARTCHAR 1E80
ENCODING 7808
SWIDTH 900 0
DWIDTH 20 0
BBX 19 20 1 0
BITMAP
010000
018000
00C000
004000
000000
C00060
C000E0
C0C0C0
E0E0C0
E0E0C0
61E0C0
61B180
633180
733180
331980
361B00
360F00
3C0F00
1C0F00
1C0600
ENDCHAR
STARTCHAR 1E81
ENCODING 7809
SWIDTH 765 0
DWIDTH 17 0
BBX 16 17 1 0
BITMAP
0200
0700
0380
0180
0000
C187
C386
C386
C386
62C6
66CC
66CC
344C
3C78
3C78
1C38
1830
ENDCHAR
STARTCHAR 1E82
ENCODING 7810
SWIDTH 900 0
DWIDTH 20 0
BBX 19 20 1 0
BITMAP
002000
006000
00C000
008000
000000
C00060
C000E0
C0C0C0
E0E0C0
E0E0C0
61E0C0
61B180
633180
733180
331980
361B00
360F00
3C0F00
1C0F00
1C0600
ENDCHAR
STARTCHAR 1E83
ENCODING 7811
SWIDTH 765 0
DWIDTH 17 0
BBX 16 17 1 0
BITMAP
00C0
01C0
0180
0100
0000
C187
C386
C386
C386
62C6
66CC
66CC
344C
3C78
3C78
1C38
1830
ENDCHAR
STARTCHAR 1E84
ENCODING 7812
SWIDTH 900 0
DWIDTH 20 0
BBX 19 20 1 0
BITMAP
033000
033800
033000
000000
000000
C00060
C000E0
C0C0C0
E0E0C0
E0E0C0
61E0C0
61B180
633180
733180
331980
361B00
360F00
3C0F00
1C0F00
1C0600
ENDCHAR
STARTCHAR 1E85
ENCODING 7813
SWIDTH 765 0
DWIDTH 17 0
BBX 16 17 1 0
BITMAP
0C60
0EE0
0C60
0000
0000
C187
C386
C386
C386
62C6
66CC
66CC
344C
3C78
3C78
1C38
1830
ENDCHAR
STARTCHAR 1EF2
ENCODING 7922
SWIDTH 585 0
DWIDTH 13 0
BBX 13 20 0 0
BITMAP
0400
0E00
0700
0100
0000
E038
6030
3070
3860
18C0
1CC0
0D80
0780
0700
0300
0300
0300
0300
0300
0300
ENDCHAR
STARTCHAR 1EF3
ENCODING 7923
SWIDTH 495 0
DWIDTH 11 0
BBX 10 22 0 -4
BITMAP
0800
0C00
0600
0200
0000
0000
E0C0
60C0
60C0
60C0
3180
3180
3180
1900
1B00
0F00
0E00
0600
0600
0C00
F800
F000
ENDCHAR
STARTCHAR 1F00
ENCODING 7936
SWIDTH 585 0
DWIDTH 13 0
BBX 12 18 1 0
BITMAP
0600
0600
0200
0600
0400
0000
1FC0
3FC0
70C0
60C0
C0C0
C0C0
C0C0
C0C0
E0C0
70C0
3FF0
1F30
ENDCHAR
STARTCHAR 1F01
ENCODING 7937
SWIDTH 585 0
DWIDTH 13 0
BBX 12 18 1 0
BITMAP
0C00
0E00
0C00
0400
0200
0000
1FC0
3FC0
70C0
60C0
C0C0
C0C0
C0C0
C0C0
E0C0
70C0
3FF0
1F30
ENDCHAR
STARTCHAR 1F02
ENCODING 7938
SWIDTH 585 0
DWIDTH 13 0
BBX 12 18 1 0
BITMAP
1900
1B00
1B00
1180
20C0
0000
1FC0
3FC0
70C0
60C0
C0C0
C0C0
C0C0
C0C0
E0C0
70C0
3FF0
1F30
ENDCHAR
STARTCHAR 1F03
ENCODING 7939
SWIDTH 585 0
DWIDTH 13 0
BBX 12 18 1 0
BITMAP
3200
3600
2300
3300
1180
0000
1FC0
3FC0
70C0
60C0
C0C0
C0C0
C0C0
C0C0
E0C0
70C0
3FF0
1F30
ENDCHAR
STARTCHAR 1F04
ENCODING 7940
SWIDTH 585 0
DWIDTH 13 0
BBX 12 18 1 0
BITMAP
0C80
1CC0
0D80
0900
1300
0000
1FC0
3FC0
70C0
60C0
C0C0
C0C0
C0C0
C0C0
E0C0
70C0
3FF0
1F30
ENDCHAR
STARTCHAR 1F05
ENCODING 7941
SWIDTH 585 0
DWIDTH 13 0
BBX 12 18 1 0
BITMAP
3080
31C0
3180
1300
0A00
0000
1FC0
3FC0
70C0
60C0
C0C0
C0C0
C0C0
C0C0
E0C0
70C0
3FF0
1F30
ENDCHAR
STARTCHAR 1F06
ENCODING 7942
SWIDTH 585 0
DWIDTH 13 0
BBX 12 21 1 0
BITMAP
0E00
1F00
1180
0000
0600
0600
0400
0800
0000
1FC0
3FC0
70C0
60C0
C0C0
C0C0
C0C0
C0C0
E0C0
70C0
3FF0
1F30
ENDCHAR
STARTCHAR 1F07
ENCODING 7943
SWIDTH 585 0
DWIDTH 13 0
BBX 12 21 1 0
BITMAP
0E00
1F00
1180
0000
0600
0E00
0600
0200
0000
1FC0
3FC0
70C0
60C0
C0C0
C0C0
C0C0
C0C0
E0C0
70C0
3FF0
1F30
ENDCHAR
STARTCHAR 1F08
ENCODING 7944
SWIDTH 675 0
DWIDTH 15 0
BBX 14 15 0 0
BITMAP
3380
3380
1780
36C0
2CC0
0C60
1860
1870
1830
3FF0
3FF8
7018
6018
600C
E00C
ENDCHAR
STARTCHAR 1F09
ENCODING 7945
SWIDTH 675 0
DWIDTH 15 0
BBX 14 15 0 0
BITMAP
6380
E380
4780
66C0
2CC0
0C60
1860
1870
1830
3FF0
3FF8
7018
6018
600C
E00C
ENDCHAR
STARTCHAR 1F0A
ENCODING 7946
SWIDTH 765 0
DWIDTH 17 0
BBX 18 15 -1 0
BITMAP
643000
6C7800
667800
46DC00
83CC00
018C00
018600
018600
030700
03FF00
07FF00
060380
060180
0E0180
0C01C0
ENDCHAR
STARTCHAR 1F0B
ENCODING 7947
SWIDTH 765 0
DWIDTH 17 0
BBX 17 15 -1 0
BITMAP
C87000
FC7000
CCD800
46D800
239C00
018C00
018C00
030600
030600
03FF00
07FF00
060300
0E0380
0C0180
0C0180
ENDCHAR
STARTCHAR 1F0C
ENCODING 7948
SWIDTH 720 0
DWIDTH 16 0
BBX 17 15 -1 0
BITMAP
64E000
66E000
6DB000
4DB000
999800
031800
031C00
060C00
060C00
07FE00
0FFE00
0C0600
1C0300
180300
180380
ENDCHAR
STARTCHAR 1F0D
ENCODING 7949
SWIDTH 765 0
DWIDTH 17 0
BBX 17 16 -1 0
BITMAP
420000
E76000
C67000
6CF000
28D800
019800
018C00
030C00
030E00
030600
07FE00
07FF00
0E0300
0C0300
0C0380
1C0180
ENDCHAR
STARTCHAR 1F0E
ENCODING 7950
SWIDTH 675 0
DWIDTH 15 0
BBX 15 19 -1 0
BITMAP
7800
FC00
8C00
0000
31C0
31C0
33C0
6360
0660
0630
0C30
0C38
0C18
1FF8
1FFC
380C
300C
3006
7006
ENDCHAR
STARTCHAR 1F0F
ENCODING 7951
SWIDTH 675 0
DWIDTH 15 0
BBX 15 19 -1 0
BITMAP
7800
FC00
8C00
0000
31C0
31C0
3360
1B60
0670
0630
0630
0C18
0C18
1FFC
1FFC
180C
300E
3006
3006
ENDCHAR
STARTCHAR 1F10
ENCODING 7952
SWIDTH 495 0
DWIDTH 11 0
BBX 9 18 1 0
BITMAP
0C00
0E00
0400
0C00
0800
0000
3F80
7F80
6000
6000
6000
3E00
7E00
E000
C000
E080
7F80
3F80
ENDCHAR
STARTCHAR 1F11
ENCODING 7953
SWIDTH 495 0
DWIDTH 11 0
BBX 9 18 1 0
BITMAP
0C00
1C00
1800
0C00
0400
0000
3F80
7F80
6000
6000
6000
3E00
7E00
E000
C000
E080
7F80
3F80
ENDCHAR
STARTCHAR 1F12
ENCODING 7954
SWIDTH 495 0
DWIDTH 11 0
BBX 9 18 1 0
BITMAP
3200
3600
1300
3100
2180
0000
3F80
7F80
6000
6000
6000
3E00
7E00
E000
C000
E080
7F80
3F80
ENDCHAR
STARTCHAR 1F13
ENCODING 7955
SWIDTH 495 0
DWIDTH 11 0
BBX 9 18 1 0
BITMAP
6400
6C00
6600
2200
1300
0000
3F80
7F80
6000
6000
6000
3E00
7E00
E000
C000
E080
7F80
3F80
ENDCHAR
STARTCHAR 1F14
ENCODING 7956
SWIDTH 495 0
DWIDTH 11 0
BBX 9 18 1 0
BITMAP
1900
1980
1B80
1300
1600
0000
3F80
7F80
6000
6000
6000
3E00
7E00
E000
C000
E080
7F80
3F80
ENDCHAR
STARTCHAR 1F15
ENCODING 7957
SWIDTH 495 0
DWIDTH 11 0
BBX 9 18 1 0
BITMAP
3100
7180
2300
3600
1400
0000
3F80
7F80
6000
6000
6000
3E00
7E00
E000
C000
E080
7F80
3F80
ENDCHAR
STARTCHAR 1F18
ENCODING 7960
SWIDTH 630 0
DWIDTH 14 0
BBX 14 16 -1 0
BITMAP
6000
6FFC
6FFC
4C00
8C00
0C00
0C00
0FF8
0FF8
0C00
0C00
0C00
0C00
0C00
0FFC
0FFC
ENDCHAR
STARTCHAR 1F19
ENCODING 7961
SWIDTH 630 0
DWIDTH 14 0
BBX 14 16 -1 0
BITMAP
6000
EFFC
CFFC
6C00
2C00
0C00
0C00
0FF8
0FF8
0C00
0C00
0C00
0C00
0C00
0FFC
0FFC
ENDCHAR
STARTCHAR 1F1A
ENCODING 7962
SWIDTH 810 0
DWIDTH 18 0
BBX 18 16 -1 0
BITMAP
640000
6CFFC0
66FFC0
46E000
83E000
00E000
00E000
00FF80
00FF80
00E000
00E000
00E000
00E000
00E000
00FFC0
00FFC0
ENDCHAR
STARTCHAR 1F1B
ENCODING 7963
SWIDTH 810 0
DWIDTH 18 0
BBX 18 16 -1 0
BITMAP
480000
FCFF80
CCFF80
66C000
22C000
00C000
00C000
00FF80
00FF80
00C000
00C000
00C000
00C000
00C000
00FFC0
00FFC0
ENDCHAR
STARTCHAR 1F1C
ENCODING 7964
SWIDTH 810 0
DWIDTH 18 0
BBX 18 16 -1 0
BITMAP
640000
66FF80
6CFF80
4CC000
98C000
00C000
00C000
00FF00
00FF00
00C000
00C000
00C000
00C000
00C000
00FFC0
00FFC0
ENDCHAR
STARTCHAR 1F1D
ENCODING 7965
SWIDTH 810 0
DWIDTH 18 0
BBX 18 16 -1 0
BITMAP
420000
E77FC0
C67FC0
6C6000
286000
006000
006000
007F80
007F80
006000
006000
006000
006000
006000
007FC0
007FC0
ENDCHAR
STARTCHAR 1F20
ENCODING 7968
SWIDTH 585 0
DWIDTH 13 0
BBX 9 22 2 -4
BITMAP
0C00
1C00
0C00
0800
1000
0000
FE00
FF00
C380
C180
C180
C180
C180
C180
C180
C180
C180
C180
0180
0180
0180
0180
ENDCHAR
STARTCHAR 1F21
ENCODING 7969
SWIDTH 585 0
DWIDTH 13 0
BBX 9 22 2 -4
BITMAP
1800
1800
1800
1800
0800
0000
FE00
FF00
C380
C180
C180
C180
C180
C180
C180
C180
C180
C180
0180
0180
0180
0180
ENDCHAR
STARTCHAR 1F22
ENCODING 7970
SWIDTH 585 0
DWIDTH 13 0
BBX 9 22 2 -4
BITMAP
2400
7E00
3600
6300
4100
0000
FE00
FF00
C380
C180
C180
C180
C180
C180
C180
C180
C180
C180
0180
0180
0180
0180
ENDCHAR
STARTCHAR 1F23
ENCODING 7971
SWIDTH 585 0
DWIDTH 13 0
BBX 9 22 2 -4
BITMAP
6800
FC00
CC00
6600
2200
0000
FE00
FF00
C380
C180
C180
C180
C180
C180
C180
C180
C180
C180
0180
0180
0180
0180
ENDCHAR
STARTCHAR 1F24
ENCODING 7972
SWIDTH 585 0
DWIDTH 13 0
BBX 9 22 2 -4
BITMAP
3100
3B80
1300
3600
2400
0000
FE00
FF00
C380
C180
C180
C180
C180
C180
C180
C180
C180
C180
0180
0180
0180
0180
ENDCHAR
STARTCHAR 1F25
ENCODING 7973
SWIDTH 585 0
DWIDTH 13 0
BBX 9 22 2 -4
BITMAP
6200
6300
6600
2600
2C00
0000
FE00
FF00
C380
C180
C180
C180
C180
C180
C180
C180
C180
C180
0180
0180
0180
0180
ENDCHAR
STARTCHAR 1F26
ENCODING 7974
SWIDTH 585 0
DWIDTH 13 0
BBX 9 25 2 -4
BITMAP
1C00
3E00
6200
0000
1800
1C00
0800
1000
0000
FE00
FF00
C380
C180
C180
C180
C180
C180
C180
C180
C180
C180
0180
0180
0180
0180
ENDCHAR
STARTCHAR 1F27
ENCODING 7975
SWIDTH 585 0
DWIDTH 13 0
BBX 9 25 2 -4
BITMAP
1C00
3E00
6200
0000
1800
1800
0800
0400
0000
FE00
FF00
C380
C180
C180
C180
C180
C180
C180
C180
C180
C180
0180
0180
0180
0180
ENDCHAR
STARTCHAR 1F28
ENCODING 7976
SWIDTH 765 0
DWIDTH 17 0
BBX 16 16 -1 0
BITMAP
6000
6C03
6C03
4C03
8C03
0C03
0C03
0FFF
0FFF
0C03
0C03
0C03
0C03
0C03
0C03
0C03
ENDCHAR
STARTCHAR 1F29
ENCODING 7977
SWIDTH 765 0
DWIDTH 17 0
BBX 16 16 -1 0
BITMAP
6000
EC03
CC03
6C03
2C03
0C03
0C03
0FFF
0FFF
0C03
0C03
0C03
0C03
0C03
0C03
0C03
ENDCHAR
STARTCHAR 1F2A
ENCODING 7978
SWIDTH 945 0
DWIDTH 21 0
BBX 20 16 -1 0
BITMAP
640000
6CE030
66E030
46E030
83E030
00E030
00E030
00FFF0
00FFF0
00E030
00E030
00E030
00E030
00E030
00E030
00E030
ENDCHAR
STARTCHAR 1F2B
ENCODING 7979
SWIDTH 945 0
DWIDTH 21 0
BBX 20 16 -1 0
BITMAP
480000
FCC030
CCC030
66C030
22C030
00C030
00C030
00FFF0
00FFF0
00C030
00C030
00C030
00C030
00C030
00C030
00C030
ENDCHAR
STARTCHAR 1F2C
ENCODING 7980
SWIDTH 945 0
DWIDTH 21 0
BBX 20 16 -1 0
BITMAP
640000
66C030
6CC030
4CC030
98C030
00C030
00C030
00FFF0
00FFF0
00C030
00C030
00C030
00C030
00C030
00C030
00C030
ENDCHAR
STARTCHAR 1F2D
ENCODING 7981
SWIDTH 945 0
DWIDTH 21 0
BBX 20 16 -1 0
BITMAP
420000
E76030
C66030
6C6030
286030
006030
006030
007FF0
007FF0
006030
006030
006030
006030
006030
006030
006030
ENDCHAR
STARTCHAR 1F2E
ENCODING 7982
SWIDTH 855 0
DWIDTH 19 0
BBX 19 19 -1 0
BITMAP
780000
FC0000
8C0000
000000
3180E0
3180E0
3180E0
6180E0
0180E0
0180E0
01FFE0
01FFE0
0180E0
0180E0
0180E0
0180E0
0180E0
0180E0
0180E0
ENDCHAR
STARTCHAR 1F2F
ENCODING 7983
SWIDTH 855 0
DWIDTH 19 0
BBX 19 19 -1 0
BITMAP
780000
FC0000
8C0000
000000
3180E0
3180E0
3180E0
1980E0
0180E0
0180E0
01FFE0
01FFE0
0180E0
0180E0
0180E0
0180E0
0180E0
0180E0
0180E0
ENDCHAR
STARTCHAR 1F30
ENCODING 7984
SWIDTH 270 0
DWIDTH 6 0
BBX 3 18 2 0
BITMAP
C0
E0
40
C0
80
00
C0
C0
C0
C0
C0
C0
C0
C0
C0
C0
E0
60
ENDCHAR
STARTCHAR 1F31
ENCODING 7985
SWIDTH 270 0
DWIDTH 6 0
BBX 4 18 1 0
BITMAP
C0
E0
C0
60
20
00
60
60
60
60
60
60
60
60
60
60
70
30
ENDCHAR
STARTCHAR 1F32
ENCODING 7986
SWIDTH 270 0
DWIDTH 6 0
BBX 8 18 -1 0
BITMAP
64
6C
66
46
83
00
18
18
18
18
18
18
18
18
18
18
1C
0C
ENDCHAR
STARTCHAR 1F33
ENCODING 7987
SWIDTH 270 0
DWIDTH 6 0
BBX 7 18 -1 0
BITMAP
C8
D8
8C
CC
46
00
18
18
18
18
18
18
18
18
18
18
1C
0C
ENDCHAR
STARTCHAR 1F34
ENCODING 7988
SWIDTH 270 0
DWIDTH 6 0
BBX 7 18 0 0
BITMAP
64
66
6C
4C
98
00
30
30
30
30
30
30
30
30
30
30
38
18
ENDCHAR
STARTCHAR 1F35
ENCODING 7989
SWIDTH 270 0
DWIDTH 6 0
BBX 8 18 -1 0
BITMAP
C2
E7
C6
6C
28
00
18
18
18
18
18
18
18
18
18
18
1C
0C
ENDCHAR
STARTCHAR 1F36
ENCODING 7990
SWIDTH 270 0
DWIDTH 6 0
BBX 6 21 0 0
BITMAP
70
F8
8C
00
30
30
30
40
00
30
30
30
30
30
30
30
30
30
30
38
18
ENDCHAR
STARTCHAR 1F37
ENCODING 7991
SWIDTH 270 0
DWIDTH 6 0
BBX 6 21 0 0
BITMAP
70
F8
8C
00
30
30
30
10
00
30
30
30
30
30
30
30
30
30
30
38
18
ENDCHAR
STARTCHAR 1F38
ENCODING 7992
SWIDTH 315 0
DWIDTH 7 0
BBX 6 16 -1 0
BITMAP
60
6C
6C
4C
8C
0C
0C
0C
0C
0C
0C
0C
0C
0C
0C
0C
ENDCHAR
STARTCHAR 1F39
ENCODING 7993
SWIDTH 315 0
DWIDTH 7 0
BBX 6 16 -1 0
BITMAP
60
EC
CC
6C
2C
0C
0C
0C
0C
0C
0C
0C
0C
0C
0C
0C
ENDCHAR
STARTCHAR 1F3A
ENCODING 7994
SWIDTH 495 0
DWIDTH 11 0
BBX 11 16 -1 0
BITMAP
6400
6CE0
66E0
46E0
83E0
00E0
00E0
00E0
00E0
00E0
00E0
00E0
00E0
00E0
00E0
00E0
ENDCHAR
STARTCHAR 1F3B
ENCODING 7995
SWIDTH 495 0
DWIDTH 11 0
BBX 10 16 -1 0
BITMAP
4800
FCC0
CCC0
66C0
22C0
00C0
00C0
00C0
00C0
00C0
00C0
00C0
00C0
00C0
00C0
00C0
ENDCHAR
STARTCHAR 1F3C
ENCODING 7996
SWIDTH 495 0
DWIDTH 11 0
BBX 10 16 -1 0
BITMAP
6400
66C0
6CC0
4CC0
98C0
00C0
00C0
00C0
00C0
00C0
00C0
00C0
00C0
00C0
00C0
00C0
ENDCHAR
STARTCHAR 1F3D
ENCODING 7997
SWIDTH 540 0
DWIDTH 12 0
BBX 11 16 -1 0
BITMAP
4200
E760
C660
6C60
2860
0060
0060
0060
0060
0060
0060
0060
0060
0060
0060
0060
ENDCHAR
STARTCHAR 1F3E
ENCODING 7998
SWIDTH 450 0
DWIDTH 10 0
BBX 9 19 -1 0
BITMAP
7800
FC00
8C00
0000
3180
3180
3180
6180
0180
0180
0180
0180
0180
0180
0180
0180
0180
0180
0180
ENDCHAR
STARTCHAR 1F3F
ENCODING 7999
SWIDTH 450 0
DWIDTH 10 0
BBX 9 19 -1 0
BITMAP
7800
FC00
8C00
0000
3180
3180
3180
1980
0180
0180
0180
0180
0180
0180
0180
0180
0180
0180
0180
ENDCHAR
STARTCHAR 1F40
ENCODING 8000
SWIDTH 585 0
DWIDTH 13 0
BBX 11 18 1 0
BITMAP
0600
0600
0600
0400
0800
0000
1F00
3F80
71C0
60C0
C060
C060
C060
C060
60C0
71C0
3F80
1F00
ENDCHAR
STARTCHAR 1F41
ENCODING 8001
SWIDTH 585 0
DWIDTH 13 0
BBX 11 18 1 0
BITMAP
0C00
0C00
0C00
0400
0200
0000
1F00
3F80
71C0
60C0
C060
C060
C060
C060
60C0
71C0
3F80
1F00
ENDCHAR
STARTCHAR 1F42
ENCODING 8002
SWIDTH 585 0
DWIDTH 13 0
BBX 11 18 1 0
BITMAP
1A00
3F00
1B00
3180
2080
0000
1F00
3F80
71C0
60C0
C060
C060
C060
C060
60C0
71C0
3F80
1F00
ENDCHAR
STARTCHAR 1F43
ENCODING 8003
SWIDTH 585 0
DWIDTH 13 0
BBX 11 18 1 0
BITMAP
3400
7600
2600
3300
1180
0000
1F00
3F80
71C0
60C0
C060
C060
C060
C060
60C0
71C0
3F80
1F00
ENDCHAR
STARTCHAR 1F44
ENCODING 8004
SWIDTH 585 0
DWIDTH 13 0
BBX 11 18 1 0
BITMAP
0C80
1CC0
0D80
1B00
1200
0000
1F00
3F80
71C0
60C0
C060
C060
C060
C060
60C0
71C0
3F80
1F00
ENDCHAR
STARTCHAR 1F45
ENCODING 8005
SWIDTH 585 0
DWIDTH 13 0
BBX 11 18 1 0
BITMAP
3080
31C0
3180
1300
0A00
0000
1F00
3F80
71C0
60C0
C060
C060
C060
C060
60C0
71C0
3F80
1F00
ENDCHAR
STARTCHAR 1F48
ENCODING 8008
SWIDTH 765 0
DWIDTH 17 0
BBX 17 16 -1 0
BITMAP
600000
61F800
67FC00
4E0E00
9C0700
180380
180180
180180
380180
180180
180180
180380
1C0700
0E0E00
07FC00
01F800
ENDCHAR
STARTCHAR 1F49
ENCODING 8009
SWIDTH 810 0
DWIDTH 18 0
BBX 18 16 -1 0
BITMAP
600000
E0F800
C3FE00
670700
2E0380
0C0180
1C01C0
1C00C0
1C00C0
1C00C0
1C01C0
0C0180
0E0380
070700
03FE00
00F800
ENDCHAR
STARTCHAR 1F4A
ENCODING 8010
SWIDTH 990 0
DWIDTH 22 0
BBX 22 16 -1 0
BITMAP
640000
6C0FC0
663FE0
467070
83E038
00C01C
00C00C
00C00C
01C00C
00C00C
00C00C
00C01C
00E038
007070
003FE0
000FC0
ENDCHAR
STARTCHAR 1F4B
ENCODING 8011
SWIDTH 990 0
DWIDTH 22 0
BBX 22 16 -1 0
BITMAP
480000
FC0F80
CC3FE0
667070
22E038
00C018
01C01C
01801C
01801C
01801C
01C01C
00C018
00E038
007070
003FE0
000F80
ENDCHAR
STARTCHAR 1F4C
ENCODING 8012
SWIDTH 945 0
DWIDTH 21 0
BBX 20 16 -1 0
BITMAP
640000
663F00
6C7FC0
4DE1E0
998060
038030
030030
030030
030030
030030
030030
038030
018060
01E1E0
007FC0
003F00
ENDCHAR
STARTCHAR 1F4D
ENCODING 8013
SWIDTH 945 0
DWIDTH 21 0
BBX 21 16 -1 0
BITMAP
420000
E71F80
C67FC0
6CE0E0
29C070
018038
018018
018018
038018
018018
018018
018038
01C070
00E0E0
007FC0
001F80
ENDCHAR
STARTCHAR 1F50
ENCODING 8016
SWIDTH 585 0
DWIDTH 13 0
BBX 9 18 2 0
BITMAP
0C00
1C00
0C00
0800
1000
0000
C180
C180
C180
C180
C180
C180
C180
C180
C180
E380
7F00
3E00
ENDCHAR
STARTCHAR 1F51
ENCODING 8017
SWIDTH 585 0
DWIDTH 13 0
BBX 9 18 2 0
BITMAP
1800
1800
1000
1800
0800
0000
C180
C180
C180
C180
C180
C180
C180
C180
C180
E380
7F00
3E00
ENDCHAR
STARTCHAR 1F52
ENCODING 8018
SWIDTH 585 0
DWIDTH 13 0
BBX 9 18 2 0
BITMAP
6400
7E00
2600
6300
4100
0000
C180
C180
C180
C180
C180
C180
C180
C180
C180
E380
7F00
3E00
ENDCHAR
STARTCHAR 1F53
ENCODING 8019
SWIDTH 585 0
DWIDTH 13 0
BBX 9 18 2 0
BITMAP
C800
FC00
CC00
6600
2200
0000
C180
C180
C180
C180
C180
C180
C180
C180
C180
E380
7F00
3E00
ENDCHAR
STARTCHAR 1F54
ENCODING 8020
SWIDTH 585 0
DWIDTH 13 0
BBX 9 18 2 0
BITMAP
3100
3B80
1300
3600
2400
0000
C180
C180
C180
C180
C180
C180
C180
C180
C180
E380
7F00
3E00
ENDCHAR
STARTCHAR 1F55
ENCODING 8021
SWIDTH 585 0
DWIDTH 13 0
BBX 9 18 2 0
BITMAP
6200
6300
4600
6600
2C00
0000
C180
C180
C180
C180
C180
C180
C180
C180
C180
E380
7F00
3E00
ENDCHAR
STARTCHAR 1F56
ENCODING 8022
SWIDTH 585 0
DWIDTH 13 0
BBX 9 21 2 0
BITMAP
1C00
3E00
6200
0000
1800
1C00
1800
1000
0000
C180
C180
C180
C180
C180
C180
C180
C180
C180
E380
7F00
3E00
ENDCHAR
STARTCHAR 1F57
ENCODING 8023
SWIDTH 585 0
DWIDTH 13 0
BBX 9 21 2 0
BITMAP
1C00
3E00
6200
0000
1800
1800
0800
0400
0000
C180
C180
C180
C180
C180
C180
C180
C180
C180
E380
7F00
3E00
ENDCHAR
STARTCHAR 1F59
ENCODING 8025
SWIDTH 675 0
DWIDTH 15 0
BBX 16 16 -1 0
BITMAP
6000
EC03
CE07
6606
270C
031C
0198
01F8
00F0
0060
0060
0060
0060
0060
0060
0060
ENDCHAR
STARTCHAR 1F5B
ENCODING 8027
SWIDTH 855 0
DWIDTH 19 0
BBX 20 16 -1 0
BITMAP
480000
FDC070
CCC060
66E0E0
2260C0
003180
003B80
001B00
001F00
000E00
000E00
000E00
000E00
000E00
000E00
000E00
ENDCHAR
STARTCHAR 1F5D
ENCODING 8029
SWIDTH 900 0
DWIDTH 20 0
BBX 21 16 -1 0
BITMAP
420000
E7E038
C66030
6C3070
283860
0018E0
001CC0
000D80
000780
000700
000300
000300
000300
000300
000300
000300
ENDCHAR
STARTCHAR 1F5F
ENCODING 8031
SWIDTH 855 0
DWIDTH 19 0
BBX 19 19 -1 0
BITMAP
780000
FC0000
8C0000
000000
318060
31C0E0
30C0C0
186180
007180
003300
003F00
001E00
000C00
000C00
000C00
000C00
000C00
000C00
000C00
ENDCHAR
STARTCHAR 1F60
ENCODING 8032
SWIDTH 810 0
DWIDTH 18 0
BBX 16 18 1 0
BITMAP
00C0
01C0
00C0
0180
0100
0000
3004
7006
6186
6183
E183
C183
C183
C183
E1C3
63C7
7FFE
1E3C
ENDCHAR
STARTCHAR 1F61
ENCODING 8033
SWIDTH 810 0
DWIDTH 18 0
BBX 16 18 1 0
BITMAP
0180
0380
0100
0180
0080
0000
3004
7006
6186
6183
E183
C183
C183
C183
E1C3
63C7
7FFE
1E3C
ENDCHAR
STARTCHAR 1F62
ENCODING 8034
SWIDTH 810 0
DWIDTH 18 0
BBX 16 18 1 0
BITMAP
0640
07E0
0260
0630
0410
0000
3004
7006
6186
6183
E183
C183
C183
C183
E1C3
63C7
7FFE
1E3C
ENDCHAR
STARTCHAR 1F63
ENCODING 8035
SWIDTH 810 0
DWIDTH 18 0
BBX 16 18 1 0
BITMAP
0C80
0FC0
0CC0
0460
0220
0000
3004
7006
6186
6183
E183
C183
C183
C183
E1C3
63C7
7FFE
1E3C
ENDCHAR
STARTCHAR 1F64
ENCODING 8036
SWIDTH 810 0
DWIDTH 18 0
BBX 16 18 1 0
BITMAP
0310
03B8
0130
0360
0240
0000
3004
7006
6186
6183
E183
C183
C183
C183
E1C3
63C7
7FFE
1E3C
ENDCHAR
STARTCHAR 1F65
ENCODING 8037
SWIDTH 810 0
DWIDTH 18 0
BBX 16 18 1 0
BITMAP
0620
0630
0460
0660
02C0
0000
3004
7006
6186
6183
E183
C183
C183
C183
E1C3
63C7
7FFE
1E3C
ENDCHAR
STARTCHAR 1F66
ENCODING 8038
SWIDTH 810 0
DWIDTH 18 0
BBX 16 21 1 0
BITMAP
01C0
03E0
0620
0000
0180
0180
0180
0100
0000
3004
7006
6186
6183
E183
C183
C183
C183
E1C3
63C7
7FFE
1E3C
ENDCHAR
STARTCHAR 1F67
ENCODING 8039
SWIDTH 810 0
DWIDTH 18 0
BBX 16 21 1 0
BITMAP
01C0
03E0
0620
0000
0180
0180
0180
0040
0000
3004
7006
6186
6183
E183
C183
C183
C183
E1C3
63C7
7FFE
1E3C
ENDCHAR
STARTCHAR 1F68
ENCODING 8040
SWIDTH 765 0
DWIDTH 17 0
BBX 17 16 -1 0
BITMAP
600000
61F800
67FC00
4E0E00
9C0700
180380
180380
180180
180180
180180
180300
0C0300
0C0600
060E00
3F1F80
3F1F80
ENDCHAR
STARTCHAR 1F69
ENCODING 8041
SWIDTH 810 0
DWIDTH 18 0
BBX 18 16 -1 0
BITMAP
600000
E0F800
C3FE00
670700
2E0380
0C0180
0C01C0
1C01C0
1C01C0
0C01C0
0C0180
0C0180
060300
030600
1F8FC0
1F8FC0
ENDCHAR
STARTCHAR 1F6A
ENCODING 8042
SWIDTH 990 0
DWIDTH 22 0
BBX 22 16 -1 0
BITMAP
640000
6C0FC0
663FE0
467070
83E038
00C018
00C01C
00C00C
00C00C
00C00C
00C018
00E018
006030
003070
01F8FC
01F8FC
ENDCHAR
STARTCHAR 1F6B
ENCODING 8043
SWIDTH 990 0
DWIDTH 22 0
BBX 22 16 -1 0
BITMAP
480000
FC0F80
CC3FE0
667070
22E038
00C018
01C018
01C01C
01C01C
01C018
00C018
00C018
006030
003060
01F8FC
01F8FC
ENDCHAR
STARTCHAR 1F6C
ENCODING 8044
SWIDTH 945 0
DWIDTH 21 0
BBX 21 16 -1 0
BITMAP
640000
663F00
6CFFC0
4DE1E0
998060
038070
030030
030030
030030
030030
038030
018060
01C060
00E0C0
03F1F8
03F1F8
ENDCHAR
STARTCHAR 1F6D
ENCODING 8045
SWIDTH 945 0
DWIDTH 21 0
BBX 21 16 -1 0
BITMAP
420000
E71F80
C67FC0
6CE0E0
29C070
018030
018038
018018
018018
018038
018030
01C030
00C060
0060E0
03F1F8
03F1F8
ENDCHAR
STARTCHAR 1F6E
ENCODING 8046
SWIDTH 855 0
DWIDTH 19 0
BBX 19 19 -1 0
BITMAP
780000
FC0000
8C0000
000000
307C00
31FF00
338380
6701C0
0600C0
0E00E0
0E00E0
0E00E0
0600C0
0600C0
0600C0
030180
018300
0FC7E0
0FC7E0
ENDCHAR
STARTCHAR 1F6F
ENCODING 8047
SWIDTH 900 0
DWIDTH 20 0
BBX 20 19 -1 0
BITMAP
780000
FC0000
8C0000
000000
307E00
31FF80
33C1C0
1B00C0
0700E0
060060
060060
060060
060060
070060
0300C0
0380C0
01C180
07E3F0
07E3F0
ENDCHAR
STARTCHAR 1F70
ENCODING 8048
SWIDTH 585 0
DWIDTH 13 0
BBX 12 17 1 0
BITMAP
0800
1C00
0E00
0200
0000
1FC0
3FC0
70C0
60C0
C0C0
C0C0
C0C0
C0C0
E0C0
70C0
3FF0
1F30
ENDCHAR
STARTCHAR 1F71
ENCODING 8049
SWIDTH 585 0
DWIDTH 13 0
BBX 12 17 1 0
BITMAP
0100
0300
0F00
0C00
0000
1FC0
3FC0
70C0
60C0
C0C0
C0C0
C0C0
C0C0
E0C0
70C0
3FF0
1F30
ENDCHAR
STARTCHAR 1F72
ENCODING 8050
SWIDTH 495 0
DWIDTH 11 0
BBX 9 17 1 0
BITMAP
1000
3800
1C00
0400
0000
3F80
7F80
6000
6000
6000
3E00
7E00
E000
C000
E080
7F80
3F80
ENDCHAR
STARTCHAR 1F73
ENCODING 8051
SWIDTH 495 0
DWIDTH 11 0
BBX 9 17 1 0
BITMAP
0200
0700
0E00
0800
0000
3F80
7F80
6000
6000
6000
3E00
7E00
E000
C000
E080
7F80
3F80
ENDCHAR
STARTCHAR 1F74
ENCODING 8052
SWIDTH 585 0
DWIDTH 13 0
BBX 9 21 2 -4
BITMAP
2000
3000
3C00
0C00
0000
FE00
FF00
C380
C180
C180
C180
C180
C180
C180
C180
C180
C180
0180
0180
0180
0180
ENDCHAR
STARTCHAR 1F75
ENCODING 8053
SWIDTH 585 0
DWIDTH 13 0
BBX 9 21 2 -4
BITMAP
0200
0E00
1C00
1000
0000
FE00
FF00
C380
C180
C180
C180
C180
C180
C180
C180
C180
C180
0180
0180
0180
0180
ENDCHAR
STARTCHAR 1F76
ENCODING 8054
SWIDTH 270 0
DWIDTH 6 0
BBX 5 17 0 0
BITMAP
40
E0
70
10
00
30
30
30
30
30
30
30
30
30
30
38
18
ENDCHAR
STARTCHAR 1F77
ENCODING 8055
SWIDTH 270 0
DWIDTH 6 0
BBX 4 17 1 0
BITMAP
10
30
70
C0
00
60
60
60
60
60
60
60
60
60
60
70
30
ENDCHAR
STARTCHAR 1F78
ENCODING 8056
SWIDTH 585 0
DWIDTH 13 0
BBX 11 17 1 0
BITMAP
1000
1C00
0E00
0600
0000
1F00
3F80
71C0
60C0
C060
C060
C060
C060
60C0
71C0
3F80
1F00
ENDCHAR
STARTCHAR 1F79
ENCODING 8057
SWIDTH 585 0
DWIDTH 13 0
BBX 11 17 1 0
BITMAP
0100
0700
0E00
0C00
0000
1F00
3F80
71C0
60C0
C060
C060
C060
C060
60C0
71C0
3F80
1F00
ENDCHAR
STARTCHAR 1F7A
ENCODING 8058
SWIDTH 585 0
DWIDTH 13 0
BBX 9 17 2 0
BITMAP
2000
3000
3C00
0C00
0000
C180
C180
C180
C180
C180
C180
C180
C180
C180
E380
7F00
3E00
ENDCHAR
STARTCHAR 1F7B
ENCODING 8059
SWIDTH 585 0
DWIDTH 13 0
BBX 9 17 2 0
BITMAP
0400
0E00
1C00
1000
0000
C180
C180
C180
C180
C180
C180
C180
C180
C180
E380
7F00
3E00
ENDCHAR
STARTCHAR 1F7C
ENCODING 8060
SWIDTH 810 0
DWIDTH 18 0
BBX 16 17 1 0
BITMAP
0200
0300
0380
00C0
0000
3004
7006
6186
6183
E183
C183
C183
C183
E1C3
63C7
7FFE
1E3C
ENDCHAR
STARTCHAR 1F7D
ENCODING 8061
SWIDTH 810 0
DWIDTH 18 0
BBX 16 17 1 0
BITMAP
0040
00E0
01C0
0100
0000
3004
7006
6186
6183
E183
C183
C183
C183
E1C3
63C7
7FFE
1E3C
ENDCHAR
STARTCHAR 1F80
ENCODING 8064
SWIDTH 585 0
DWIDTH 13 0
BBX 12 22 1 -4
BITMAP
0600
0600
0200
0600
0400
0000
1FC0
3FC0
70C0
60C0
C0C0
C0C0
C0C0
C0C0
E0C0
70C0
3FF0
1F30
0000
0600
0600
0300
ENDCHAR
STARTCHAR 1F81
ENCODING 8065
SWIDTH 585 0
DWIDTH 13 0
BBX 12 22 1 -4
BITMAP
0C00
0E00
0C00
0400
0200
0000
1FC0
3FC0
70C0
60C0
C0C0
C0C0
C0C0
C0C0
E0C0
70C0
3FF0
1F30
0000
0600
0600
0300
ENDCHAR
STARTCHAR 1F82
ENCODING 8066
SWIDTH 585 0
DWIDTH 13 0
BBX 12 22 1 -4
BITMAP
1900
1B00
1B00
1180
20C0
0000
1FC0
3FC0
70C0
60C0
C0C0
C0C0
C0C0
C0C0
E0C0
70C0
3FF0
1F30
0000
0600
0600
0300
ENDCHAR
STARTCHAR 1F83
ENCODING 8067
SWIDTH 585 0
DWIDTH 13 0
BBX 12 22 1 -4
BITMAP
3200
3600
2300
3300
1180
0000
1FC0
3FC0
70C0
60C0
C0C0
C0C0
C0C0
C0C0
E0C0
70C0
3FF0
1F30
0000
0600
0600
0300
ENDCHAR
STARTCHAR 1F84
ENCODING 8068
SWIDTH 585 0
DWIDTH 13 0
BBX 12 22 1 -4
BITMAP
0C80
1CC0
0D80
0900
1300
0000
1FC0
3FC0
70C0
60C0
C0C0
C0C0
C0C0
C0C0
E0C0
70C0
3FF0
1F30
0000
0600
0600
0300
ENDCHAR
STARTCHAR 1F85
ENCODING 8069
SWIDTH 585 0
DWIDTH 13 0
BBX 12 22 1 -4
BITMAP
3080
31C0
3180
1300
0A00
0000
1FC0
3FC0
70C0
60C0
C0C0
C0C0
C0C0
C0C0
E0C0
70C0
3FF0
1F30
0000
0600
0600
0300
ENDCHAR
STARTCHAR 1F86
ENCODING 8070
SWIDTH 585 0
DWIDTH 13 0
BBX 12 25 1 -4
BITMAP
0E00
1F00
1180
0000
0600
0600
0400
0800
0000
1FC0
3FC0
70C0
60C0
C0C0
C0C0
C0C0
C0C0
E0C0
70C0
3FF0
1F30
0000
0600
0600
0300
ENDCHAR
STARTCHAR 1F87
ENCODING 8071
SWIDTH 585 0
DWIDTH 13 0
BBX 12 25 1 -4
BITMAP
0E00
1F00
1180
0000
0600
0E00
0400
0200
0000
1FC0
3FC0
70C0
60C0
C0C0
C0C0
C0C0
C0C0
E0C0
70C0
3FF0
1F30
0000
0600
0600
0300
ENDCHAR
STARTCHAR 1F88
ENCODING 8072
SWIDTH 945 0
DWIDTH 21 0
BBX 20 16 0 0
BITMAP
300000
338000
138000
378000
26C0C0
0CC0C0
0C60C0
1860C0
1870C0
1830C0
3FF0C0
3FF8C0
7018C0
6018E0
600C70
E00C30
ENDCHAR
STARTCHAR 1F89
ENCODING 8073
SWIDTH 945 0
DWIDTH 21 0
BBX 20 16 0 0
BITMAP
600000
638000
638000
278000
16C0C0
0CC0C0
0C60C0
1860C0
1870C0
1830C0
3FF0C0
3FF8C0
7018C0
6018E0
600C70
E00C30
ENDCHAR
STARTCHAR 1F8A
ENCODING 8074
SWIDTH 1035 0
DWIDTH 23 0
BBX 24 16 -1 0
BITMAP
640000
6C3000
667800
467800
83DC0C
00CC0C
018C0C
01860C
01860C
03070C
03FF0C
07FF0C
06038C
06018C
0E018F
0C01C7
ENDCHAR
STARTCHAR 1F8B
ENCODING 8075
SWIDTH 1035 0
DWIDTH 23 0
BBX 23 16 -1 0
BITMAP
480000
FC7000
CC7000
66D800
22D80C
019C0C
018C0C
018C0C
03060C
03060C
03FF0C
07FF0C
06030C
0E038C
0C018E
0C0186
ENDCHAR
STARTCHAR 1F8C
ENCODING 8076
SWIDTH 990 0
DWIDTH 22 0
BBX 22 16 -1 0
BITMAP
640000
66E000
6CE000
4DB000
99B018
019818
031818
031C18
060C18
060C18
07FE18
0FFE18
0C0618
1C0318
18031C
18038C
ENDCHAR
STARTCHAR 1F8D
ENCODING 8077
SWIDTH 1035 0
DWIDTH 23 0
BBX 23 16 -1 0
BITMAP
420000
E76000
C67000
6CF000
28D818
019818
018C18
030C18
030E18
030618
07FE18
07FF18
0E0318
0C031C
0C038E
1C0186
ENDCHAR
STARTCHAR 1F8E
ENCODING 8078
SWIDTH 945 0
DWIDTH 21 0
BBX 21 19 -1 0
BITMAP
780000
FC0000
8C0000
000000
31C000
31C000
33C000
636060
066060
063060
0C3060
0C3860
0C1860
1FF860
1FFC60
380C60
300C70
300638
700618
ENDCHAR
STARTCHAR 1F8F
ENCODING 8079
SWIDTH 945 0
DWIDTH 21 0
BBX 21 19 -1 0
BITMAP
780000
FC0000
8C0000
000000
31C000
31C000
336000
1B6030
067030
063030
063030
0C1830
0C1830
1FFC30
1FFC30
180C30
300E30
300638
300618
ENDCHAR
STARTCHAR 1F90
ENCODING 8080
SWIDTH 585 0
DWIDTH 13 0
BBX 9 22 2 -4
BITMAP
0C00
1C00
0C00
0800
1000
0000
FE00
FF00
C380
C180
C180
C180
C180
C180
C180
C180
C180
C180
0180
C180
C180
6180
ENDCHAR
STARTCHAR 1F91
ENCODING 8081
SWIDTH 585 0
DWIDTH 13 0
BBX 9 22 2 -4
BITMAP
1800
1800
1800
1800
0800
0000
FE00
FF00
C380
C180
C180
C180
C180
C180
C180
C180
C180
C180
0180
C180
C180
6180
ENDCHAR
STARTCHAR 1F92
ENCODING 8082
SWIDTH 585 0
DWIDTH 13 0
BBX 9 22 2 -4
BITMAP
2400
7E00
3600
6300
4100
0000
FE00
FF00
C380
C180
C180
C180
C180
C180
C180
C180
C180
C180
0180
C180
C180
6180
ENDCHAR
STARTCHAR 1F93
ENCODING 8083
SWIDTH 585 0
DWIDTH 13 0
BBX 9 22 2 -4
BITMAP
6800
FC00
CC00
6600
2200
0000
FE00
FF00
C380
C180
C180
C180
C180
C180
C180
C180
C180
C180
0180
C180
C180
6180
ENDCHAR
STARTCHAR 1F94
ENCODING 8084
SWIDTH 585 0
DWIDTH 13 0
BBX 9 22 2 -4
BITMAP
3100
3B80
1300
3600
2400
0000
FE00
FF00
C380
C180
C180
C180
C180
C180
C180
C180
C180
C180
0180
C180
C180
6180
ENDCHAR
STARTCHAR 1F95
ENCODING 8085
SWIDTH 585 0
DWIDTH 13 0
BBX 9 22 2 -4
BITMAP
6200
6300
6600
2600
2C00
0000
FE00
FF00
C380
C180
C180
C180
C180
C180
C180
C180
C180
C180
0180
C180
C180
6180
ENDCHAR
STARTCHAR 1F96
ENCODING 8086
SWIDTH 585 0
DWIDTH 13 0
BBX 9 25 2 -4
BITMAP
1C00
3E00
6200
0000
1800
1C00
0800
1000
0000
FE00
FF00
C380
C180
C180
C180
C180
C180
C180
C180
C180
C180
0180
C180
C180
6180
ENDCHAR
STARTCHAR 1F97
ENCODING 8087
SWIDTH 585 0
DWIDTH 13 0
BBX 9 25 2 -4
BITMAP
1C00
3E00
6200
0000
1800
1800
0800
0400
0000
FE00
FF00
C380
C180
C180
C180
C180
C180
C180
C180
C180
C180
0180
C180
C180
6180
ENDCHAR
STARTCHAR 1F98
ENCODING 8088
SWIDTH 1035 0
DWIDTH 23 0
BBX 23 16 -1 0
BITMAP
600000
6C0300
6C0300
4C0300
8C030C
0C030C
0C030C
0FFF0C
0FFF0C
0C030C
0C030C
0C030C
0C030C
0C030C
0C030E
0C0306
ENDCHAR
STARTCHAR 1F99
ENCODING 8089
SWIDTH 1035 0
DWIDTH 23 0
BBX 23 16 -1 0
BITMAP
600000
EC0300
CC0300
6C0300
2C030C
0C030C
0C030C
0FFF0C
0FFF0C
0C030C
0C030C
0C030C
0C030C
0C030C
0C030E
0C0306
ENDCHAR
STARTCHAR 1F9A
ENCODING 8090
SWIDTH 1215 0
DWIDTH 27 0
BBX 28 16 -1 0
BITMAP
64000000
6CE03000
66E03000
46E03000
83E030C0
00E030C0
00E030C0
00FFF0C0
00FFF0C0
00E030C0
00E030C0
00E030C0
00E030C0
00E030C0
00E030F0
00E03060
ENDCHAR
STARTCHAR 1F9B
ENCODING 8091
SWIDTH 1215 0
DWIDTH 27 0
BBX 27 16 -1 0
BITMAP
48000000
FCC03000
CCC03000
66C03000
22C030C0
00C030C0
00C030C0
00FFF0C0
00FFF0C0
00C030C0
00C030C0
00C030C0
00C030C0
00C030C0
00C030E0
00C03060
ENDCHAR
STARTCHAR 1F9C
ENCODING 8092
SWIDTH 1215 0
DWIDTH 27 0
BBX 27 16 -1 0
BITMAP
64000000
66C03000
6CC03000
4CC03000
98C03180
00C03180
00C03180
00FFF180
00FFF180
00C03180
00C03180
00C03180
00C03180
00C031C0
00C030E0
00C03060
ENDCHAR
STARTCHAR 1F9D
ENCODING 8093
SWIDTH 1215 0
DWIDTH 27 0
BBX 28 16 -1 0
BITMAP
42000000
E7603000
C6603000
6C603000
286030C0
006030C0
006030C0
007FF0C0
007FF0C0
006030C0
006030C0
006030C0
006030C0
006030C0
006030F0
00603070
ENDCHAR
STARTCHAR 1F9E
ENCODING 8094
SWIDTH 1125 0
DWIDTH 25 0
BBX 26 19 -1 0
BITMAP
78000000
FC000000
8C000000
00000000
3180E000
3180E000
3180E000
6180E300
0180E300
0180E300
01FFE300
01FFE300
0180E300
0180E300
0180E300
0180E300
0180E380
0180E1C0
0180E1C0
ENDCHAR
STARTCHAR 1F9F
ENCODING 8095
SWIDTH 1125 0
DWIDTH 25 0
BBX 26 19 -1 0
BITMAP
78000000
FC000000
8C000000
00000000
3180E000
3180E000
3180E000
1980E300
0180E300
0180E300
01FFE300
01FFE300
0180E300
0180E300
0180E300
0180E300
0180E380
0180E1C0
0180E1C0
ENDCHAR
STARTCHAR 1FA0
ENCODING 8096
SWIDTH 810 0
DWIDTH 18 0
BBX 16 22 1 -4
BITMAP
00C0
01C0
00C0
0180
0100
0000
3004
7006
6186
6183
E183
C183
C183
C183
E1C3
63C7
7FFE
1E3C
0000
0180
0180
00E0
ENDCHAR
STARTCHAR 1FA1
ENCODING 8097
SWIDTH 810 0
DWIDTH 18 0
BBX 16 22 1 -4
BITMAP
0180
0380
0100
0180
0080
0000
3004
7006
6186
6183
E183
C183
C183
C183
E1C3
63C7
7FFE
1E3C
0000
0180
0180
00E0
ENDCHAR
STARTCHAR 1FA2
ENCODING 8098
SWIDTH 810 0
DWIDTH 18 0
BBX 16 22 1 -4
BITMAP
0640
07E0
0260
0630
0410
0000
3004
7006
6186
6183
E183
C183
C183
C183
E1C3
63C7
7FFE
1E3C
0000
0180
0180
00E0
ENDCHAR
STARTCHAR 1FA3
ENCODING 8099
SWIDTH 810 0
DWIDTH 18 0
BBX 16 22 1 -4
BITMAP
0C80
0FC0
0CC0
0460
0220
0000
3004
7006
6186
6183
E183
C183
C183
C183
E1C3
63C7
7FFE
1E3C
0000
0180
0180
00E0
ENDCHAR
STARTCHAR 1FA4
ENCODING 8100
SWIDTH 810 0
DWIDTH 18 0
BBX 16 22 1 -4
BITMAP
0310
03B8
0130
0360
0240
0000
3004
7006
6186
6183
E183
C183
C183
C183
E1C3
63C7
7FFE
1E3C
0000
0180
0180
00E0
ENDCHAR
STARTCHAR 1FA5
ENCODING 8101
SWIDTH 810 0
DWIDTH 18 0
BBX 16 22 1 -4
BITMAP
0620
0630
0460
0660
02C0
0000
3004
7006
6186
6183
E183
C183
C183
C183
E1C3
63C7
7FFE
1E3C
0000
0180
0180
00E0
ENDCHAR
STARTCHAR 1FA6
ENCODING 8102
SWIDTH 810 0
DWIDTH 18 0
BBX 16 25 1 -4
BITMAP
01C0
03E0
0620
0000
0180
0180
0180
0100
0000
3004
7006
6186
6183
E183
C183
C183
C183
E1C3
63C7
7FFE
1E3C
0000
0180
0180
00E0
ENDCHAR
STARTCHAR 1FA7
ENCODING 8103
SWIDTH 810 0
DWIDTH 18 0
BBX 16 25 1 -4
BITMAP
01C0
03E0
0620
0000
0180
0180
0180
0040
0000
3004
7006
6186
6183
E183
C183
C183
C183
E1C3
63C7
7FFE
1E3C
0000
0180
0180
00E0
ENDCHAR
STARTCHAR 1FA8
ENCODING 8104
SWIDTH 1080 0
DWIDTH 24 0
BBX 24 16 -1 0
BITMAP
600000
61F800
67FC00
4E0E00
9C070C
18038C
18038C
18018C
18018C
18018C
18030C
0C030C
0C060C
060E0E
3F1F87
3F1F87
ENDCHAR
STARTCHAR 1FA9
ENCODING 8105
SWIDTH 1080 0
DWIDTH 24 0
BBX 25 16 -1 0
BITMAP
60000000
E0F80000
C3FE0000
67070000
2E038600
0C018600
0C01C600
1C01C600
1C01C600
0C01C600
0C018600
0C018600
06030600
03060600
1F8FC780
1F8FC380
ENDCHAR
STARTCHAR 1FAA
ENCODING 8106
SWIDTH 1260 0
DWIDTH 28 0
BBX 29 16 -1 0
BITMAP
64000000
6C0FC000
663FE000
46707000
83E03860
00C01860
00C01C60
00C00C60
00C00C60
00C00C60
00C01860
00E01860
00603060
00307070
01F8FC78
01F8FC38
ENDCHAR
STARTCHAR 1FAB
ENCODING 8107
SWIDTH 1260 0
DWIDTH 28 0
BBX 29 16 -1 0
BITMAP
48000000
FC0F8000
CC3FE000
66707000
22E03860
00C01860
01C01860
01C01C60
01C01C60
01C01860
00C01860
00C01860
00603060
00306060
01F8FC78
01F8FC30
ENDCHAR
STARTCHAR 1FAC
ENCODING 8108
SWIDTH 1215 0
DWIDTH 27 0
BBX 27 16 -1 0
BITMAP
64000000
663F0000
6CFFC000
4DE1E000
998060C0
038070C0
030030C0
030030C0
030030C0
030030C0
038030C0
018060C0
01C060C0
00E0C0C0
03F1F8E0
03F1F860
ENDCHAR
STARTCHAR 1FAD
ENCODING 8109
SWIDTH 1215 0
DWIDTH 27 0
BBX 28 16 -1 0
BITMAP
42000000
E71F8000
C67FC000
6CE0E000
29C070C0
018030C0
018038C0
018018C0
018018C0
018038C0
018030C0
01C030C0
00C060C0
0060E0E0
03F1F8F0
03F1F870
ENDCHAR
STARTCHAR 1FAE
ENCODING 8110
SWIDTH 1125 0
DWIDTH 25 0
BBX 26 19 -1 0
BITMAP
78000000
FC000000
8C000000
00000000
307C0000
31FF0000
33838000
6701C300
0600C300
0E00E300
0E00E300
0E00E300
0600C300
0600C300
0600C300
03018300
01830300
0FC7E3C0
0FC7E180
ENDCHAR
STARTCHAR 1FAF
ENCODING 8111
SWIDTH 1170 0
DWIDTH 26 0
BBX 26 19 -1 0
BITMAP
78000000
FC000000
8C000000
00000000
307E0000
31FF8000
33C1C000
1B00C180
0700E180
06006180
06006180
06006180
06006180
07006180
0300C180
0380C180
01C18180
07E3F1C0
07E3F0C0
ENDCHAR
STARTCHAR 1FB0
ENCODING 8112
SWIDTH 585 0
DWIDTH 13 0
BBX 12 16 1 0
BITMAP
1180
1F00
0E00
0000
1FC0
3FC0
70C0
60C0
C0C0
C0C0
C0C0
C0C0
E0C0
70C0
3FF0
1F30
ENDCHAR
STARTCHAR 1FB1
ENCODING 8113
SWIDTH 585 0
DWIDTH 13 0
BBX 12 16 1 0
BITMAP
1F80
1F80
0000
0000
1FC0
3FC0
70C0
60C0
C0C0
C0C0
C0C0
C0C0
E0C0
70C0
3FF0
1F30
ENDCHAR
STARTCHAR 1FB2
ENCODING 8114
SWIDTH 585 0
DWIDTH 13 0
BBX 12 21 1 -4
BITMAP
0800
1C00
0E00
0200
0000
1FC0
3FC0
70C0
60C0
C0C0
C0C0
C0C0
C0C0
E0C0
70C0
3FF0
1F30
0000
0600
0600
0300
ENDCHAR
STARTCHAR 1FB3
ENCODING 8115
SWIDTH 585 0
DWIDTH 13 0
BBX 12 16 1 -4
BITMAP
1FC0
3FC0
70C0
60C0
C0C0
C0C0
C0C0
C0C0
E0C0
70C0
3FF0
1F30
0000
0600
0600
0300
ENDCHAR
STARTCHAR 1FB4
ENCODING 8116
SWIDTH 585 0
DWIDTH 13 0
BBX 12 21 1 -4
BITMAP
0100
0300
0F00
0C00
0000
1FC0
3FC0
70C0
60C0
C0C0
C0C0
C0C0
C0C0
E0C0
70C0
3FF0
1F30
0000
0600
0600
0300
ENDCHAR
STARTCHAR 1FB6
ENCODING 8118
SWIDTH 585 0
DWIDTH 13 0
BBX 12 16 1 0
BITMAP
0E00
1F00
1180
0000
1FC0
3FC0
70C0
60C0
C0C0
C0C0
C0C0
C0C0
E0C0
70C0
3FF0
1F30
ENDCHAR
STARTCHAR 1FB7
ENCODING 8119
SWIDTH 585 0
DWIDTH 13 0
BBX 12 20 1 -4
BITMAP
0E00
1F00
1180
0000
1FC0
3FC0
70C0
60C0
C0C0
C0C0
C0C0
C0C0
E0C0
70C0
3FF0
1F30
0000
0600
0600
0300
ENDCHAR
STARTCHAR 1FB8
ENCODING 8120
SWIDTH 675 0
DWIDTH 15 0
BBX 14 19 0 0
BITMAP
0C40
07C0
0380
0000
0380
0380
0780
06C0
0CC0
0C60
1860
1870
1830
3FF0
3FF8
7018
6018
600C
E00C
ENDCHAR
STARTCHAR 1FB9
ENCODING 8121
SWIDTH 675 0
DWIDTH 15 0
BBX 14 19 0 0
BITMAP
0FC0
0FC0
0000
0000
0380
0380
0780
06C0
0CC0
0C60
1860
1870
1830
3FF0
3FF8
7018
6018
600C
E00C
ENDCHAR
STARTCHAR 1FBA
ENCODING 8122
SWIDTH 675 0
DWIDTH 15 0
BBX 14 15 0 0
BITMAP
8380
C380
6780
26C0
0CC0
0C60
1860
1870
1830
3FF0
3FF8
7018
6018
600C
E00C
ENDCHAR
STARTCHAR 1FBB
ENCODING 8123
SWIDTH 675 0
DWIDTH 15 0
BBX 14 15 0 0
BITMAP
1380
3380
6780
46C0
0CC0
0C60
1860
1870
1830
3FF0
3FF8
7018
6018
600C
E00C
ENDCHAR
STARTCHAR 1FBC
ENCODING 8124
SWIDTH 945 0
DWIDTH 21 0
BBX 20 15 0 0
BITMAP
038000
038000
078000
06C0C0
0CC0C0
0C60C0
1860C0
1870C0
1830C0
3FF0C0
3FF8C0
7018C0
6018E0
600C70
E00C30
ENDCHAR
STARTCHAR 1FBD
ENCODING 8125
SWIDTH 360 0
DWIDTH 8 0
BBX 3 5 3 13
BITMAP
E0
E0
60
C0
80
ENDCHAR
STARTCHAR 1FBE
ENCODING 8126
SWIDTH 270 0
DWIDTH 6 0
BBX 3 3 2 -4
BITMAP
C0
C0
60
ENDCHAR
STARTCHAR 1FBF
ENCODING 8127
SWIDTH 360 0
DWIDTH 8 0
BBX 3 5 3 13
BITMAP
E0
E0
60
C0
80
ENDCHAR
STARTCHAR 1FC0
ENCODING 8128
SWIDTH 360 0
DWIDTH 8 0
BBX 6 3 1 13
BITMAP
78
7C
C4
ENDCHAR
STARTCHAR 1FC1
ENCODING 8129
SWIDTH 360 0
DWIDTH 8 0
BBX 6 6 1 13
BITMAP
78
7C
C4
00
CC
CC
ENDCHAR
STARTCHAR 1FC2
ENCODING 8130
SWIDTH 585 0
DWIDTH 13 0
BBX 9 21 2 -4
BITMAP
2000
3000
3C00
0C00
0000
FE00
FF00
C380
C180
C180
C180
C180
C180
C180
C180
C180
C180
0180
C180
C180
6180
ENDCHAR
STARTCHAR 1FC3
ENCODING 8131
SWIDTH 585 0
DWIDTH 13 0
BBX 9 16 2 -4
BITMAP
FE00
FF00
C380
C180
C180
C180
C180
C180
C180
C180
C180
C180
0180
C180
C180
6180
ENDCHAR
STARTCHAR 1FC4
ENCODING 8132
SWIDTH 585 0
DWIDTH 13 0
BBX 9 21 2 -4
BITMAP
0200
0E00
1C00
1000
0000
FE00
FF00
C380
C180
C180
C180
C180
C180
C180
C180
C180
C180
0180
C180
C180
6180
ENDCHAR
STARTCHAR 1FC6
ENCODING 8134
SWIDTH 585 0
DWIDTH 13 0
BBX 9 20 2 -4
BITMAP
1C00
3E00
6200
0000
FE00
FF00
C380
C180
C180
C180
C180
C180
C180
C180
C180
C180
0180
0180
0180
0180
ENDCHAR
STARTCHAR 1FC7
ENCODING 8135
SWIDTH 585 0
DWIDTH 13 0
BBX 9 20 2 -4
BITMAP
1C00
3E00
6200
0000
FE00
FF00
C380
C180
C180
C180
C180
C180
C180
C180
C180
C180
0180
C180
C180
6180
ENDCHAR
STARTCHAR 1FC8
ENCODING 8136
SWIDTH 675 0
DWIDTH 15 0
BBX 14 15 0 0
BITMAP
87FC
C7FC
6600
2600
0600
0600
07F8
07F8
0600
0600
0600
0600
0600
07FC
07FC
ENDCHAR
STARTCHAR 1FC9
ENCODING 8137
SWIDTH 675 0
DWIDTH 15 0
BBX 14 15 0 0
BITMAP
27FC
67FC
C600
8600
0600
0600
07F8
07F8
0600
0600
0600
0600
0600
07FC
07FC
ENDCHAR
STARTCHAR 1FCA
ENCODING 8138
SWIDTH 810 0
DWIDTH 18 0
BBX 16 15 0 0
BITMAP
8603
C603
6603
2603
0603
0603
07FF
07FF
0603
0603
0603
0603
0603
0603
0603
ENDCHAR
STARTCHAR 1FCB
ENCODING 8139
SWIDTH 810 0
DWIDTH 18 0
BBX 16 15 0 0
BITMAP
2603
6603
C603
8603
0603
0603
07FF
07FF
0603
0603
0603
0603
0603
0603
0603
ENDCHAR
STARTCHAR 1FCC
ENCODING 8140
SWIDTH 990 0
DWIDTH 22 0
BBX 19 15 2 0
BITMAP
C07000
C07000
C07000
C07180
C07180
C07180
FFF180
FFF180
C07180
C07180
C07180
C07180
C071C0
C070E0
C07060
ENDCHAR
STARTCHAR 1FCD
ENCODING 8141
SWIDTH 360 0
DWIDTH 8 0
BBX 7 5 1 13
BITMAP
C8
D8
4C
C4
86
ENDCHAR
STARTCHAR 1FCE
ENCODING 8142
SWIDTH 360 0
DWIDTH 8 0
BBX 7 5 1 13
BITMAP
C4
EE
4C
D8
90
ENDCHAR
STARTCHAR 1FCF
ENCODING 8143
SWIDTH 360 0
DWIDTH 8 0
BBX 6 8 1 13
BITMAP
78
7C
C4
00
30
30
30
20
ENDCHAR
STARTCHAR 1FD0
ENCODING 8144
SWIDTH 270 0
DWIDTH 6 0
BBX 6 16 0 0
BITMAP
8C
F8
78
00
30
30
30
30
30
30
30
30
30
30
38
18
ENDCHAR
STARTCHAR 1FD1
ENCODING 8145
SWIDTH 270 0
DWIDTH 6 0
BBX 6 16 0 0
BITMAP
FC
FC
00
00
30
30
30
30
30
30
30
30
30
30
38
18
ENDCHAR
STARTCHAR 1FD2
ENCODING 8146
SWIDTH 270 0
DWIDTH 6 0
BBX 8 17 -1 0
BITMAP
10
D3
DB
08
00
18
18
18
18
18
18
18
18
18
18
1C
0C
ENDCHAR
STARTCHAR 1FD3
ENCODING 8147
SWIDTH 270 0
DWIDTH 6 0
BBX 8 17 -1 0
BITMAP
08
DB
D3
30
00
18
18
18
18
18
18
18
18
18
18
1C
0C
ENDCHAR
STARTCHAR 1FD6
ENCODING 8150
SWIDTH 270 0
DWIDTH 6 0
BBX 6 16 0 0
BITMAP
78
F8
8C
00
30
30
30
30
30
30
30
30
30
30
38
18
ENDCHAR
STARTCHAR 1FD7
ENCODING 8151
SWIDTH 270 0
DWIDTH 6 0
BBX 6 19 0 0
BITMAP
70
F8
8C
00
CC
CC
00
30
30
30
30
30
30
30
30
30
30
38
18
ENDCHAR
STARTCHAR 1FD8
ENCODING 8152
SWIDTH 270 0
DWIDTH 6 0
BBX 6 19 0 0
BITMAP
CC
FC
78
00
30
30
30
30
30
30
30
30
30
30
30
30
30
30
30
ENDCHAR
STARTCHAR 1FD9
ENCODING 8153
SWIDTH 270 0
DWIDTH 6 0
BBX 6 19 0 0
BITMAP
FC
FC
00
00
30
30
30
30
30
30
30
30
30
30
30
30
30
30
30
ENDCHAR
STARTCHAR 1FDA
ENCODING 8154
SWIDTH 405 0
DWIDTH 9 0
BBX 7 15 0 0
BITMAP
86
C6
66
26
06
06
06
06
06
06
06
06
06
06
06
ENDCHAR
STARTCHAR 1FDB
ENCODING 8155
SWIDTH 405 0
DWIDTH 9 0
BBX 7 15 0 0
BITMAP
26
66
C6
86
06
06
06
06
06
06
06
06
06
06
06
ENDCHAR
STARTCHAR 1FDD
ENCODING 8157
SWIDTH 360 0
DWIDTH 8 0
BBX 7 5 1 13
BITMAP
C8
D8
8C
CC
46
ENDCHAR
STARTCHAR 1FDE
ENCODING 8158
SWIDTH 360 0
DWIDTH 8 0
BBX 8 5 0 13
BITMAP
62
E3
46
64
2C
ENDCHAR
STARTCHAR 1FDF
ENCODING 8159
SWIDTH 360 0
DWIDTH 8 0
BBX 6 8 1 13
BITMAP
78
7C
C4
00
30
30
30
18
ENDCHAR
STARTCHAR 1FE0
ENCODING 8160
SWIDTH 585 0
DWIDTH 13 0
BBX 9 16 2 0
BITMAP
6200
3E00
1C00
0000
C180
C180
C180
C180
C180
C180
C180
C180
C180
E380
7F00
3E00
ENDCHAR
STARTCHAR 1FE1
ENCODING 8161
SWIDTH 585 0
DWIDTH 13 0
BBX 9 16 2 0
BITMAP
7E00
7E00
0000
0000
C180
C180
C180
C180
C180
C180
C180
C180
C180
E380
7F00
3E00
ENDCHAR
STARTCHAR 1FE2
ENCODING 8162
SWIDTH 585 0
DWIDTH 13 0
BBX 9 17 2 0
BITMAP
1000
DB80
CF80
0400
0000
C180
C180
C180
C180
C180
C180
C180
C180
C180
E380
7F00
3E00
ENDCHAR
STARTCHAR 1FE3
ENCODING 8163
SWIDTH 585 0
DWIDTH 13 0
BBX 9 17 2 0
BITMAP
0800
CF80
DB80
1000
0000
C180
C180
C180
C180
C180
C180
C180
C180
C180
E380
7F00
3E00
ENDCHAR
STARTCHAR 1FE4
ENCODING 8164
SWIDTH 585 0
DWIDTH 13 0
BBX 10 22 2 -4
BITMAP
0C00
0C00
0C00
0800
1800
0000
3E00
7F80
E180
C1C0
C0C0
C0C0
C0C0
C0C0
C1C0
C380
FF00
FE00
C000
C000
C000
C000
ENDCHAR
STARTCHAR 1FE5
ENCODING 8165
SWIDTH 585 0
DWIDTH 13 0
BBX 10 22 2 -4
BITMAP
1800
1800
1800
0800
0400
0000
3E00
7F80
E180
C1C0
C0C0
C0C0
C0C0
C0C0
C1C0
C380
FF00
FE00
C000
C000
C000
C000
ENDCHAR
STARTCHAR 1FE6
ENCODING 8166
SWIDTH 585 0
DWIDTH 13 0
BBX 9 16 2 0
BITMAP
1C00
3E00
6200
0000
C180
C180
C180
C180
C180
C180
C180
C180
C180
E380
7F00
3E00
ENDCHAR
STARTCHAR 1FE7
ENCODING 8167
SWIDTH 585 0
DWIDTH 13 0
BBX 9 19 2 0
BITMAP
1C00
3E00
6200
0000
6300
6300
0000
C180
C180
C180
C180
C180
C180
C180
C180
C180
E380
7F00
3E00
ENDCHAR
STARTCHAR 1FE8
ENCODING 8168
SWIDTH 585 0
DWIDTH 13 0
BBX 13 19 0 0
BITMAP
0880
0F80
0700
0000
E038
6030
3070
3860
18C0
1CC0
0D80
0780
0700
0300
0300
0300
0300
0300
0300
ENDCHAR
STARTCHAR 1FE9
ENCODING 8169
SWIDTH 585 0
DWIDTH 13 0
BBX 13 19 0 0
BITMAP
1FC0
1FC0
0000
0000
E038
6030
3070
3860
18C0
1CC0
0D80
0780
0700
0300
0300
0300
0300
0300
0300
ENDCHAR
STARTCHAR 1FEA
ENCODING 8170
SWIDTH 720 0
DWIDTH 16 0
BBX 16 15 0 0
BITMAP
8C03
CE06
660E
270C
031C
0398
01B0
00F0
00E0
0060
0060
0060
0060
0060
0060
ENDCHAR
STARTCHAR 1FEB
ENCODING 8171
SWIDTH 765 0
DWIDTH 17 0
BBX 17 15 0 0
BITMAP
2E0380
660300
C30700
838600
018E00
01CC00
00D800
007800
007000
003000
003000
003000
003000
003000
003000
ENDCHAR
STARTCHAR 1FEC
ENCODING 8172
SWIDTH 675 0
DWIDTH 15 0
BBX 15 16 -1 0
BITMAP
6000
EFF0
CFFC
6C1E
2C06
0C06
0C06
0C1E
0FFC
0FF0
0C00
0C00
0C00
0C00
0C00
0C00
ENDCHAR
STARTCHAR 1FED
ENCODING 8173
SWIDTH 360 0
DWIDTH 8 0
BBX 8 4 0 13
BITMAP
10
DB
CB
0C
ENDCHAR
STARTCHAR 1FEE
ENCODING 8174
SWIDTH 360 0
DWIDTH 8 0
BBX 8 4 0 13
BITMAP
08
CB
DB
10
ENDCHAR
STARTCHAR 1FEF
ENCODING 8175
SWIDTH 360 0
DWIDTH 8 0
BBX 4 4 1 13
BITMAP
40
E0
70
10
ENDCHAR
STARTCHAR 1FF2
ENCODING 8178
SWIDTH 810 0
DWIDTH 18 0
BBX 16 21 1 -4
BITMAP
0200
0300
0380
00C0
0000
3004
7006
6186
6183
E183
C183
C183
C183
E1C3
63C7
7FFE
1E3C
0000
0180
0180
00E0
ENDCHAR
STARTCHAR 1FF3
ENCODING 8179
SWIDTH 810 0
DWIDTH 18 0
BBX 16 16 1 -4
BITMAP
3004
7006
6186
6183
E183
C183
C183
C183
E1C3
63C7
7FFE
1E3C
0000
0180
0180
00E0
ENDCHAR
STARTCHAR 1FF4
ENCODING 8180
SWIDTH 810 0
DWIDTH 18 0
BBX 16 21 1 -4
BITMAP
0040
00E0
01C0
0100
0000
3004
7006
6186
6183
E183
C183
C183
C183
E1C3
63C7
7FFE
1E3C
0000
0180
0180
00E0
ENDCHAR
STARTCHAR 1FF6
ENCODING 8182
SWIDTH 810 0
DWIDTH 18 0
BBX 16 16 1 0
BITMAP
03C0
03E0
0620
0000
3004
7006
6186
6183
E183
C183
C183
C183
E1C3
63C7
7FFE
1E3C
ENDCHAR
STARTCHAR 1FF7
ENCODING 8183
SWIDTH 810 0
DWIDTH 18 0
BBX 16 20 1 -4
BITMAP
03C0
03E0
0620
0000
3004
7006
6186
6183
E183
C183
C183
C183
E1C3
63C7
7FFE
1E3C
0000
0180
0180
00E0
ENDCHAR
STARTCHAR 1FF8
ENCODING 8184
SWIDTH 855 0
DWIDTH 19 0
BBX 18 15 0 0
BITMAP
80FC00
C3FE00
670780
2E0380
0C01C0
0C00C0
0C00C0
0C00C0
0C00C0
0C00C0
0C01C0
0E0380
070780
03FE00
00FC00
ENDCHAR
STARTCHAR 1FF9
ENCODING 8185
SWIDTH 810 0
DWIDTH 18 0
BBX 17 15 0 0
BITMAP
21F800
67FC00
CE0E00
9C0700
180380
180180
180180
180180
180180
180180
180380
1C0700
0E0E00
07FC00
01F800
ENDCHAR
STARTCHAR 1FFA
ENCODING 8186
SWIDTH 855 0
DWIDTH 19 0
BBX 18 15 0 0
BITMAP
80FC00
C3FE00
670700
2E0380
0C01C0
0C01C0
0C00C0
0C00C0
0C00C0
0C0180
060180
060300
030700
1F8FC0
1F8FC0
ENDCHAR
STARTCHAR 1FFB
ENCODING 8187
SWIDTH 810 0
DWIDTH 18 0
BBX 17 15 0 0
BITMAP
21F800
67FC00
CE0E00
9C0700
180380
180380
180180
180180
180180
180300
0C0300
0C0600
060E00
3F1F80
3F1F80
ENDCHAR
STARTCHAR 1FFC
ENCODING 8188
SWIDTH 1035 0
DWIDTH 23 0
BBX 22 15 1 0
BITMAP
07C000
1FF000
383800
701C30
600C30
600E30
600E30
600630
600E30
600C30
700C30
301830
183030
FC7E3C
FC7E1C
ENDCHAR
STARTCHAR 1FFD
ENCODING 8189
SWIDTH 360 0
DWIDTH 8 0
BBX 4 4 3 13
BITMAP
20
70
E0
80
ENDCHAR
STARTCHAR 1FFE
ENCODING 8190
SWIDTH 360 0
DWIDTH 8 0
BBX 3 5 2 13
BITMAP
60
E0
40
60
20
ENDCHAR
STARTCHAR 2013
ENCODING 8211
SWIDTH 495 0
DWIDTH 11 0
BBX 11 2 0 6
BITMAP
FFE0
FFE0
ENDCHAR
STARTCHAR 2014
ENCODING 8212
SWIDTH 990 0
DWIDTH 22 0
BBX 22 2 0 6
BITMAP
FFFFFC
FFFFFC
ENDCHAR
STARTCHAR 2015
ENCODING 8213
SWIDTH 990 0
DWIDTH 22 0
BBX 22 2 0 6
BITMAP
FFFFFC
FFFFFC
ENDCHAR
STARTCHAR 2018
ENCODING 8216
SWIDTH 225 0
DWIDTH 5 0
BBX 3 6 1 11
BITMAP
20
60
60
60
E0
E0
ENDCHAR
STARTCHAR 2019
ENCODING 8217
SWIDTH 225 0
DWIDTH 5 0
BBX 3 6 1 11
BITMAP
60
60
60
C0
C0
C0
ENDCHAR
STARTCHAR 201A
ENCODING 8218
SWIDTH 225 0
DWIDTH 5 0
BBX 3 6 1 -3
BITMAP
60
60
60
C0
C0
C0
ENDCHAR
STARTCHAR 201C
ENCODING 8220
SWIDTH 405 0
DWIDTH 9 0
BBX 7 6 1 11
BITMAP
22
66
66
66
EE
EE
ENDCHAR
STARTCHAR 201D
ENCODING 8221
SWIDTH 405 0
DWIDTH 9 0
BBX 7 6 1 11
BITMAP
66
66
66
CC
CC
CC
ENDCHAR
STARTCHAR 201E
ENCODING 8222
SWIDTH 405 0
DWIDTH 9 0
BBX 7 6 1 -3
BITMAP
66
66
66
CC
CC
CC
ENDCHAR
STARTCHAR 2020
ENCODING 8224
SWIDTH 450 0
DWIDTH 10 0
BBX 9 19 1 -3
BITMAP
1800
1800
1800
1800
1800
FF80
FF80
1800
1800
1800
1800
1800
1800
1800
1800
1800
1800
0800
0800
ENDCHAR
STARTCHAR 2021
ENCODING 8225
SWIDTH 450 0
DWIDTH 10 0
BBX 9 19 1 -3
BITMAP
1800
1800
1800
1800
1800
FF80
FF80
1800
1800
1800
1800
FF80
FF80
1800
1800
1800
1800
0800
0800
ENDCHAR
STARTCHAR 2022
ENCODING 8226
SWIDTH 360 0
DWIDTH 8 0
BBX 6 6 1 5
BITMAP
78
F8
FC
FC
F8
78
ENDCHAR
STARTCHAR 2026
ENCODING 8230
SWIDTH 990 0
DWIDTH 22 0
BBX 18 3 2 0
BITMAP
60C180
E1C1C0
60C180
ENDCHAR
STARTCHAR 2030
ENCODING 8240
SWIDTH 1215 0
DWIDTH 27 0
BBX 25 15 1 0
BITMAP
38180000
7C180000
C6300000
C6300000
C6600000
C6600000
C6CE0E00
7D9F1F00
39B33180
0331B180
0331B180
0631B180
06333180
0C1F1F00
180E0E00
ENDCHAR
STARTCHAR 2039
ENCODING 8249
SWIDTH 270 0
DWIDTH 6 0
BBX 4 9 1 2
BITMAP
10
30
60
E0
C0
E0
60
30
10
ENDCHAR
STARTCHAR 203A
ENCODING 8250
SWIDTH 270 0
DWIDTH 6 0
BBX 5 9 1 2
BITMAP
C0
C0
60
30
38
30
60
C0
C0
ENDCHAR
STARTCHAR 2044
ENCODING 8260
SWIDTH 135 0
DWIDTH 3 0
BBX 10 15 -3 0
BITMAP
00C0
0180
0300
0300
0600
0600
0C00
0C00
1800
3000
3000
6000
6000
C000
C000
ENDCHAR
STARTCHAR 2070
ENCODING 8304
SWIDTH 360 0
DWIDTH 8 0
BBX 6 9 1 6
BITMAP
78
FC
CC
84
84
84
CC
FC
78
ENDCHAR
STARTCHAR 2074
ENCODING 8308
SWIDTH 360 0
DWIDTH 8 0
BBX 6 9 1 6
BITMAP
18
38
28
48
C8
FC
FC
08
08
ENDCHAR
STARTCHAR 2075
ENCODING 8309
SWIDTH 360 0
DWIDTH 8 0
BBX 6 9 1 6
BITMAP
7C
7C
40
70
7C
0C
0C
FC
F8
ENDCHAR
STARTCHAR 2076
ENCODING 8310
SWIDTH 360 0
DWIDTH 8 0
BBX 6 9 1 6
BITMAP
1C
7C
E0
F8
FC
84
CC
FC
78
ENDCHAR
STARTCHAR 2077
ENCODING 8311
SWIDTH 360 0
DWIDTH 8 0
BBX 6 9 1 6
BITMAP
FC
FC
08
18
30
30
20
60
60
ENDCHAR
STARTCHAR 2078
ENCODING 8312
SWIDTH 360 0
DWIDTH 8 0
BBX 6 9 1 6
BITMAP
78
FC
8C
F8
FC
8C
8C
FC
78
ENDCHAR
STARTCHAR 2079
ENCODING 8313
SWIDTH 360 0
DWIDTH 8 0
BBX 6 9 1 6
BITMAP
78
FC
8C
84
FC
7C
18
F8
E0
ENDCHAR
STARTCHAR 2080
ENCODING 8320
SWIDTH 360 0
DWIDTH 8 0
BBX 6 9 1 -1
BITMAP
78
FC
CC
84
84
84
CC
FC
78
ENDCHAR
STARTCHAR 2081
ENCODING 8321
SWIDTH 360 0
DWIDTH 8 0
BBX 4 9 1 -1
BITMAP
10
70
F0
D0
10
10
10
10
10
ENDCHAR
STARTCHAR 2082
ENCODING 8322
SWIDTH 360 0
DWIDTH 8 0
BBX 6 9 1 -1
BITMAP
78
F8
8C
08
10
20
40
FC
FC
ENDCHAR
STARTCHAR 2083
ENCODING 8323
SWIDTH 360 0
DWIDTH 8 0
BBX 6 9 1 -1
BITMAP
F8
F8
88
78
78
0C
0C
FC
F8
ENDCHAR
STARTCHAR 2084
ENCODING 8324
SWIDTH 360 0
DWIDTH 8 0
BBX 6 9 1 -1
BITMAP
18
38
28
48
C8
FC
FC
08
08
ENDCHAR
STARTCHAR 2085
ENCODING 8325
SWIDTH 360 0
DWIDTH 8 0
BBX 6 9 1 -1
BITMAP
7C
7C
40
70
7C
0C
0C
FC
F8
ENDCHAR
STARTCHAR 2086
ENCODING 8326
SWIDTH 360 0
DWIDTH 8 0
BBX 6 9 1 -1
BITMAP
1C
7C
E0
F8
FC
84
CC
FC
78
ENDCHAR
STARTCHAR 2087
ENCODING 8327
SWIDTH 360 0
DWIDTH 8 0
BBX 6 9 1 -1
BITMAP
FC
FC
08
18
30
30
20
60
60
ENDCHAR
STARTCHAR 2088
ENCODING 8328
SWIDTH 360 0
DWIDTH 8 0
BBX 6 9 1 -1
BITMAP
78
FC
8C
F8
FC
8C
8C
FC
78
ENDCHAR
STARTCHAR 2089
ENCODING 8329
SWIDTH 360 0
DWIDTH 8 0
BBX 6 9 1 -1
BITMAP
78
FC
8C
84
FC
7C
18
F8
E0
ENDCHAR
STARTCHAR 20AC
ENCODING 8364
SWIDTH 540 0
DWIDTH 12 0
BBX 11 15 1 0
BITMAP
07E0
1FC0
1800
3000
FF80
FF80
3000
3000
FF00
FF00
3000
3800
1C20
0FE0
07E0
ENDCHAR
STARTCHAR 20AE
ENCODING 8366
SWIDTH 540 0
DWIDTH 12 0
BBX 11 15 1 0
BITMAP
FFE0
FFE0
0C00
0C00
0D80
0F80
1E00
7C00
6C00
0D80
0F80
1E00
7C00
6C00
0C00
ENDCHAR
STARTCHAR 20B4
ENCODING 8372
SWIDTH 540 0
DWIDTH 12 0
BBX 11 15 1 0
BITMAP
3F00
3F80
01C0
00C0
FFE0
FFE0
0700
1C00
FFE0
FFE0
6000
6000
6040
7FC0
1F80
ENDCHAR
STARTCHAR 20B9
ENCODING 8377
SWIDTH 540 0
DWIDTH 12 0
BBX 11 15 1 0
BITMAP
FFE0
FFE0
0300
0180
FFC0
FFC0
0180
0700
FE00
FC00
7000
3800
1C00
0600
0700
ENDCHAR
STARTCHAR 2113
ENCODING 8467
SWIDTH 450 0
DWIDTH 10 0
BBX 8 17 1 0
BITMAP
1E
3F
33
73
63
63
62
66
64
68
70
60
E0
F0
31
3F
1F
ENDCHAR
STARTCHAR 2116
ENCODING 8470
SWIDTH 1125 0
DWIDTH 25 0
BBX 22 15 2 0
BITMAP
C030F0
E03318
F03208
F8320C
D83208
CC3318
CE30F0
C63000
C33000
C3B3F8
C1B3F8
C0F000
C0F000
C07000
C07000
ENDCHAR
STARTCHAR 2122
ENCODING 8482
SWIDTH 765 0
DWIDTH 17 0
BBX 16 7 0 8
BITMAP
FF86
FFC6
11CE
11EE
11BA
11B3
1103
ENDCHAR
STARTCHAR 2126
ENCODING 8486
SWIDTH 765 0
DWIDTH 17 0
BBX 15 15 1 0
BITMAP
07C0
1FF0
3838
701C
600C
600E
600E
6006
600E
600C
700C
3018
1830
FC7E
FC7E
ENDCHAR
STARTCHAR 212E
ENCODING 8494
SWIDTH 945 0
DWIDTH 21 0
BBX 18 17 1 0
BITMAP
03F000
0FFC00
1E0E00
380300
700180
700180
7001C0
FFFFC0
FFFFC0
F00000
700000
700000
700100
380600
1E0C00
0FF800
03F000
ENDCHAR
STARTCHAR 2153
ENCODING 8531
SWIDTH 855 0
DWIDTH 19 0
BBX 17 16 1 -1
BITMAP
101800
701800
F03000
D06000
106000
10C000
10C000
118F00
111F80
030180
060700
060780
0C0180
0C0180
181F80
001F00
ENDCHAR
STARTCHAR 2154
ENCODING 8532
SWIDTH 855 0
DWIDTH 19 0
BBX 17 16 1 -1
BITMAP
780C00
F81800
8C3000
083000
106000
206000
40C000
FCCF00
FD9F80
030180
030700
060780
060180
0C0180
0C1F80
001F00
ENDCHAR
STARTCHAR 2155
ENCODING 8533
SWIDTH 855 0
DWIDTH 19 0
BBX 17 16 1 -1
BITMAP
101800
701800
F03000
D06000
106000
10C000
10C000
118F80
110F80
030800
060F00
060F80
0C0180
0C0080
181F80
001F00
ENDCHAR
STARTCHAR 2156
ENCODING 8534
SWIDTH 855 0
DWIDTH 19 0
BBX 17 16 1 -1
BITMAP
780C00
F81800
8C1800
083000
103000
206000
404000
FCCF80
FD8F80
018800
030F00
030F80
060180
0C0080
0C1F80
001F00
ENDCHAR
STARTCHAR 2157
ENCODING 8535
SWIDTH 855 0
DWIDTH 19 0
BBX 17 16 1 -1
BITMAP
F80C00
F81800
883000
783000
786000
0C6000
0CC000
FCCF80
F98F80
030800
030F00
060F80
060180
0C0080
0C1F80
001F00
ENDCHAR
STARTCHAR 2158
ENCODING 8536
SWIDTH 855 0
DWIDTH 19 0
BBX 17 16 1 -1
BITMAP
180C00
381800
281800
483000
C82000
FC6000
FCC000
08CF80
098F80
018800
030F00
020F80
060180
0C0080
0C1F80
001F00
ENDCHAR
STARTCHAR 2159
ENCODING 8537
SWIDTH 855 0
DWIDTH 19 0
BBX 18 16 1 -1
BITMAP
100C00
701800
F03000
D03000
106000
106000
10C000
10C380
118780
030C00
031F00
061F80
0618C0
0C18C0
0C0F80
000700
ENDCHAR
STARTCHAR 215A
ENCODING 8538
SWIDTH 855 0
DWIDTH 19 0
BBX 18 16 1 -1
BITMAP
7C0C00
7C1800
401800
703000
7C2000
0C6000
0CC000
FCC380
F98780
018C00
031F00
021F80
0618C0
0C18C0
0C0F80
000700
ENDCHAR
STARTCHAR 215B
ENCODING 8539
SWIDTH 855 0
DWIDTH 19 0
BBX 17 16 1 -1
BITMAP
101800
701800
F03000
D06000
106000
10C000
10C000
118F00
111F80
031880
060F80
060F80
0C1880
0C1880
181F80
000F00
ENDCHAR
STARTCHAR 215C
ENCODING 8540
SWIDTH 855 0
DWIDTH 19 0
BBX 17 16 1 -1
BITMAP
F80C00
F81800
883000
783000
786000
0C6000
0CC000
FCCF00
F99F80
031880
030F80
060F80
061880
0C1880
0C1F80
000F00
ENDCHAR
STARTCHAR 215D
ENCODING 8541
SWIDTH 855 0
DWIDTH 19 0
BBX 17 16 1 -1
BITMAP
7C0C00
7C1800
403000
703000
7C6000
0C6000
0CC000
FCCF00
F99F80
031880
030F80
060F80
061880
0C1880
0C1F80
000F00
ENDCHAR
STARTCHAR 215E
ENCODING 8542
SWIDTH 855 0
DWIDTH 19 0
BBX 17 16 1 -1
BITMAP
FC1800
FC3000
082000
186000
30C000
30C000
218000
618F00
631F80
021880
060F80
0C0F80
0C1880
181880
181F80
000F00
ENDCHAR
STARTCHAR 2202
ENCODING 8706
SWIDTH 585 0
DWIDTH 13 0
BBX 11 17 1 0
BITMAP
7E00
7F80
0380
00C0
00C0
00C0
1F60
3FE0
70E0
E060
C060
C0C0
C0C0
C0C0
E180
7F00
3E00
ENDCHAR
STARTCHAR 2206
ENCODING 8710
SWIDTH 630 0
DWIDTH 14 0
BBX 14 15 0 0
BITMAP
0300
0780
0780
04C0
0CC0
0C60
1860
1860
3030
3030
3038
6018
6018
7FFC
FFFC
ENDCHAR
STARTCHAR 220F
ENCODING 8719
SWIDTH 675 0
DWIDTH 15 0
BBX 11 18 2 -3
BITMAP
FFE0
FFE0
C060
C060
C060
C060
C060
C060
C060
C060
C060
C060
C060
C060
C060
C060
C060
C060
ENDCHAR
STARTCHAR 2211
ENCODING 8721
SWIDTH 495 0
DWIDTH 11 0
BBX 11 17 0 -2
BITMAP
FFE0
FFE0
6000
3000
1800
1C00
0C00
0600
0700
0600
0C00
1800
3800
3000
6000
FFE0
FFE0
ENDCHAR
STARTCHAR 2212
ENCODING 8722
SWIDTH 540 0
DWIDTH 12 0
BBX 10 2 1 6
BITMAP
FFC0
FFC0
ENDCHAR
STARTCHAR 2215
ENCODING 8725
SWIDTH 135 0
DWIDTH 3 0
BBX 10 15 -3 0
BITMAP
00C0
0180
0300
0300
0600
0600
0C00
0C00
1800
3000
3000
6000
6000
C000
C000
ENDCHAR
STARTCHAR 2219
ENCODING 8729
SWIDTH 225 0
DWIDTH 5 0
BBX 3 3 1 5
BITMAP
60
E0
60
ENDCHAR
STARTCHAR 221A
ENCODING 8730
SWIDTH 540 0
DWIDTH 12 0
BBX 13 18 0 -1
BITMAP
0018
0030
0030
0030
0020
0060
0060
0040
30C0
F0C0
58C0
1880
0D80
0D80
0D00
0700
0700
0300
ENDCHAR
STARTCHAR 221E
ENCODING 8734
SWIDTH 585 0
DWIDTH 13 0
BBX 11 7 1 3
BITMAP
71C0
FBE0
CE60
8420
CE60
FBE0
71C0
ENDCHAR
STARTCHAR 222B
ENCODING 8747
SWIDTH 360 0
DWIDTH 8 0
BBX 8 21 0 -4
BITMAP
07
0F
1C
18
18
18
18
18
18
18
18
18
18
18
18
18
18
18
38
F0
E0
ENDCHAR
STARTCHAR 2248
ENCODING 8776
SWIDTH 540 0
DWIDTH 12 0
BBX 10 8 1 3
BITMAP
7840
7CC0
CFC0
8380
7840
7CC0
CFC0
8380
ENDCHAR
STARTCHAR 2260
ENCODING 8800
SWIDTH 540 0
DWIDTH 12 0
BBX 10 13 1 0
BITMAP
0100
0100
0300
FFC0
FFC0
0600
0C00
0C00
FFC0
FFC0
3000
3000
2000
ENDCHAR
STARTCHAR 2264
ENCODING 8804
SWIDTH 540 0
DWIDTH 12 0
BBX 10 13 1 0
BITMAP
00C0
07C0
3F00
F800
C000
F800
3F00
07C0
00C0
0000
0000
FFC0
FFC0
ENDCHAR
STARTCHAR 2265
ENCODING 8805
SWIDTH 540 0
DWIDTH 12 0
BBX 10 13 1 0
BITMAP
4000
F800
3F00
07C0
00C0
07C0
3F00
F800
4000
0000
0000
FFC0
FFC0
ENDCHAR
STARTCHAR 25CA
ENCODING 9674
SWIDTH 540 0
DWIDTH 12 0
BBX 10 17 1 0
BITMAP
0400
0C00
1E00
1E00
3300
2180
6180
C0C0
C0C0
C0C0
6180
2180
3300
1E00
1E00
0C00
0400
ENDCHAR
STARTCHAR E0FF
ENCODING 57599
SWIDTH 765 0
DWIDTH 17 0
BBX 16 15 1 0
BITMAP
07E0
1FF0
3F9C
7C5C
F43E
E7CE
E7CE
9FFF
E7CE
E7CE
F43E
7C5C
3F9C
1FF0
07C0
ENDCHAR
STARTCHAR EFFD
ENCODING 61437
SWIDTH 1665 0
DWIDTH 37 0
BBX 35 9 1 -1
BITMAP
7803C7C3C0
FC07E7C7E0
CC06206660
8403E1C420
8402E1C420
84E6206420
CCE6206660
FCE7E7E7E0
7803C7C3C0
ENDCHAR
STARTCHAR F000
ENCODING 61440
SWIDTH 990 0
DWIDTH 22 0
BBX 18 15 2 0
BITMAP
FE3F80
010040
010040
010040
010040
010040
010040
FE3F80
000000
802000
802000
802000
802000
000000
FE3F80
ENDCHAR
STARTCHAR F001
ENCODING 61441
SWIDTH 630 0
DWIDTH 14 0
BBX 11 17 2 0
BITMAP
3C00
7CE0
C0E0
C000
C000
FCC0
FCC0
C0C0
C0C0
C0C0
C0C0
C0C0
C0C0
C0C0
C0C0
C0C0
C0C0
ENDCHAR
STARTCHAR F002
ENCODING 61442
SWIDTH 675 0
DWIDTH 15 0
BBX 12 17 2 0
BITMAP
3CC0
7CC0
C0C0
C0C0
C0C0
FCC0
FCC0
C0C0
C0C0
C0C0
C0C0
C0C0
C0C0
C0C0
C0E0
C070
C070
ENDCHAR
STARTCHAR F0FF
ENCODING 61695
SWIDTH 450 0
DWIDTH 10 0
BBX 10 9 0 8
BITMAP
1E00
7D00
7380
DDC0
BFC0
DDC0
7380
7D00
1E00
ENDCHAR
STARTCHAR F200
ENCODING 61952
SWIDTH 3465 0
DWIDTH 77 0
BBX 76 17 1 0
BITMAP
000C0000000000000780
000C0000000180001F40
000C0000000180001CE0
000C0000000180003760
000C0000000180002FF0
C18FE0C19FE1FD83B760
C18FF0C19FF1FD839CE0
C18C38C19C3181839F40
C18C18C19C3981838780
C18C1CC19C1981838000
C18C0CC19C1981838000
C18C0CC19C1981838000
C18C1CC19C1981838000
C18C18C19C1981C38000
E18C38E19C18C0C38000
7F8FF07F9C18FCFF8000
3F0FE03F1C187C3F0000
ENDCHAR
STARTCHAR F506
ENCODING 62726
SWIDTH 855 0
DWIDTH 19 0
BBX 17 16 1 -1
BITMAP
101800
703000
F03000
D06000
106000
10C000
108000
119F80
131F80
030180
060300
060300
0C0600
080600
180400
000C00
ENDCHAR
STARTCHAR F507
ENCODING 62727
SWIDTH 855 0
DWIDTH 19 0
BBX 17 16 1 -1
BITMAP
780C00
F81800
8C3000
083000
106000
206000
40C000
FCDF80
FD9F80
030180
030300
060300
060600
0C0600
0C0400
000C00
ENDCHAR
STARTCHAR F508
ENCODING 62728
SWIDTH 855 0
DWIDTH 19 0
BBX 17 16 1 -1
BITMAP
F81800
F81800
883000
783000
786000
0C4000
0CC000
FD9F80
F99F80
030180
030300
060300
040600
0C0600
180400
000C00
ENDCHAR
STARTCHAR F509
ENCODING 62729
SWIDTH 855 0
DWIDTH 19 0
BBX 17 16 1 -1
BITMAP
181800
381800
283000
483000
C86000
FC4000
FCC000
099F80
099F80
030180
030300
060300
040600
0C0600
180400
000C00
ENDCHAR
STARTCHAR F50A
ENCODING 62730
SWIDTH 855 0
DWIDTH 19 0
BBX 17 16 1 -1
BITMAP
7C1800
7C1800
403000
703000
7C6000
0C4000
0CC000
FD9F80
F99F80
030180
030300
060300
040600
0C0600
180400
000C00
ENDCHAR
STARTCHAR F50B
ENCODING 62731
SWIDTH 855 0
DWIDTH 19 0
BBX 17 16 1 -1
BITMAP
1C1800
7C1800
E03000
F83000
FC6000
844000
CCC000
FD9F80
799F80
030180
030300
060300
040600
0C0600
180400
000C00
ENDCHAR
STARTCHAR F50C
ENCODING 62732
SWIDTH 855 0
DWIDTH 19 0
BBX 17 16 1 -1
BITMAP
101800
701800
F03000
D06000
106000
10C000
10C000
118F00
111F80
031880
061880
061F80
0C0F80
0C0180
180F00
000C00
ENDCHAR
STARTCHAR F50D
ENCODING 62733
SWIDTH 855 0
DWIDTH 19 0
BBX 17 16 1 -1
BITMAP
780C00
F81800
8C1800
083000
106000
206000
40C000
FCCF00
FD9F80
019880
031880
061F80
060F80
0C0180
0C0F00
000C00
ENDCHAR
STARTCHAR F50E
ENCODING 62734
SWIDTH 855 0
DWIDTH 19 0
BBX 17 16 1 -1
BITMAP
180C00
381800
281800
483000
C86000
FC6000
FCC000
08CF00
099F80
019880
031880
061F80
060F80
0C0180
0C0F00
000C00
ENDCHAR
STARTCHAR F50F
ENCODING 62735
SWIDTH 855 0
DWIDTH 19 0
BBX 17 16 1 -1
BITMAP
7C0C00
7C1800
403000
703000
7C6000
0C6000
0CC000
FCCF00
F99F80
031880
031880
061F80
060F80
0C0180
0C0F00
000C00
ENDCHAR
STARTCHAR F510
ENCODING 62736
SWIDTH 855 0
DWIDTH 19 0
BBX 17 16 1 -1
BITMAP
FC1800
FC3000
082000
186000
30C000
30C000
218000
618F00
631F80
021880
061880
0C1F80
0C0F80
180180
180F00
000C00
ENDCHAR
STARTCHAR F511
ENCODING 62737
SWIDTH 855 0
DWIDTH 19 0
BBX 17 16 1 -1
BITMAP
780C00
FC1800
8C3000
F83000
FC6000
8C6000
8CC000
FCCF00
799F80
031880
031880
061F80
060F80
0C0180
0C0F00
000C00
ENDCHAR
STARTCHAR F800
ENCODING 63488
SWIDTH 540 0
DWIDTH 12 0
BBX 10 15 1 0
BITMAP
1E00
3F80
7180
61C0
E0C0
C0C0
C0C0
C0C0
C0C0
C0C0
E0C0
61C0
7180
3F80
1E00
ENDCHAR
STARTCHAR F801
ENCODING 63489
SWIDTH 360 0
DWIDTH 8 0
BBX 6 15 0 0
BITMAP
0C
1C
7C
FC
4C
0C
0C
0C
0C
0C
0C
0C
0C
0C
0C
ENDCHAR
STARTCHAR F802
ENCODING 63490
SWIDTH 495 0
DWIDTH 11 0
BBX 9 15 1 0
BITMAP
7E00
FF00
C300
0380
0380
0300
0700
0E00
1C00
3800
7000
6000
C000
FF80
FF80
ENDCHAR
STARTCHAR F803
ENCODING 63491
SWIDTH 495 0
DWIDTH 11 0
BBX 9 15 1 0
BITMAP
7C00
FF00
8300
0300
0300
0700
3E00
3E00
0300
0180
0180
0180
8380
FF00
FC00
ENDCHAR
STARTCHAR F804
ENCODING 63492
SWIDTH 540 0
DWIDTH 12 0
BBX 10 15 1 0
BITMAP
0300
0700
0F00
1F00
1B00
3300
6300
4300
C300
FFC0
FFC0
0300
0300
0300
0300
ENDCHAR
STARTCHAR F805
ENCODING 63493
SWIDTH 495 0
DWIDTH 11 0
BBX 9 15 1 0
BITMAP
7F00
7F00
6000
6000
6000
7C00
7E00
0700
0380
0180
0180
0180
8300
FF00
FC00
ENDCHAR
STARTCHAR F806
ENCODING 63494
SWIDTH 540 0
DWIDTH 12 0
BBX 10 15 1 0
BITMAP
0380
1F80
3C00
3000
6000
7F00
FF80
C1C0
C0C0
C0C0
C0C0
E0C0
7180
3F80
1E00
ENDCHAR
STARTCHAR F807
ENCODING 63495
SWIDTH 450 0
DWIDTH 10 0
BBX 10 15 0 0
BITMAP
FFC0
FFC0
01C0
0180
0300
0700
0600
0600
0C00
0C00
1C00
1800
1800
1800
1800
ENDCHAR
STARTCHAR F808
ENCODING 63496
SWIDTH 540 0
DWIDTH 12 0
BBX 10 15 1 0
BITMAP
1F00
7F80
6180
E0C0
E0C0
6180
7B80
1E00
7780
61C0
C0C0
C0C0
E1C0
7F80
3F00
ENDCHAR
STARTCHAR F809
ENCODING 63497
SWIDTH 540 0
DWIDTH 12 0
BBX 10 15 1 0
BITMAP
1E00
7F00
6180
C1C0
C0C0
C0C0
E0C0
7FC0
3EC0
01C0
0180
0380
0F00
7E00
7800
ENDCHAR
STARTCHAR F80A
ENCODING 63498
SWIDTH 360 0
DWIDTH 8 0
BBX 6 9 1 9
BITMAP
78
FC
CC
84
84
84
CC
FC
78
ENDCHAR
STARTCHAR F80B
ENCODING 63499
SWIDTH 360 0
DWIDTH 8 0
BBX 4 9 1 9
BITMAP
10
70
F0
D0
10
10
10
10
10
ENDCHAR
STARTCHAR F80C
ENCODING 63500
SWIDTH 360 0
DWIDTH 8 0
BBX 6 9 1 9
BITMAP
78
F8
8C
08
10
20
40
FC
FC
ENDCHAR
STARTCHAR F80D
ENCODING 63501
SWIDTH 360 0
DWIDTH 8 0
BBX 6 9 1 9
BITMAP
F8
F8
88
78
78
0C
0C
FC
F8
ENDCHAR
STARTCHAR F80E
ENCODING 63502
SWIDTH 360 0
DWIDTH 8 0
BBX 6 9 1 9
BITMAP
18
38
28
48
C8
FC
FC
08
08
ENDCHAR
STARTCHAR F80F
ENCODING 63503
SWIDTH 360 0
DWIDTH 8 0
BBX 6 9 1 9
BITMAP
7C
7C
40
70
7C
0C
0C
FC
F8
ENDCHAR
STARTCHAR F810
ENCODING 63504
SWIDTH 360 0
DWIDTH 8 0
BBX 6 9 1 9
BITMAP
1C
7C
E0
F8
FC
84
CC
FC
78
ENDCHAR
STARTCHAR F811
ENCODING 63505
SWIDTH 360 0
DWIDTH 8 0
BBX 6 9 1 9
BITMAP
FC
FC
08
18
30
30
20
60
60
ENDCHAR
STARTCHAR F812
ENCODING 63506
SWIDTH 360 0
DWIDTH 8 0
BBX 6 9 1 9
BITMAP
78
FC
8C
F8
FC
8C
8C
FC
78
ENDCHAR
STARTCHAR F813
ENCODING 63507
SWIDTH 360 0
DWIDTH 8 0
BBX 6 9 1 9
BITMAP
78
FC
8C
84
FC
7C
18
F8
E0
ENDCHAR
STARTCHAR F814
ENCODING 63508
SWIDTH 360 0
DWIDTH 8 0
BBX 6 9 1 -4
BITMAP
78
FC
CC
84
84
84
CC
FC
78
ENDCHAR
STARTCHAR F815
ENCODING 63509
SWIDTH 360 0
DWIDTH 8 0
BBX 4 9 1 -4
BITMAP
10
70
F0
D0
10
10
10
10
10
ENDCHAR
STARTCHAR F816
ENCODING 63510
SWIDTH 360 0
DWIDTH 8 0
BBX 6 9 1 -4
BITMAP
78
F8
8C
08
10
20
40
FC
FC
ENDCHAR
STARTCHAR F817
ENCODING 63511
SWIDTH 360 0
DWIDTH 8 0
BBX 6 9 1 -4
BITMAP
F8
F8
88
78
78
0C
0C
FC
F8
ENDCHAR
STARTCHAR F818
ENCODING 63512
SWIDTH 360 0
DWIDTH 8 0
BBX 6 9 1 -4
BITMAP
18
38
28
48
C8
FC
FC
08
08
ENDCHAR
STARTCHAR F819
ENCODING 63513
SWIDTH 360 0
DWIDTH 8 0
BBX 6 9 1 -4
BITMAP
7C
7C
40
70
7C
0C
0C
FC
F8
ENDCHAR
STARTCHAR F81A
ENCODING 63514
SWIDTH 360 0
DWIDTH 8 0
BBX 6 9 1 -4
BITMAP
1C
7C
E0
F8
FC
84
CC
FC
78
ENDCHAR
STARTCHAR F81B
ENCODING 63515
SWIDTH 360 0
DWIDTH 8 0
BBX 6 9 1 -4
BITMAP
FC
FC
08
18
30
30
20
60
60
ENDCHAR
STARTCHAR F81C
ENCODING 63516
SWIDTH 360 0
DWIDTH 8 0
BBX 6 9 1 -4
BITMAP
78
FC
8C
F8
FC
8C
8C
FC
78
ENDCHAR
STARTCHAR F81D
ENCODING 63517
SWIDTH 360 0
DWIDTH 8 0
BBX 6 9 1 -4
BITMAP
78
FC
8C
84
FC
7C
18
F8
E0
ENDCHAR
STARTCHAR FB00
ENCODING 64256
SWIDTH 765 0
DWIDTH 17 0
BBX 15 17 2 0
BITMAP
3E3E
7C7E
C060
C0C0
C0C0
FCFE
FCFE
C0C0
C0C0
C0C0
C0C0
C0C0
C0C0
C0C0
C0C0
C0C0
C0C0
ENDCHAR
STARTCHAR FB01
ENCODING 64257
SWIDTH 630 0
DWIDTH 14 0
BBX 11 17 2 0
BITMAP
3C00
7CE0
C0E0
C000
C000
FCC0
FCC0
C0C0
C0C0
C0C0
C0C0
C0C0
C0C0
C0C0
C0C0
C0C0
C0C0
ENDCHAR
STARTCHAR FB02
ENCODING 64258
SWIDTH 675 0
DWIDTH 15 0
BBX 12 17 2 0
BITMAP
3CC0
7CC0
C0C0
C0C0
C0C0
FCC0
FCC0
C0C0
C0C0
C0C0
C0C0
C0C0
C0C0
C0C0
C0E0
C070
C070
ENDCHAR
STARTCHAR FB03
ENCODING 64259
SWIDTH 1035 0
DWIDTH 23 0
BBX 19 17 2 0
BITMAP
3E3E00
7C7E60
C06060
C0C000
C0C000
FCFE60
FCFE60
C0C060
C0C060
C0C060
C0C060
C0C060
C0C060
C0C060
C0C060
C0C060
C0C060
ENDCHAR
STARTCHAR FB04
ENCODING 64260
SWIDTH 1035 0
DWIDTH 23 0
BBX 21 17 2 0
BITMAP
3E3E60
7C7E60
C06060
C0C060
C0C060
FCFE60
FCFE60
C0C060
C0C060
C0C060
C0C060
C0C060
C0C060
C0C060
C0C060
C0C078
C0C030
ENDCHAR
ENDFONT
